# This file uses centimeters as units for non-parametric coordinates.

mtllib bandera1.mtl
g default
v 1.838294 -10.332226 -0.078421
v -1.801015 -10.332226 -0.078421
v 1.838294 -0.013964 -0.078421
v -1.801015 -0.013964 -0.078421
v 1.838294 -0.013964 0.025880
v -1.801015 -0.013964 0.025880
v 1.838294 -10.332226 0.025880
v -1.801015 -10.332226 0.025880
v 1.838294 -0.326504 -0.078421
v 1.838294 -0.326506 0.025880
v -1.801011 -0.326506 0.025880
v -1.801015 -0.326504 -0.078421
v 1.838294 -0.654402 -0.078421
v 1.838294 -0.654400 0.025880
v -1.801011 -0.654400 0.025880
v -1.801015 -0.654402 -0.078421
v 1.838294 -1.038021 -0.078421
v 1.838294 -1.038021 0.025880
v -1.801011 -1.038021 0.025880
v -1.801015 -1.038021 -0.078421
v 1.838294 -1.477980 -0.078421
v 1.838294 -1.477976 0.025880
v -1.801011 -1.477976 0.025880
v -1.801015 -1.477980 -0.078421
v 1.838294 -1.854532 -0.078429
v 1.838290 -1.854528 0.025880
v -1.801011 -1.854528 0.025880
v -1.801015 -1.854532 -0.078429
v 1.838294 -2.246923 -0.078429
v 1.838290 -2.246916 0.025880
v -1.801011 -2.246916 0.025880
v -1.801015 -2.246923 -0.078429
v 1.838294 -2.678882 -0.078429
v 1.838290 -2.678874 0.025880
v -1.801011 -2.678874 0.025880
v -1.801015 -2.678882 -0.078429
v 1.838294 -3.155447 -0.078421
v 1.838290 -3.155441 0.025880
v -1.801015 -3.155441 0.025880
v -1.801015 -3.155447 -0.078421
v 1.838294 -3.691689 -0.078429
v 1.838290 -3.691685 0.025880
v -1.801015 -3.691685 0.025880
v -1.801015 -3.691689 -0.078429
v 1.838294 -4.156738 -0.078429
v 1.838290 -4.156738 0.025880
v -1.801019 -4.156738 0.025880
v -1.801015 -4.156738 -0.078429
v 1.838294 -4.576956 -0.078429
v 1.838290 -4.576959 0.025880
v -1.801019 -4.576959 0.025880
v -1.801015 -4.576956 -0.078429
v 1.838294 -5.075851 -0.078429
v 1.838290 -5.075853 0.025880
v -1.801019 -5.075853 0.025880
v -1.801015 -5.075851 -0.078429
v 1.838294 -5.628963 -0.078429
v 1.838290 -5.628965 0.025880
v -1.801019 -5.628965 0.025880
v -1.801015 -5.628963 -0.078429
v 1.838294 -6.171748 -0.078429
v 1.838290 -6.171749 0.025880
v -1.801019 -6.171749 0.025880
v -1.801015 -6.171748 -0.078429
v 1.838294 -6.696647 -0.078429
v 1.838294 -6.696647 0.025880
v -1.801019 -6.696647 0.025880
v -1.801015 -6.696647 -0.078429
v 1.838294 -7.197714 -0.078429
v 1.838294 -7.197714 0.025880
v -1.801019 -7.197714 0.025880
v -1.801015 -7.197714 -0.078429
v 1.838294 -7.678663 -0.078429
v 1.838294 -7.678663 0.025880
v -1.801015 -7.678663 0.025880
v -1.801019 -7.678663 -0.078429
v 1.838294 -8.229153 -0.078429
v 1.838294 -8.229153 0.025880
v -1.801015 -8.229153 0.025880
v -1.801019 -8.229153 -0.078429
v 1.838294 -8.755858 -0.078429
v 1.838294 -8.755858 0.025880
v -1.801019 -8.755858 0.025880
v -1.801019 -8.755858 -0.078429
v 1.838294 -9.362263 -0.078429
v 1.838294 -9.362264 0.025880
v -1.801019 -9.362264 0.025880
v -1.801019 -9.362263 -0.078429
v 1.838294 -9.883503 -0.078421
v 1.838294 -9.883504 0.025880
v -1.801015 -9.883504 0.025880
v -1.801015 -9.883503 -0.078421
vt 0.000000 -0.029154
vt 1.000000 -0.029154
vt 1.000000 1.029154
vt 0.000000 1.029154
vt 1.000000 1.029154
vt 0.000000 1.029154
vt 1.000000 -0.029154
vt 0.000000 -0.029154
vt 0.000000 0.997098
vt 0.000000 0.997098
vt 1.000000 0.997098
vt 1.000000 0.997098
vt 0.000000 0.963466
vt 0.000000 0.963467
vt 1.000000 0.963467
vt 1.000000 0.963466
vt 0.000000 0.924120
vt 0.000000 0.924120
vt 1.000000 0.924120
vt 1.000000 0.924120
vt 0.000000 0.878995
vt 0.000000 0.878995
vt 1.000000 0.878995
vt 1.000000 0.878995
vt 0.000000 0.840373
vt 0.000000 0.840374
vt 1.000000 0.840374
vt 1.000000 0.840373
vt 0.000000 0.800127
vt 0.000000 0.800128
vt 1.000000 0.800128
vt 1.000000 0.800127
vt 0.000000 0.755823
vt 0.000000 0.755823
vt 1.000000 0.755823
vt 1.000000 0.755823
vt 0.000000 0.706943
vt 0.000000 0.706944
vt 1.000000 0.706944
vt 1.000000 0.706943
vt 0.000000 0.651943
vt 0.000000 0.651943
vt 1.000000 0.651943
vt 1.000000 0.651943
vt 0.000000 0.604244
vt 0.000000 0.604244
vt 1.000000 0.604244
vt 1.000000 0.604244
vt 0.000000 0.561144
vt 0.000000 0.561144
vt 1.000000 0.561144
vt 1.000000 0.561144
vt 0.000000 0.509974
vt 0.000000 0.509974
vt 1.000000 0.509974
vt 1.000000 0.509974
vt 0.000000 0.453243
vt 0.000000 0.453243
vt 1.000000 0.453243
vt 1.000000 0.453243
vt 0.000000 0.397572
vt 0.000000 0.397571
vt 1.000000 0.397571
vt 1.000000 0.397572
vt 0.000000 0.343735
vt 0.000000 0.343734
vt 1.000000 0.343734
vt 1.000000 0.343735
vt 0.000000 0.292342
vt 0.000000 0.292342
vt 1.000000 0.292342
vt 1.000000 0.292342
vt 0.000000 0.243013
vt 0.000000 0.243012
vt 1.000000 0.243012
vt 1.000000 0.243013
vt 0.000000 0.186551
vt 0.000000 0.186551
vt 1.000000 0.186551
vt 1.000000 0.186551
vt 0.000000 0.132528
vt 0.000000 0.132528
vt 1.000000 0.132528
vt 1.000000 0.132528
vt 0.000000 0.070332
vt 0.000000 0.070332
vt 1.000000 0.070332
vt 1.000000 0.070332
vt 0.000000 0.016870
vt 0.000000 0.016870
vt 1.000000 0.016870
vt 1.000000 0.016870
vn 0.000000 0.000000 -1.000000
vn 0.000000 0.000000 -1.000000
vn 0.000000 -0.000017 -1.000000
vn 0.000000 -0.000017 -1.000000
vn 0.000000 1.000000 0.000000
vn 0.000000 1.000000 0.000000
vn 0.000000 1.000000 0.000000
vn 0.000000 1.000000 0.000000
vn 0.000000 0.000000 1.000000
vn 0.000000 0.000000 1.000000
vn 0.000000 0.000000 1.000000
vn 0.000000 0.000000 1.000000
vn 0.000000 -1.000000 0.000000
vn 0.000000 -1.000000 0.000000
vn 0.000000 -1.000000 0.000000
vn 0.000000 -1.000000 0.000000
vn -1.000000 0.000000 -0.000000
vn -1.000000 0.000000 -0.000000
vn -1.000000 -0.000004 -0.000001
vn -1.000000 -0.000004 -0.000001
vn 1.000000 0.000000 0.000000
vn 1.000000 0.000000 -0.000000
vn 1.000000 0.000000 -0.000001
vn 1.000000 0.000000 -0.000002
vn 1.000000 0.000000 -0.000004
vn 1.000000 0.000000 -0.000004
vn 1.000000 0.000000 0.000000
vn 1.000000 0.000000 0.000000
vn 0.000000 0.000000 1.000000
vn 0.000000 0.000000 1.000000
vn 0.000000 0.000000 1.000000
vn 0.000000 0.000000 1.000000
vn -1.000000 0.000000 0.000039
vn -1.000000 -0.000001 0.000035
vn -1.000000 -0.000010 0.000009
vn -1.000000 -0.000012 0.000000
vn 0.000000 0.000000 -1.000000
vn 0.000000 0.000000 -1.000000
vn 0.000000 0.000000 -1.000000
vn 0.000000 0.000000 -1.000000
vn 1.000000 0.000000 0.000003
vn 1.000000 0.000000 0.000003
vn 0.000000 0.000000 1.000000
vn 0.000000 0.000000 1.000000
vn -1.000000 0.000000 0.000035
vn -1.000000 0.000000 0.000036
vn 0.000000 0.000000 -1.000000
vn 0.000000 0.000000 -1.000000
vn 1.000000 0.000000 -0.000002
vn 1.000000 0.000000 0.000001
vn 0.000000 0.000000 1.000000
vn 0.000000 0.000000 1.000000
vn -1.000000 0.000000 0.000034
vn -1.000000 0.000000 0.000034
vn 0.000000 0.000000 -1.000000
vn 0.000000 0.000000 -1.000000
vn 1.000000 -0.000001 -0.000007
vn 1.000000 0.000000 -0.000008
vn 0.000000 0.000011 1.000000
vn 0.000000 0.000001 1.000000
vn -1.000000 0.000000 0.000039
vn -1.000000 0.000000 0.000038
vn 0.000000 0.000001 -1.000000
vn 0.000000 0.000021 -1.000000
vn 1.000000 -0.000005 0.000037
vn 1.000000 -0.000004 0.000034
vn 0.000000 0.000011 1.000000
vn 0.000000 0.000000 1.000000
vn -1.000000 0.000000 0.000037
vn -1.000000 0.000000 0.000036
vn 0.000000 0.000000 -1.000000
vn 0.000000 0.000020 -1.000000
vn 1.000000 0.000000 0.000041
vn 1.000000 0.000000 0.000042
vn 0.000000 0.000000 1.000000
vn 0.000000 0.000000 1.000000
vn -1.000000 0.000000 0.000044
vn -1.000000 0.000000 0.000043
vn 0.000000 0.000000 -1.000000
vn 0.000000 0.000000 -1.000000
vn 1.000000 0.000000 0.000042
vn 1.000000 0.000000 0.000043
vn 0.000000 0.000000 1.000000
vn 0.000000 -0.000017 1.000000
vn -1.000000 0.000004 0.000028
vn -1.000000 0.000004 0.000031
vn 0.000000 -0.000017 -1.000000
vn 0.000000 0.000000 -1.000000
vn 1.000000 0.000000 0.000035
vn 1.000000 0.000000 0.000036
vn 0.000000 -0.000001 1.000000
vn 0.000000 -0.000017 1.000000
vn -1.000000 0.000000 0.000002
vn -1.000000 0.000001 0.000004
vn 0.000000 -0.000015 -1.000000
vn 0.000000 0.000015 -1.000000
vn 1.000000 0.000000 0.000033
vn 1.000000 0.000000 0.000033
vn 0.000000 0.000000 1.000000
vn 0.000000 0.000000 1.000000
vn -1.000000 0.000003 -0.000003
vn -1.000000 0.000004 0.000000
vn 0.000000 0.000000 -1.000000
vn 0.000000 0.000015 -1.000000
vn 1.000000 0.000000 0.000040
vn 1.000000 0.000000 0.000041
vn 0.000000 0.000000 1.000000
vn 0.000000 0.000000 1.000000
vn -1.000000 0.000000 -0.000036
vn -1.000000 0.000001 -0.000033
vn 0.000000 0.000000 -1.000000
vn 0.000000 0.000000 -1.000000
vn 1.000000 0.000000 0.000026
vn 1.000000 0.000000 0.000027
vn 0.000000 0.000000 1.000000
vn 0.000000 0.000000 1.000000
vn -1.000000 0.000000 -0.000034
vn -1.000000 0.000000 -0.000034
vn 0.000000 0.000000 -1.000000
vn 0.000000 0.000000 -1.000000
vn 1.000000 0.000000 0.000032
vn 1.000000 0.000000 0.000032
vn 0.000000 0.000000 1.000000
vn 0.000000 0.000000 1.000000
vn -1.000000 0.000000 -0.000037
vn -1.000000 0.000000 -0.000037
vn 0.000000 0.000000 -1.000000
vn 0.000000 0.000000 -1.000000
vn 1.000000 0.000000 0.000031
vn 1.000000 0.000000 0.000031
vn 0.000000 0.000000 1.000000
vn 0.000000 0.000000 1.000000
vn -1.000000 0.000000 -0.000036
vn -1.000000 0.000000 -0.000036
vn 0.000000 0.000000 -1.000000
vn 0.000000 0.000000 -1.000000
vn 1.000000 0.000000 0.000031
vn 1.000000 0.000000 0.000033
vn 0.000000 0.000007 1.000000
vn 0.000000 0.000001 1.000000
vn -1.000000 0.000000 -0.000039
vn -1.000000 0.000000 -0.000039
vn 0.000000 0.000000 -1.000000
vn 0.000000 0.000000 -1.000000
vn 1.000000 0.000004 0.000000
vn 1.000000 0.000003 0.000002
vn 0.000000 0.000007 1.000000
vn 0.000000 0.000000 1.000000
vn -1.000000 0.000000 -0.000036
vn -1.000000 0.000000 -0.000036
vn 0.000000 0.000000 -1.000000
vn 0.000000 0.000000 -1.000000
vn 1.000000 0.000000 0.000000
vn 1.000000 0.000000 0.000000
vn 0.000000 0.000000 1.000000
vn 0.000000 0.000000 1.000000
vn -1.000000 -0.000003 -0.000032
vn -1.000000 -0.000004 -0.000037
vn 0.000000 0.000001 -1.000000
vn 0.000000 0.000017 -1.000000
vn 1.000000 0.000000 0.000000
vn 1.000000 0.000000 0.000000
vn 0.000000 0.000000 1.000000
vn 0.000000 0.000000 1.000000
vn -1.000000 0.000004 0.000039
vn -1.000000 0.000003 0.000035
vn 0.000000 0.000000 -1.000000
vn 0.000000 0.000015 -1.000000
vn 1.000000 0.000000 0.000000
vn 1.000000 0.000000 0.000000
vn 0.000000 0.000000 1.000000
vn 0.000000 0.000000 1.000000
vn -1.000000 0.000003 0.000032
vn -1.000000 0.000004 0.000034
vn 0.000000 0.000000 -1.000000
vn 0.000000 0.000000 -1.000000
vn 1.000000 0.000000 0.000000
vn 1.000000 0.000000 0.000000
vn 0.000000 0.000000 1.000000
vn 0.000000 0.000000 1.000000
vn -1.000000 0.000000 -0.000000
vn -1.000000 0.000000 0.000002
vn 0.000000 0.000000 -1.000000
vn 0.000000 0.000000 -1.000000
vn 1.000000 0.000000 -0.000001
vn 1.000000 0.000000 -0.000001
vn 0.000000 0.000000 1.000000
vn 0.000000 0.000000 1.000000
vn -1.000000 -0.000003 -0.000005
vn -1.000000 -0.000003 -0.000005
vn 0.000000 -0.000015 -1.000000
vn 0.000000 -0.000015 -1.000000
s 1
g polySurface2183 pCylinder44
usemtl lambert19SG
f 1/1/1 2/2/2 89/89/3
f 89/89/3 2/2/2 92/92/4
s 2
f 3/4/5 4/3/6 5/6/7
f 5/6/7 4/3/6 6/5/8
s 3
f 90/90/9 91/91/10 7/8/11
f 7/8/11 91/91/10 8/7/12
s 4
f 7/8/13 8/7/14 1/1/15
f 1/1/15 8/7/14 2/2/16
s 5
f 2/2/17 8/7/18 92/92/19
f 92/92/19 8/7/18 91/91/20
s 6
f 7/8/21 1/1/22 90/90/23
f 90/90/23 1/1/22 89/89/24
f 10/10/25 9/9/26 5/6/27
f 5/6/27 9/9/26 3/4/28
s 3
f 5/6/29 6/5/30 10/10/31
f 10/10/31 6/5/30 11/11/32
s 5
f 12/12/33 11/11/34 4/3/35
f 4/3/35 11/11/34 6/5/36
s 1
f 9/9/37 12/12/38 3/4/39
f 3/4/39 12/12/38 4/3/40
s 6
f 14/14/41 13/13/42 10/10/25
f 10/10/25 13/13/42 9/9/26
s 3
f 10/10/31 11/11/32 14/14/43
f 14/14/43 11/11/32 15/15/44
s 5
f 16/16/45 15/15/46 12/12/33
f 12/12/33 15/15/46 11/11/34
s 1
f 13/13/47 16/16/48 9/9/37
f 9/9/37 16/16/48 12/12/38
s 6
f 18/18/49 17/17/50 14/14/41
f 14/14/41 17/17/50 13/13/42
s 3
f 14/14/43 15/15/44 18/18/51
f 18/18/51 15/15/44 19/19/52
s 5
f 20/20/53 19/19/54 16/16/45
f 16/16/45 19/19/54 15/15/46
s 1
f 17/17/55 20/20/56 13/13/47
f 13/13/47 20/20/56 16/16/48
s 6
f 22/22/57 21/21/58 18/18/49
f 18/18/49 21/21/58 17/17/50
s 3
f 18/18/51 19/19/52 22/22/59
f 22/22/59 19/19/52 23/23/60
s 5
f 24/24/61 23/23/62 20/20/53
f 20/20/53 23/23/62 19/19/54
s 1
f 21/21/63 24/24/64 17/17/55
f 17/17/55 24/24/64 20/20/56
s 6
f 26/26/65 25/25/66 22/22/57
f 22/22/57 25/25/66 21/21/58
s 3
f 22/22/59 23/23/60 26/26/67
f 26/26/67 23/23/60 27/27/68
s 5
f 28/28/69 27/27/70 24/24/61
f 24/24/61 27/27/70 23/23/62
s 1
f 25/25/71 28/28/72 21/21/63
f 21/21/63 28/28/72 24/24/64
s 6
f 30/30/73 29/29/74 26/26/65
f 26/26/65 29/29/74 25/25/66
s 3
f 26/26/67 27/27/68 30/30/75
f 30/30/75 27/27/68 31/31/76
s 5
f 32/32/77 31/31/78 28/28/69
f 28/28/69 31/31/78 27/27/70
s 1
f 29/29/79 32/32/80 25/25/71
f 25/25/71 32/32/80 28/28/72
s 6
f 34/34/81 33/33/82 30/30/73
f 30/30/73 33/33/82 29/29/74
s 3
f 30/30/75 31/31/76 34/34/83
f 34/34/83 31/31/76 35/35/84
s 5
f 36/36/85 35/35/86 32/32/77
f 32/32/77 35/35/86 31/31/78
s 1
f 33/33/87 36/36/88 29/29/79
f 29/29/79 36/36/88 32/32/80
s 6
f 38/38/89 37/37/90 34/34/81
f 34/34/81 37/37/90 33/33/82
s 3
f 34/34/83 35/35/84 38/38/91
f 38/38/91 35/35/84 39/39/92
s 5
f 40/40/93 39/39/94 36/36/85
f 36/36/85 39/39/94 35/35/86
s 1
f 37/37/95 40/40/96 33/33/87
f 33/33/87 40/40/96 36/36/88
s 6
f 42/42/97 41/41/98 38/38/89
f 38/38/89 41/41/98 37/37/90
s 3
f 38/38/91 39/39/92 42/42/99
f 42/42/99 39/39/92 43/43/100
s 5
f 44/44/101 43/43/102 40/40/93
f 40/40/93 43/43/102 39/39/94
s 1
f 41/41/103 44/44/104 37/37/95
f 37/37/95 44/44/104 40/40/96
s 6
f 46/46/105 45/45/106 42/42/97
f 42/42/97 45/45/106 41/41/98
s 3
f 42/42/99 43/43/100 46/46/107
f 46/46/107 43/43/100 47/47/108
s 5
f 48/48/109 47/47/110 44/44/101
f 44/44/101 47/47/110 43/43/102
s 1
f 45/45/111 48/48/112 41/41/103
f 41/41/103 48/48/112 44/44/104
s 6
f 50/50/113 49/49/114 46/46/105
f 46/46/105 49/49/114 45/45/106
s 3
f 46/46/107 47/47/108 50/50/115
f 50/50/115 47/47/108 51/51/116
s 5
f 52/52/117 51/51/118 48/48/109
f 48/48/109 51/51/118 47/47/110
s 1
f 49/49/119 52/52/120 45/45/111
f 45/45/111 52/52/120 48/48/112
s 6
f 54/54/121 53/53/122 50/50/113
f 50/50/113 53/53/122 49/49/114
s 3
f 50/50/115 51/51/116 54/54/123
f 54/54/123 51/51/116 55/55/124
s 5
f 56/56/125 55/55/126 52/52/117
f 52/52/117 55/55/126 51/51/118
s 1
f 53/53/127 56/56/128 49/49/119
f 49/49/119 56/56/128 52/52/120
s 6
f 58/58/129 57/57/130 54/54/121
f 54/54/121 57/57/130 53/53/122
s 3
f 54/54/123 55/55/124 58/58/131
f 58/58/131 55/55/124 59/59/132
s 5
f 60/60/133 59/59/134 56/56/125
f 56/56/125 59/59/134 55/55/126
s 1
f 57/57/135 60/60/136 53/53/127
f 53/53/127 60/60/136 56/56/128
s 6
f 62/62/137 61/61/138 58/58/129
f 58/58/129 61/61/138 57/57/130
s 3
f 58/58/131 59/59/132 62/62/139
f 62/62/139 59/59/132 63/63/140
s 5
f 64/64/141 63/63/142 60/60/133
f 60/60/133 63/63/142 59/59/134
s 1
f 61/61/143 64/64/144 57/57/135
f 57/57/135 64/64/144 60/60/136
s 6
f 66/66/145 65/65/146 62/62/137
f 62/62/137 65/65/146 61/61/138
s 3
f 62/62/139 63/63/140 66/66/147
f 66/66/147 63/63/140 67/67/148
s 5
f 68/68/149 67/67/150 64/64/141
f 64/64/141 67/67/150 63/63/142
s 1
f 65/65/151 68/68/152 61/61/143
f 61/61/143 68/68/152 64/64/144
s 6
f 70/70/153 69/69/154 66/66/145
f 66/66/145 69/69/154 65/65/146
s 3
f 66/66/147 67/67/148 70/70/155
f 70/70/155 67/67/148 71/71/156
s 5
f 72/72/157 71/71/158 68/68/149
f 68/68/149 71/71/158 67/67/150
s 1
f 69/69/159 72/72/160 65/65/151
f 65/65/151 72/72/160 68/68/152
s 6
f 74/74/161 73/73/162 70/70/153
f 70/70/153 73/73/162 69/69/154
s 3
f 70/70/155 71/71/156 74/74/163
f 74/74/163 71/71/156 75/75/164
s 5
f 76/76/165 75/75/166 72/72/157
f 72/72/157 75/75/166 71/71/158
s 1
f 73/73/167 76/76/168 69/69/159
f 69/69/159 76/76/168 72/72/160
s 6
f 78/78/169 77/77/170 74/74/161
f 74/74/161 77/77/170 73/73/162
s 3
f 74/74/163 75/75/164 78/78/171
f 78/78/171 75/75/164 79/79/172
s 5
f 80/80/173 79/79/174 76/76/165
f 76/76/165 79/79/174 75/75/166
s 1
f 77/77/175 80/80/176 73/73/167
f 73/73/167 80/80/176 76/76/168
s 6
f 82/82/177 81/81/178 78/78/169
f 78/78/169 81/81/178 77/77/170
s 3
f 78/78/171 79/79/172 82/82/179
f 82/82/179 79/79/172 83/83/180
s 5
f 84/84/181 83/83/182 80/80/173
f 80/80/173 83/83/182 79/79/174
s 1
f 81/81/183 84/84/184 77/77/175
f 77/77/175 84/84/184 80/80/176
s 6
f 86/86/185 85/85/186 82/82/177
f 82/82/177 85/85/186 81/81/178
s 3
f 82/82/179 83/83/180 86/86/187
f 86/86/187 83/83/180 87/87/188
s 5
f 88/88/189 87/87/190 84/84/181
f 84/84/181 87/87/190 83/83/182
s 1
f 85/85/191 88/88/192 81/81/183
f 81/81/183 88/88/192 84/84/184
s 6
f 90/90/23 89/89/24 86/86/185
f 86/86/185 89/89/24 85/85/186
s 3
f 86/86/187 87/87/188 90/90/9
f 90/90/9 87/87/188 91/91/10
s 5
f 92/92/19 91/91/20 88/88/189
f 88/88/189 91/91/20 87/87/190
s 1
f 89/89/3 92/92/4 85/85/191
f 85/85/191 92/92/4 88/88/192
