# This file uses centimeters as units for non-parametric coordinates.

mtllib bandera7.mtl
g default
v 1.838295 -10.332226 -0.078422
v -1.801013 -10.332226 -0.078422
v 1.838295 -0.013964 -0.078422
v -1.801013 -0.013964 -0.078422
v 1.838295 -0.013964 0.025879
v -1.801013 -0.013964 0.025879
v 1.838295 -10.332226 0.025879
v -1.801013 -10.332226 0.025879
v 1.838295 -0.326504 -0.078422
v 1.838295 -0.326506 0.025877
v -1.801010 -0.326506 0.025877
v -1.801013 -0.326504 -0.078422
v 1.838295 -0.654402 -0.078422
v 1.838295 -0.654400 0.025877
v -1.801010 -0.654400 0.025877
v -1.801013 -0.654402 -0.078422
v 1.838295 -1.038022 -0.078422
v 1.838295 -1.038022 0.025877
v -1.801010 -1.038022 0.025877
v -1.801013 -1.038022 -0.078422
v 1.838295 -1.477980 -0.078422
v 1.838295 -1.477976 0.025879
v -1.801010 -1.477976 0.025879
v -1.801013 -1.477980 -0.078422
v 1.838295 -1.854533 -0.078424
v 1.838292 -1.854529 0.025881
v -1.801010 -1.854529 0.025881
v -1.801013 -1.854533 -0.078424
v 1.838295 -2.246924 -0.078424
v 1.838292 -2.246916 0.025881
v -1.801010 -2.246916 0.025881
v -1.801013 -2.246924 -0.078424
v 1.838295 -2.678882 -0.078424
v 1.838292 -2.678875 0.025881
v -1.801010 -2.678875 0.025881
v -1.801013 -2.678882 -0.078424
v 1.838295 -3.155448 -0.078422
v 1.838292 -3.155442 0.025881
v -1.801013 -3.155442 0.025881
v -1.801013 -3.155448 -0.078422
v 1.838295 -3.691689 -0.078424
v 1.838292 -3.691685 0.025881
v -1.801013 -3.691685 0.025881
v -1.801013 -3.691689 -0.078424
v 1.838295 -4.156739 -0.078424
v 1.838292 -4.156739 0.025881
v -1.801017 -4.156739 0.025881
v -1.801013 -4.156739 -0.078424
v 1.838295 -4.576956 -0.078424
v 1.838292 -4.576959 0.025881
v -1.801017 -4.576959 0.025881
v -1.801013 -4.576956 -0.078424
v 1.838295 -5.075852 -0.078424
v 1.838292 -5.075854 0.025881
v -1.801017 -5.075854 0.025881
v -1.801013 -5.075852 -0.078424
v 1.838295 -5.628964 -0.078424
v 1.838292 -5.628966 0.025881
v -1.801017 -5.628966 0.025881
v -1.801013 -5.628964 -0.078424
v 1.838295 -6.171749 -0.078424
v 1.838292 -6.171750 0.025881
v -1.801017 -6.171750 0.025881
v -1.801013 -6.171749 -0.078424
v 1.838295 -6.696647 -0.078424
v 1.838295 -6.696647 0.025881
v -1.801017 -6.696647 0.025881
v -1.801013 -6.696647 -0.078424
v 1.838295 -7.197714 -0.078424
v 1.838295 -7.197714 0.025881
v -1.801017 -7.197714 0.025881
v -1.801013 -7.197714 -0.078424
v 1.838295 -7.678664 -0.078424
v 1.838295 -7.678664 0.025881
v -1.801013 -7.678664 0.025881
v -1.801017 -7.678664 -0.078424
v 1.838295 -8.229153 -0.078424
v 1.838295 -8.229153 0.025879
v -1.801013 -8.229153 0.025879
v -1.801017 -8.229153 -0.078424
v 1.838295 -8.755859 -0.078424
v 1.838295 -8.755859 0.025879
v -1.801017 -8.755859 0.025879
v -1.801017 -8.755859 -0.078424
v 1.838295 -9.362263 -0.078424
v 1.838295 -9.362264 0.025877
v -1.801017 -9.362264 0.025877
v -1.801017 -9.362263 -0.078424
v 1.838295 -9.883504 -0.078422
v 1.838295 -9.883504 0.025877
v -1.801013 -9.883504 0.025877
v -1.801013 -9.883504 -0.078422
vt 0.000000 -0.029154
vt 1.000000 -0.029154
vt 1.000000 1.029154
vt 0.000000 1.029154
vt 1.000000 1.029154
vt 0.000000 1.029154
vt 1.000000 -0.029154
vt 0.000000 -0.029154
vt 0.000000 0.997098
vt 0.000000 0.997098
vt 1.000000 0.997098
vt 1.000000 0.997098
vt 0.000000 0.963466
vt 0.000000 0.963467
vt 1.000000 0.963467
vt 1.000000 0.963466
vt 0.000000 0.924120
vt 0.000000 0.924120
vt 1.000000 0.924120
vt 1.000000 0.924120
vt 0.000000 0.878995
vt 0.000000 0.878995
vt 1.000000 0.878995
vt 1.000000 0.878995
vt 0.000000 0.840373
vt 0.000000 0.840374
vt 1.000000 0.840374
vt 1.000000 0.840373
vt 0.000000 0.800127
vt 0.000000 0.800128
vt 1.000000 0.800128
vt 1.000000 0.800127
vt 0.000000 0.755823
vt 0.000000 0.755823
vt 1.000000 0.755823
vt 1.000000 0.755823
vt 0.000000 0.706943
vt 0.000000 0.706944
vt 1.000000 0.706944
vt 1.000000 0.706943
vt 0.000000 0.651943
vt 0.000000 0.651943
vt 1.000000 0.651943
vt 1.000000 0.651943
vt 0.000000 0.604244
vt 0.000000 0.604244
vt 1.000000 0.604244
vt 1.000000 0.604244
vt 0.000000 0.561144
vt 0.000000 0.561144
vt 1.000000 0.561144
vt 1.000000 0.561144
vt 0.000000 0.509974
vt 0.000000 0.509974
vt 1.000000 0.509974
vt 1.000000 0.509974
vt 0.000000 0.453243
vt 0.000000 0.453243
vt 1.000000 0.453243
vt 1.000000 0.453243
vt 0.000000 0.397572
vt 0.000000 0.397571
vt 1.000000 0.397571
vt 1.000000 0.397572
vt 0.000000 0.343735
vt 0.000000 0.343734
vt 1.000000 0.343734
vt 1.000000 0.343735
vt 0.000000 0.292342
vt 0.000000 0.292342
vt 1.000000 0.292342
vt 1.000000 0.292342
vt 0.000000 0.243013
vt 0.000000 0.243012
vt 1.000000 0.243012
vt 1.000000 0.243013
vt 0.000000 0.186551
vt 0.000000 0.186551
vt 1.000000 0.186551
vt 1.000000 0.186551
vt 0.000000 0.132528
vt 0.000000 0.132528
vt 1.000000 0.132528
vt 1.000000 0.132528
vt 0.000000 0.070332
vt 0.000000 0.070332
vt 1.000000 0.070332
vt 1.000000 0.070332
vt 0.000000 0.016870
vt 0.000000 0.016870
vt 1.000000 0.016870
vt 1.000000 0.016870
vn 0.000000 0.000000 -1.000000
vn 0.000000 0.000000 -1.000000
vn 0.000000 -0.000002 -1.000000
vn 0.000000 -0.000002 -1.000000
vn 0.000000 1.000000 0.000000
vn 0.000000 1.000000 0.000000
vn 0.000000 1.000000 0.000000
vn 0.000000 1.000000 0.000000
vn 0.000000 0.000002 1.000000
vn 0.000000 0.000002 1.000000
vn 0.000000 0.000004 1.000000
vn 0.000000 0.000004 1.000000
vn 0.000000 -1.000000 0.000000
vn 0.000000 -1.000000 0.000000
vn 0.000000 -1.000000 0.000000
vn 0.000000 -1.000000 0.000000
vn -1.000000 0.000000 0.000000
vn -1.000000 0.000000 0.000000
vn -1.000000 -0.000005 -0.000000
vn -1.000000 -0.000005 -0.000000
vn 1.000000 0.000005 0.000000
vn 1.000000 0.000005 0.000000
vn 1.000000 0.000002 0.000000
vn 1.000000 0.000002 0.000000
vn 1.000000 -0.000003 -0.000000
vn 1.000000 -0.000003 -0.000000
vn 1.000000 -0.000007 -0.000000
vn 1.000000 -0.000007 -0.000000
vn -0.000000 -0.000006 1.000000
vn -0.000000 -0.000006 1.000000
vn -0.000000 -0.000003 1.000000
vn -0.000000 -0.000003 1.000000
vn -1.000000 -0.000007 0.000028
vn -1.000000 -0.000007 0.000028
vn -1.000000 -0.000015 0.000018
vn -1.000000 -0.000015 0.000018
vn 0.000000 0.000000 -1.000000
vn 0.000000 0.000000 -1.000000
vn 0.000000 0.000000 -1.000000
vn 0.000000 0.000000 -1.000000
vn 1.000000 0.000000 0.000000
vn 1.000000 0.000000 0.000000
vn 0.000000 0.000000 1.000000
vn 0.000000 0.000000 1.000000
vn -1.000000 0.000000 0.000037
vn -1.000000 0.000000 0.000037
vn 0.000000 0.000000 -1.000000
vn 0.000000 0.000000 -1.000000
vn 1.000000 0.000003 0.000000
vn 1.000000 0.000003 0.000000
vn 0.000000 0.000002 1.000000
vn 0.000000 0.000002 1.000000
vn -1.000000 0.000000 0.000037
vn -1.000000 0.000000 0.000037
vn 0.000000 0.000000 -1.000000
vn 0.000000 0.000000 -1.000000
vn 1.000000 -0.000000 0.000008
vn 1.000000 -0.000000 0.000008
vn 0.000000 0.000005 1.000000
vn 0.000000 0.000005 1.000000
vn -1.000000 -0.000000 0.000037
vn -1.000000 -0.000000 0.000037
vn 0.000000 0.000002 -1.000000
vn 0.000000 0.000002 -1.000000
vn 1.000000 -0.000003 0.000028
vn 1.000000 -0.000003 0.000028
vn 0.000000 0.000002 1.000000
vn 0.000000 0.000002 1.000000
vn -1.000000 -0.000000 0.000037
vn -1.000000 -0.000000 0.000037
vn 0.000000 0.000002 -1.000000
vn 0.000000 0.000002 -1.000000
vn 1.000000 0.000000 0.000037
vn 1.000000 0.000000 0.000037
vn 0.000000 0.000000 1.000000
vn 0.000000 0.000000 1.000000
vn -1.000000 0.000000 0.000037
vn -1.000000 0.000000 0.000037
vn 0.000000 0.000000 -1.000000
vn 0.000000 0.000000 -1.000000
vn 1.000000 0.000000 0.000037
vn 1.000000 0.000000 0.000037
vn 0.000000 0.000000 1.000000
vn 0.000000 0.000000 1.000000
vn -1.000000 0.000005 0.000027
vn -1.000000 0.000005 0.000027
vn 0.000000 -0.000002 -1.000000
vn 0.000000 -0.000002 -1.000000
vn 1.000000 0.000000 0.000037
vn 1.000000 0.000000 0.000037
vn 0.000000 0.000000 1.000000
vn 0.000000 0.000000 1.000000
vn -1.000000 0.000005 0.000009
vn -1.000000 0.000005 0.000009
vn 0.000000 0.000000 -1.000000
vn 0.000000 0.000000 -1.000000
vn 1.000000 0.000000 0.000037
vn 1.000000 0.000000 0.000037
vn 0.000000 0.000000 1.000000
vn 0.000000 0.000000 1.000000
vn -1.000000 0.000004 -0.000008
vn -1.000000 0.000004 -0.000008
vn 0.000000 0.000002 -1.000000
vn 0.000000 0.000002 -1.000000
vn 1.000000 0.000000 0.000037
vn 1.000000 0.000000 0.000037
vn 0.000000 0.000000 1.000000
vn 0.000000 0.000000 1.000000
vn -1.000000 0.000005 -0.000027
vn -1.000000 0.000005 -0.000027
vn 0.000000 0.000000 -1.000000
vn 0.000000 0.000000 -1.000000
vn 1.000000 0.000000 0.000037
vn 1.000000 0.000000 0.000037
vn 0.000000 0.000000 1.000000
vn 0.000000 0.000000 1.000000
vn -1.000000 0.000000 -0.000037
vn -1.000000 0.000000 -0.000037
vn 0.000000 0.000000 -1.000000
vn 0.000000 0.000000 -1.000000
vn 1.000000 0.000000 0.000037
vn 1.000000 0.000000 0.000037
vn 0.000000 0.000000 1.000000
vn 0.000000 0.000000 1.000000
vn -1.000000 0.000000 -0.000037
vn -1.000000 0.000000 -0.000037
vn 0.000000 0.000000 -1.000000
vn 0.000000 0.000000 -1.000000
vn 1.000000 0.000000 0.000037
vn 1.000000 0.000000 0.000037
vn 0.000000 0.000000 1.000000
vn 0.000000 0.000000 1.000000
vn -1.000000 0.000000 -0.000037
vn -1.000000 0.000000 -0.000037
vn 0.000000 0.000000 -1.000000
vn 0.000000 0.000000 -1.000000
vn 1.000000 0.000000 0.000028
vn 1.000000 0.000000 0.000028
vn 0.000000 0.000000 1.000000
vn 0.000000 0.000000 1.000000
vn -1.000000 0.000000 -0.000037
vn -1.000000 0.000000 -0.000037
vn 0.000000 0.000000 -1.000000
vn 0.000000 0.000000 -1.000000
vn 1.000000 0.000000 0.000009
vn 1.000000 0.000000 0.000009
vn 0.000000 0.000000 1.000000
vn 0.000000 0.000000 1.000000
vn -1.000000 0.000000 -0.000037
vn -1.000000 0.000000 -0.000037
vn 0.000000 0.000000 -1.000000
vn 0.000000 0.000000 -1.000000
vn 1.000000 0.000000 0.000000
vn 1.000000 0.000000 0.000000
vn 0.000000 0.000000 1.000000
vn 0.000000 0.000000 1.000000
vn -1.000000 0.000000 -0.000019
vn -1.000000 0.000000 -0.000019
vn 0.000000 0.000000 -1.000000
vn 0.000000 0.000000 -1.000000
vn 1.000000 -0.000002 -0.000000
vn 1.000000 -0.000002 -0.000000
vn -0.000000 -0.000002 1.000000
vn -0.000000 -0.000002 1.000000
vn -1.000000 0.000000 0.000020
vn -1.000000 0.000000 0.000020
vn 0.000000 0.000000 -1.000000
vn 0.000000 0.000000 -1.000000
vn 1.000000 -0.000002 -0.000000
vn 1.000000 -0.000002 -0.000000
vn -0.000000 -0.000002 1.000000
vn -0.000000 -0.000002 1.000000
vn -1.000000 0.000000 0.000028
vn -1.000000 0.000000 0.000028
vn 0.000000 0.000000 -1.000000
vn 0.000000 0.000000 -1.000000
vn 1.000000 0.000002 0.000000
vn 1.000000 0.000002 0.000000
vn -0.000000 -0.000002 1.000000
vn -0.000000 -0.000002 1.000000
vn -1.000000 0.000000 0.000009
vn -1.000000 0.000000 0.000009
vn 0.000000 0.000000 -1.000000
vn 0.000000 0.000000 -1.000000
vn 1.000000 0.000002 0.000000
vn 1.000000 0.000002 0.000000
vn -0.000000 -0.000002 1.000000
vn -0.000000 -0.000002 1.000000
vn -1.000000 -0.000004 -0.000000
vn -1.000000 -0.000004 -0.000000
vn 0.000000 -0.000002 -1.000000
vn 0.000000 -0.000002 -1.000000
s 1
g polySurface2183 pCylinder44
usemtl lambert19SG
f 1/1/1 2/2/2 92/92/3 89/89/4
s off
f 3/4/5 4/3/6 6/5/7 5/6/8
s 2
f 90/90/9 91/91/10 8/7/11 7/8/12
s off
f 7/8/13 8/7/14 2/2/15 1/1/16
s 3
f 2/2/17 8/7/18 91/91/19 92/92/20
s 4
f 7/8/21 1/1/22 89/89/23 90/90/24
f 10/10/25 9/9/26 3/4/27 5/6/28
s 2
f 5/6/29 6/5/30 11/11/31 10/10/32
s 3
f 12/12/33 11/11/34 6/5/35 4/3/36
s 1
f 9/9/37 12/12/38 4/3/39 3/4/40
s 4
f 14/14/41 13/13/42 9/9/26 10/10/25
s 2
f 10/10/32 11/11/31 15/15/43 14/14/44
s 3
f 16/16/45 15/15/46 11/11/34 12/12/33
s 1
f 13/13/47 16/16/48 12/12/38 9/9/37
s 4
f 18/18/49 17/17/50 13/13/42 14/14/41
s 2
f 14/14/44 15/15/43 19/19/51 18/18/52
s 3
f 20/20/53 19/19/54 15/15/46 16/16/45
s 1
f 17/17/55 20/20/56 16/16/48 13/13/47
s 4
f 22/22/57 21/21/58 17/17/50 18/18/49
s 2
f 18/18/52 19/19/51 23/23/59 22/22/60
s 3
f 24/24/61 23/23/62 19/19/54 20/20/53
s 1
f 21/21/63 24/24/64 20/20/56 17/17/55
s 4
f 26/26/65 25/25/66 21/21/58 22/22/57
s 2
f 22/22/60 23/23/59 27/27/67 26/26/68
s 3
f 28/28/69 27/27/70 23/23/62 24/24/61
s 1
f 25/25/71 28/28/72 24/24/64 21/21/63
s 4
f 30/30/73 29/29/74 25/25/66 26/26/65
s 2
f 26/26/68 27/27/67 31/31/75 30/30/76
s 3
f 32/32/77 31/31/78 27/27/70 28/28/69
s 1
f 29/29/79 32/32/80 28/28/72 25/25/71
s 4
f 34/34/81 33/33/82 29/29/74 30/30/73
s 2
f 30/30/76 31/31/75 35/35/83 34/34/84
s 3
f 36/36/85 35/35/86 31/31/78 32/32/77
s 1
f 33/33/87 36/36/88 32/32/80 29/29/79
s 4
f 38/38/89 37/37/90 33/33/82 34/34/81
s 2
f 34/34/84 35/35/83 39/39/91 38/38/92
s 3
f 40/40/93 39/39/94 35/35/86 36/36/85
s 1
f 37/37/95 40/40/96 36/36/88 33/33/87
s 4
f 42/42/97 41/41/98 37/37/90 38/38/89
s 2
f 38/38/92 39/39/91 43/43/99 42/42/100
s 3
f 44/44/101 43/43/102 39/39/94 40/40/93
s 1
f 41/41/103 44/44/104 40/40/96 37/37/95
s 4
f 46/46/105 45/45/106 41/41/98 42/42/97
s 2
f 42/42/100 43/43/99 47/47/107 46/46/108
s 3
f 48/48/109 47/47/110 43/43/102 44/44/101
s 1
f 45/45/111 48/48/112 44/44/104 41/41/103
s 4
f 50/50/113 49/49/114 45/45/106 46/46/105
s 2
f 46/46/108 47/47/107 51/51/115 50/50/116
s 3
f 52/52/117 51/51/118 47/47/110 48/48/109
s 1
f 49/49/119 52/52/120 48/48/112 45/45/111
s 4
f 54/54/121 53/53/122 49/49/114 50/50/113
s 2
f 50/50/116 51/51/115 55/55/123 54/54/124
s 3
f 56/56/125 55/55/126 51/51/118 52/52/117
s 1
f 53/53/127 56/56/128 52/52/120 49/49/119
s 4
f 58/58/129 57/57/130 53/53/122 54/54/121
s 2
f 54/54/124 55/55/123 59/59/131 58/58/132
s 3
f 60/60/133 59/59/134 55/55/126 56/56/125
s 1
f 57/57/135 60/60/136 56/56/128 53/53/127
s 4
f 62/62/137 61/61/138 57/57/130 58/58/129
s 2
f 58/58/132 59/59/131 63/63/139 62/62/140
s 3
f 64/64/141 63/63/142 59/59/134 60/60/133
s 1
f 61/61/143 64/64/144 60/60/136 57/57/135
s 4
f 66/66/145 65/65/146 61/61/138 62/62/137
s 2
f 62/62/140 63/63/139 67/67/147 66/66/148
s 3
f 68/68/149 67/67/150 63/63/142 64/64/141
s 1
f 65/65/151 68/68/152 64/64/144 61/61/143
s 4
f 70/70/153 69/69/154 65/65/146 66/66/145
s 2
f 66/66/148 67/67/147 71/71/155 70/70/156
s 3
f 72/72/157 71/71/158 67/67/150 68/68/149
s 1
f 69/69/159 72/72/160 68/68/152 65/65/151
s 4
f 74/74/161 73/73/162 69/69/154 70/70/153
s 2
f 70/70/156 71/71/155 75/75/163 74/74/164
s 3
f 76/76/165 75/75/166 71/71/158 72/72/157
s 1
f 73/73/167 76/76/168 72/72/160 69/69/159
s 4
f 78/78/169 77/77/170 73/73/162 74/74/161
s 2
f 74/74/164 75/75/163 79/79/171 78/78/172
s 3
f 80/80/173 79/79/174 75/75/166 76/76/165
s 1
f 77/77/175 80/80/176 76/76/168 73/73/167
s 4
f 82/82/177 81/81/178 77/77/170 78/78/169
s 2
f 78/78/172 79/79/171 83/83/179 82/82/180
s 3
f 84/84/181 83/83/182 79/79/174 80/80/173
s 1
f 81/81/183 84/84/184 80/80/176 77/77/175
s 4
f 86/86/185 85/85/186 81/81/178 82/82/177
s 2
f 82/82/180 83/83/179 87/87/187 86/86/188
s 3
f 88/88/189 87/87/190 83/83/182 84/84/181
s 1
f 85/85/191 88/88/192 84/84/184 81/81/183
s 4
f 90/90/24 89/89/23 85/85/186 86/86/185
s 2
f 86/86/188 87/87/187 91/91/10 90/90/9
s 3
f 92/92/20 91/91/19 87/87/190 88/88/189
s 1
f 89/89/4 92/92/3 88/88/192 85/85/191
