# This file uses centimeters as units for non-parametric coordinates.

mtllib letrero.mtl
g default
v 7.983927 6.590214 -7.983927
v 0.000000 6.590214 -11.290980
v 0.000000 6.590214 -11.997220
v 8.483319 6.590214 -8.483319
v -11.326500 6.590214 0.085780
v -11.997220 6.590214 0.000000
v 0.000000 7.703344 -11.997220
v 8.483319 7.703344 -8.483319
v -11.997220 7.703344 0.000000
v 7.983927 7.703344 -7.983927
v 0.000000 7.703344 -11.290980
v -11.326500 7.703344 0.085780
v 0.000000 6.590214 11.290980
v 0.000000 6.590214 11.997220
v 11.290980 6.590214 0.000000
v 11.997221 6.590214 0.000000
v 0.000000 7.703344 11.290980
v 11.290980 7.703344 0.000000
v 0.000000 7.703344 11.997220
v 11.997221 7.703344 0.000000
v 7.983928 6.590214 7.983928
v 8.483319 6.590214 8.483319
v 7.983928 7.703344 7.983928
v 8.483319 7.703344 8.483319
v -7.948396 7.703344 -8.069701
v -8.483319 7.703344 -8.483319
v -7.948396 6.590214 -8.069701
v -8.483319 6.590214 -8.483319
v -7.983927 6.590214 7.983927
v -8.483319 6.590214 8.483319
v -7.983927 7.703344 7.983927
v -8.483319 7.703344 8.483319
v -7.983927 6.590214 7.983927
v -8.483319 6.590214 8.483319
v -8.483319 7.703344 8.483319
v -7.983927 7.703344 7.983927
v 0.000000 6.590214 11.290980
v 0.000000 6.590214 11.997220
v 0.000000 7.703344 11.290980
v 0.000000 7.703344 11.997220
vt 8.463518 0.167081
vt -10.117235 0.167081
vt -10.117235 0.186650
vt 8.463518 0.186650
vt -4.782854 0.168133
vt -2.154056 0.167081
vt -2.154056 0.186650
vt -4.808449 0.186650
vt -10.117235 0.813350
vt 8.463518 0.813350
vt -2.154056 0.813350
vt -4.808449 0.813350
vt 8.463518 0.832919
vt -10.117235 0.832919
vt -4.782854 0.831867
vt -2.154056 0.832919
vt 5.809125 0.167081
vt 5.809125 0.186650
vt 5.809125 0.832919
vt 5.809125 0.813350
vt 0.500338 0.167081
vt 3.154731 0.167081
vt 3.154731 0.186650
vt 0.500338 0.186650
vt 0.500338 0.832919
vt 3.154731 0.832919
vt 3.154731 0.813350
vt 0.500338 0.813350
vt -7.488436 0.831867
vt -7.462842 0.813350
vt -7.488436 0.168133
vt -7.462842 0.186650
vt -2.154056 0.167081
vt 0.500338 0.167081
vt 0.500338 0.186650
vt -2.154056 0.186650
vt -2.154056 0.832919
vt 0.500338 0.832919
vt 0.500338 0.813350
vt -2.154056 0.813350
vt 11.117912 0.167081
vt 11.117912 0.186650
vt 11.117912 0.832919
vt 11.117912 0.813350
vn 0.000000 -1.000000 -0.000000
vn 0.000000 -1.000000 -0.000000
vn 0.000000 -1.000000 -0.000000
vn 0.000000 -1.000000 -0.000000
vn 0.000000 -1.000000 0.000000
vn 0.000000 -1.000000 0.000000
vn 0.000000 -1.000000 0.000000
vn 0.000000 -1.000000 0.000000
vn 0.382683 0.000000 -0.923880
vn 0.382683 0.000000 -0.923880
vn 0.382683 0.000000 -0.923880
vn 0.382683 0.000000 -0.923880
vn -0.923880 0.000000 0.382683
vn -0.923880 0.000000 0.382683
vn -0.923880 0.000000 0.382683
vn -0.923880 0.000000 0.382683
vn -0.382684 0.000000 0.923880
vn -0.382684 0.000000 0.923880
vn -0.382684 0.000000 0.923880
vn -0.382684 0.000000 0.923880
vn 0.920923 0.000000 -0.389745
vn 0.920923 0.000000 -0.389745
vn 0.920923 0.000000 -0.389745
vn 0.920923 0.000000 -0.389745
vn 0.000000 1.000000 0.000000
vn 0.000000 1.000000 0.000000
vn 0.000000 1.000000 0.000000
vn 0.000000 1.000000 0.000000
vn 0.000000 1.000000 0.000000
vn 0.000000 1.000000 0.000000
vn 0.000000 1.000000 0.000000
vn 0.000000 1.000000 0.000000
vn 0.000000 -1.000000 0.000000
vn 0.000000 -1.000000 0.000000
vn 0.000000 -1.000000 0.000000
vn 0.000000 -1.000000 0.000000
vn -0.923879 0.000000 0.382684
vn -0.923879 0.000000 0.382684
vn -0.923879 0.000000 0.382684
vn -0.923879 0.000000 0.382684
vn 0.923880 0.000000 -0.382684
vn 0.923880 0.000000 -0.382684
vn 0.923880 0.000000 -0.382684
vn 0.923880 0.000000 -0.382684
vn 0.000000 1.000000 0.000000
vn 0.000000 1.000000 0.000000
vn 0.000000 1.000000 0.000000
vn 0.000000 1.000000 0.000000
vn 0.000000 -1.000000 0.000000
vn 0.000000 -1.000000 0.000000
vn 0.000000 -1.000000 0.000000
vn 0.000000 -1.000000 0.000000
vn 0.000000 -1.000000 0.000000
vn 0.000000 -1.000000 0.000000
vn 0.000000 -1.000000 0.000000
vn 0.000000 -1.000000 0.000000
vn -0.382683 0.000000 -0.923880
vn -0.382683 0.000000 -0.923880
vn -0.382683 0.000000 -0.923880
vn -0.382683 0.000000 -0.923880
vn -0.923880 0.000000 -0.382683
vn -0.923880 0.000000 -0.382683
vn -0.923880 0.000000 -0.382683
vn -0.923880 0.000000 -0.382683
vn 0.382683 0.000000 0.923880
vn 0.382683 0.000000 0.923880
vn 0.382683 0.000000 0.923880
vn 0.382683 0.000000 0.923880
vn 0.923880 0.000000 0.382684
vn 0.923880 0.000000 0.382684
vn 0.923880 0.000000 0.382684
vn 0.923880 0.000000 0.382684
vn 0.000000 1.000000 0.000000
vn 0.000000 1.000000 0.000000
vn 0.000000 1.000000 0.000000
vn 0.000000 1.000000 0.000000
vn 0.000000 1.000000 0.000000
vn 0.000000 1.000000 0.000000
vn 0.000000 1.000000 0.000000
vn 0.000000 1.000000 0.000000
vn 0.000000 1.000000 0.000000
vn 0.000000 1.000000 0.000000
vn 0.000000 1.000000 0.000000
vn 0.000000 1.000000 0.000000
vn 0.000000 1.000000 0.000000
vn 0.000000 1.000000 0.000000
vn 0.000000 1.000000 0.000000
vn 0.000000 1.000000 0.000000
vn 0.923880 0.000000 0.382683
vn 0.923880 0.000000 0.382683
vn 0.923880 0.000000 0.382683
vn 0.923880 0.000000 0.382683
vn 0.375600 0.000000 0.926782
vn 0.375600 0.000000 0.926782
vn 0.375600 0.000000 0.926782
vn 0.375600 0.000000 0.926782
vn -0.923880 0.000000 -0.382683
vn -0.923880 0.000000 -0.382683
vn -0.923880 0.000000 -0.382683
vn -0.923880 0.000000 -0.382683
vn -0.382683 0.000000 -0.923880
vn -0.382683 0.000000 -0.923880
vn -0.382683 0.000000 -0.923880
vn -0.382683 0.000000 -0.923880
vn 0.000000 -1.000000 0.000000
vn 0.000000 -1.000000 0.000000
vn 0.000000 -1.000000 0.000000
vn 0.000000 -1.000000 0.000000
vn 0.000000 -1.000000 0.000000
vn 0.000000 -1.000000 0.000000
vn 0.000000 -1.000000 0.000000
vn 0.000000 -1.000000 0.000000
vn 0.000000 -1.000000 0.000000
vn 0.000000 -1.000000 0.000000
vn 0.000000 -1.000000 0.000000
vn 0.000000 -1.000000 0.000000
vn 0.382684 0.000000 -0.923880
vn 0.382684 0.000000 -0.923880
vn 0.382684 0.000000 -0.923880
vn 0.382684 0.000000 -0.923880
vn -0.382683 0.000000 0.923880
vn -0.382683 0.000000 0.923880
vn -0.382683 0.000000 0.923880
vn -0.382683 0.000000 0.923880
vn 0.000000 1.000000 0.000000
vn 0.000000 1.000000 0.000000
vn 0.000000 1.000000 0.000000
vn 0.000000 1.000000 0.000000
s off
g letrero1
usemtl lambert12SG
f 1/1/1 2/41/2 3/42/3 4/4/4
f 5/5/5 29/6/6 30/7/7 6/8/8
f 3/42/9 7/44/10 8/10/11 4/4/12
f 30/7/13 32/11/14 9/12/15 6/8/16
f 1/1/17 10/13/18 11/43/19 2/41/20
f 5/5/21 12/15/22 31/16/23 29/6/24
f 10/13/25 8/10/26 7/44/27 11/43/28
f 12/15/29 9/12/30 32/11/31 31/16/32
f 15/17/33 1/1/34 4/4/35 16/18/36
f 15/17/37 18/19/38 10/13/39 1/1/40
f 4/4/41 8/10/42 20/20/43 16/18/44
f 18/19/45 20/20/46 8/10/47 10/13/48
f 13/21/49 21/22/50 22/23/51 14/24/52
f 21/22/53 15/17/54 16/18/55 22/23/56
f 13/21/57 17/25/58 23/26/59 21/22/60
f 21/22/61 23/26/62 18/19/63 15/17/64
f 22/23/65 24/27/66 19/28/67 14/24/68
f 16/18/69 20/20/70 24/27/71 22/23/72
f 17/25/73 19/28/74 24/27/75 23/26/76
f 23/26/77 24/27/78 20/20/79 18/19/80
f 25/29/81 26/30/82 9/12/83 12/15/84
f 11/14/85 7/9/86 26/30/87 25/29/88
f 27/31/89 25/29/90 12/15/91 5/5/92
f 2/2/93 11/14/94 25/29/95 27/31/96
f 6/8/97 9/12/98 26/30/99 28/32/100
f 28/32/101 26/30/102 7/9/103 3/3/104
f 27/31/105 5/5/106 6/8/107 28/32/108
f 2/2/109 27/31/110 28/32/111 3/3/112
f 33/33/113 37/34/114 38/35/115 34/36/116
f 33/33/117 36/37/118 39/38/119 37/34/120
f 38/35/121 40/39/122 35/40/123 34/36/124
f 36/37/125 35/40/126 40/39/127 39/38/128
