# This file uses centimeters as units for non-parametric coordinates.

mtllib trompa9.mtl
g default
v 0.352294 0.042445 0.031633
v 0.480643 0.037276 0.362415
v 0.389990 0.036281 0.591204
v 0.232500 0.024685 0.755742
v -0.000291 0.009893 0.799938
v -0.327297 -0.019404 0.022639
v 0.013995 -0.001449 0.004787
v -0.463769 -0.047815 0.351104
v -0.381979 -0.033275 0.581957
v -0.230463 -0.017003 0.750233
v 0.032666 -0.461449 0.036406
v -0.252728 -0.483520 0.055510
v -0.394148 -0.497391 0.339021
v -0.330694 -0.487249 0.571519
v -0.193286 -0.469791 0.730716
v 0.042224 -0.456231 0.787539
v 0.274786 -0.430173 0.721316
v 0.408141 -0.424715 0.556683
v 0.465129 -0.424400 0.321993
v 0.317861 -0.432312 0.045712
v -0.225146 -0.263957 0.739749
v -0.226392 -0.288657 0.754705
v -0.287996 -0.231950 0.856877
v -0.301349 -0.215986 1.033069
v -0.202083 -0.268127 0.762284
v -0.264484 -0.238366 0.867369
v -0.285241 -0.254384 0.863112
v -0.305149 -0.438193 0.589314
v -0.301670 -0.466056 0.582202
v -0.341260 -0.514871 0.675186
v -0.344938 -0.502755 0.682484
v -0.342593 -0.622855 0.832435
v -0.278700 -0.453053 0.601414
v -0.329188 -0.507668 0.683732
v 0.425605 -0.434353 0.672549
v 0.358293 -0.389811 0.594803
v 0.346486 -0.368068 0.610002
v 0.422617 -0.424971 0.683352
v 0.333511 -0.397521 0.614903
v 0.508480 -0.574306 0.758746
v 0.412254 -0.437659 0.681745
v 0.329009 -0.012560 0.805308
v 0.268332 -0.067338 0.707212
v 0.261607 -0.044889 0.690365
v 0.327316 0.009247 0.796872
v 0.241559 -0.050518 0.715515
v 0.351015 0.051440 0.978763
v 0.306228 0.000089 0.810337
v 0.560943 -0.297489 0.265304
v 0.441402 -0.346403 0.297592
v 0.564885 -0.317139 0.265474
v 0.423638 -0.337318 0.272479
v 0.699991 -0.320752 0.183963
v 0.556465 -0.308013 0.248659
v 0.415164 -0.325318 0.301056
v -0.358538 -0.391045 0.322630
v -0.484831 -0.408498 0.287100
v -0.482090 -0.428144 0.289951
v -0.692324 -0.346877 0.206750
v -0.345995 -0.377374 0.296335
v -0.478023 -0.419311 0.271401
v -0.346241 -0.359716 0.323090
vt 0.256104 0.919312
vt 0.268555 0.920532
vt 0.268799 0.936279
vt 0.253906 0.932434
vt 0.256104 0.919312
vt 0.253906 0.932434
vt 0.264648 0.953308
vt 0.248047 0.948029
vt 0.262207 0.964569
vt 0.244263 0.959015
vt 0.248047 0.948029
vt 0.244263 0.959015
vt 0.260010 0.974380
vt 0.241333 0.968140
vt 0.241333 0.968140
vt 0.257568 0.984474
vt 0.237305 0.978134
vt 0.268799 0.936279
vt 0.264648 0.953308
vt 0.253906 0.932434
vt 0.253906 0.932434
vt 0.248047 0.948029
vt 0.262207 0.964569
vt 0.248047 0.948029
vt 0.244263 0.959015
vt 0.260010 0.974380
vt 0.244263 0.959015
vt 0.241333 0.968140
vt 0.241333 0.968140
vt 0.070740 0.346191
vt 0.083984 0.348145
vt 0.073181 0.398438
vt 0.065857 0.397461
vt 0.059814 0.460938
vt 0.055817 0.345215
vt 0.057617 0.396973
vt 0.049408 0.397949
vt 0.040955 0.347168
vt 0.070740 0.346191
vt 0.083984 0.348145
vt 0.073181 0.398438
vt 0.065857 0.397461
vt 0.059814 0.460938
vt 0.055817 0.345215
vt 0.057617 0.396973
vt 0.049408 0.397949
vt 0.040955 0.347168
vt 0.073181 0.398438
vt 0.083984 0.348145
vt 0.070740 0.346191
vt 0.065857 0.397461
vt 0.055817 0.345215
vt 0.059814 0.460938
vt 0.057617 0.396973
vt 0.040955 0.347168
vt 0.049408 0.397949
vt 0.073181 0.398438
vt 0.083984 0.348145
vt 0.070740 0.346191
vt 0.065857 0.397461
vt 0.055817 0.345215
vt 0.059814 0.460938
vt 0.057617 0.396973
vt 0.040955 0.347168
vt 0.049408 0.397949
vt 0.033844 0.466309
vt 0.038605 0.441895
vt 0.030792 0.440918
vt 0.028992 0.463379
vt 0.021973 0.440918
vt 0.025345 0.508789
vt 0.023132 0.463867
vt 0.013229 0.441895
vt 0.017578 0.465820
vt 0.030792 0.440918
vt 0.038605 0.441895
vt 0.033844 0.466309
vt 0.028992 0.463379
vt 0.025345 0.508789
vt 0.021973 0.440918
vt 0.023132 0.463867
vt 0.017578 0.465820
vt 0.013229 0.441895
vn 0.087291 -0.064779 -0.994074
vn 0.087291 -0.064779 -0.994074
vn 0.087291 -0.064779 -0.994074
vn 0.035882 -0.032228 -0.998836
vn 0.035882 -0.032228 -0.998836
vn 0.035882 -0.032228 -0.998836
vn 0.929019 -0.078104 -0.361697
vn 0.929019 -0.078104 -0.361696
vn 0.929019 -0.078104 -0.361697
vn 0.882265 0.011558 -0.470610
vn 0.882266 0.011558 -0.470610
vn 0.882266 0.011558 -0.470610
vn 0.971549 0.020584 0.235943
vn 0.971549 0.020584 0.235943
vn 0.971549 0.020584 0.235943
vn 0.927908 -0.063349 0.367388
vn 0.927908 -0.063349 0.367388
vn 0.927908 -0.063349 0.367388
vn 0.723031 -0.023231 0.690425
vn 0.723031 -0.023231 0.690425
vn 0.723031 -0.023231 0.690425
vn 0.776428 0.024520 0.629728
vn 0.776428 0.024520 0.629728
vn 0.776429 0.024520 0.629728
vn 0.189689 -0.056549 0.980214
vn 0.189689 -0.056549 0.980214
vn 0.189689 -0.056549 0.980214
vn 0.273928 -0.000603 0.961750
vn 0.273928 -0.000603 0.961750
vn 0.273928 -0.000603 0.961750
vn -0.048408 -0.070451 -0.996340
vn -0.048408 -0.070451 -0.996340
vn -0.048408 -0.070451 -0.996340
vn -0.904161 -0.172935 -0.390623
vn -0.904161 -0.172935 -0.390623
vn -0.904161 -0.172935 -0.390623
vn -0.060401 -0.080169 -0.994949
vn -0.060401 -0.080169 -0.994950
vn -0.060401 -0.080169 -0.994950
vn -0.885365 -0.125075 -0.447756
vn -0.885365 -0.125075 -0.447756
vn -0.885365 -0.125075 -0.447756
vn -0.928439 -0.152878 0.338569
vn -0.928439 -0.152878 0.338569
vn -0.928439 -0.152878 0.338569
vn -0.957122 -0.114247 0.266204
vn -0.957122 -0.114247 0.266204
vn -0.957122 -0.114247 0.266204
vn -0.734783 -0.098440 0.671121
vn -0.734783 -0.098440 0.671121
vn -0.734783 -0.098440 0.671121
vn -0.749064 -0.089794 0.656384
vn -0.749064 -0.089794 0.656384
vn -0.749064 -0.089794 0.656384
vn -0.204137 -0.058881 0.977170
vn -0.204137 -0.058881 0.977170
vn -0.204137 -0.058881 0.977170
vn -0.231726 -0.046985 0.971646
vn -0.231726 -0.046985 0.971646
vn -0.231726 -0.046985 0.971646
vn -0.885774 -0.206896 -0.415449
vn -0.885774 -0.206896 -0.415449
vn -0.885774 -0.206896 -0.415449
vn -0.883040 -0.223144 -0.412851
vn -0.883041 -0.223144 -0.412851
vn -0.883041 -0.223144 -0.412851
vn -0.988374 -0.138674 -0.062344
vn -0.988374 -0.138674 -0.062344
vn -0.988374 -0.138674 -0.062344
vn 0.280151 0.953601 -0.110272
vn 0.280151 0.953601 -0.110272
vn 0.280151 0.953601 -0.110272
vn 0.299717 0.949682 -0.090966
vn 0.299717 0.949682 -0.090966
vn 0.299717 0.949682 -0.090966
vn 0.289421 0.955020 -0.064595
vn 0.289421 0.955020 -0.064595
vn 0.289421 0.955020 -0.064595
vn 0.563875 -0.792462 0.232485
vn 0.563875 -0.792462 0.232485
vn 0.563876 -0.792462 0.232485
vn 0.468653 -0.736786 0.487351
vn 0.468653 -0.736786 0.487351
vn 0.468653 -0.736786 0.487351
vn 0.469712 -0.736090 0.487384
vn 0.469712 -0.736090 0.487384
vn 0.469712 -0.736090 0.487384
vn -0.917501 -0.013058 -0.397518
vn -0.917501 -0.013058 -0.397518
vn -0.917501 -0.013058 -0.397518
vn -0.911629 -0.029739 -0.409937
vn -0.911629 -0.029739 -0.409937
vn -0.911629 -0.029739 -0.409937
vn -0.967594 -0.204256 -0.148464
vn -0.967594 -0.204256 -0.148464
vn -0.967594 -0.204256 -0.148464
vn 0.159388 0.778279 0.607353
vn 0.159388 0.778279 0.607353
vn 0.159388 0.778279 0.607353
vn 0.188309 0.761179 0.620602
vn 0.188309 0.761179 0.620602
vn 0.188309 0.761179 0.620602
vn 0.190984 0.767603 0.611810
vn 0.190984 0.767603 0.611810
vn 0.190984 0.767603 0.611810
vn 0.665286 -0.618068 -0.418792
vn 0.665286 -0.618068 -0.418792
vn 0.665286 -0.618068 -0.418792
vn 0.587128 -0.792368 -0.165630
vn 0.587128 -0.792368 -0.165630
vn 0.587128 -0.792368 -0.165630
vn 0.588786 -0.791326 -0.164725
vn 0.588786 -0.791326 -0.164725
vn 0.588786 -0.791326 -0.164725
vn 0.739399 0.606243 -0.292845
vn 0.739399 0.606243 -0.292845
vn 0.739399 0.606243 -0.292845
vn 0.742502 0.593731 -0.310120
vn 0.742502 0.593731 -0.310120
vn 0.742502 0.593731 -0.310120
vn -0.499680 0.351786 0.791559
vn -0.499680 0.351786 0.791559
vn -0.499680 0.351786 0.791559
vn 0.887051 0.440774 -0.137329
vn 0.887051 0.440774 -0.137329
vn 0.887051 0.440774 -0.137329
vn -0.403386 0.216878 0.888957
vn -0.403386 0.216878 0.888957
vn -0.403386 0.216878 0.888956
vn -0.513739 0.318657 0.796573
vn -0.513739 0.318657 0.796574
vn -0.513739 0.318657 0.796574
vn -0.080370 -0.893486 -0.441841
vn -0.080370 -0.893486 -0.441841
vn -0.080370 -0.893486 -0.441841
vn -0.082276 -0.893800 -0.440855
vn -0.082276 -0.893800 -0.440855
vn -0.082276 -0.893799 -0.440855
vn -0.329357 -0.628886 -0.704292
vn -0.329357 -0.628886 -0.704292
vn -0.329357 -0.628886 -0.704292
vn 0.870351 -0.100960 -0.481972
vn 0.870351 -0.100960 -0.481972
vn 0.870351 -0.100960 -0.481972
vn 0.870715 -0.117160 -0.477629
vn 0.870715 -0.117160 -0.477629
vn 0.870715 -0.117160 -0.477629
vn -0.453410 0.875819 -0.165411
vn -0.453410 0.875819 -0.165411
vn -0.453410 0.875819 -0.165411
vn 0.990562 0.024773 -0.134809
vn 0.990562 0.024773 -0.134809
vn 0.990562 0.024773 -0.134809
vn -0.470164 0.870739 -0.144080
vn -0.470164 0.870739 -0.144080
vn -0.470164 0.870739 -0.144080
vn -0.468819 0.871938 -0.141181
vn -0.468819 0.871938 -0.141181
vn -0.468819 0.871938 -0.141181
vn -0.286562 -0.750239 0.595839
vn -0.286562 -0.750239 0.595839
vn -0.286562 -0.750239 0.595839
vn -0.285356 -0.750773 0.595744
vn -0.285356 -0.750774 0.595744
vn -0.285356 -0.750774 0.595744
vn -0.390208 -0.846626 0.361888
vn -0.390208 -0.846626 0.361888
vn -0.390208 -0.846626 0.361888
vn 0.216796 0.110397 0.969955
vn 0.216796 0.110397 0.969955
vn 0.216796 0.110397 0.969955
vn 0.238821 0.056145 0.969439
vn 0.238821 0.056145 0.969439
vn 0.238821 0.056145 0.969439
vn 0.109517 -0.907403 -0.405741
vn 0.109517 -0.907403 -0.405741
vn 0.109517 -0.907403 -0.405741
vn 0.515578 0.110599 0.849675
vn 0.515578 0.110599 0.849675
vn 0.515578 0.110599 0.849675
vn 0.096574 -0.853719 -0.511700
vn 0.096574 -0.853719 -0.511700
vn 0.096574 -0.853719 -0.511700
vn -0.244383 -0.898260 -0.365248
vn -0.244383 -0.898260 -0.365248
vn -0.244383 -0.898260 -0.365248
vn -0.267963 0.857352 -0.439481
vn -0.267963 0.857352 -0.439481
vn -0.267963 0.857352 -0.439481
vn -0.274048 0.844498 -0.460131
vn -0.274048 0.844498 -0.460131
vn -0.274048 0.844498 -0.460131
vn -0.149333 0.853439 -0.499341
vn -0.149333 0.853439 -0.499341
vn -0.149333 0.853439 -0.499341
vn -0.281899 0.096619 0.954567
vn -0.281899 0.096619 0.954567
vn -0.281899 0.096619 0.954567
vn -0.282152 0.099089 0.954239
vn -0.282152 0.099089 0.954239
vn -0.282152 0.099089 0.954239
vn -0.336564 0.089088 0.937437
vn -0.336563 0.089088 0.937437
vn -0.336563 0.089088 0.937437
vn 0.345913 -0.889814 -0.297617
vn 0.345913 -0.889814 -0.297617
vn 0.345913 -0.889814 -0.297617
vn -0.159913 -0.877156 -0.452798
vn -0.159913 -0.877156 -0.452798
vn -0.159913 -0.877156 -0.452798
vn 0.342534 -0.875173 -0.341676
vn 0.342534 -0.875173 -0.341676
vn 0.342534 -0.875173 -0.341676
vn 0.399096 0.826758 -0.396476
vn 0.399096 0.826758 -0.396476
vn 0.399096 0.826758 -0.396476
vn -0.123158 0.791511 -0.598617
vn -0.123158 0.791511 -0.598617
vn -0.123158 0.791511 -0.598617
vn -0.158641 0.823368 -0.544883
vn -0.158641 0.823368 -0.544883
vn -0.158641 0.823368 -0.544883
vn -0.089912 0.995950 -0.000528
vn -0.089912 0.995950 -0.000528
vn -0.089912 0.995950 -0.000528
vn -0.089912 0.995950 -0.000528
vn -0.089912 0.995950 -0.000528
vn -0.089912 0.995949 -0.000528
vn -0.089912 0.995950 -0.000528
vn -0.089912 0.995950 -0.000528
vn -0.089912 0.995950 -0.000528
vn -0.089912 0.995950 -0.000528
s off
g pasted__polySurface79 group
usemtl pasted__elephant_ElephantSG
f 11/1/1 7/2/2 1/3/3
f 1/3/4 20/4/5 11/5/6
f 20/6/7 1/3/8 2/7/9
f 2/7/10 19/8/11 20/4/12
f 3/9/13 18/10/14 19/8/15
f 19/11/16 2/7/17 3/9/18
f 18/12/19 3/9/20 4/13/21
f 4/13/22 17/14/23 18/10/24
f 17/15/25 4/13/26 5/16/27
f 5/16/28 16/17/29 17/14/30
f 6/18/31 7/2/32 11/1/33
f 8/19/34 6/18/35 12/20/36
f 11/5/37 12/21/38 6/18/39
f 12/21/40 13/22/41 8/19/42
f 9/23/43 8/19/44 13/24/45
f 13/22/46 14/25/47 9/23/48
f 10/26/49 9/23/50 14/27/51
f 14/25/52 15/28/53 10/26/54
f 5/16/55 10/26/56 15/29/57
f 15/28/58 16/17/59 5/16/60
f 21/30/61 22/31/62 27/32/63
f 27/32/64 23/33/65 21/30/66
f 24/34/67 23/33/68 27/32/69
f 25/35/70 21/30/71 23/33/72
f 23/33/73 26/36/74 25/35/75
f 26/36/76 23/33/77 24/34/78
f 27/37/79 26/36/80 24/34/81
f 26/36/82 27/37/83 22/38/84
f 22/38/85 25/35/86 26/36/87
f 28/39/88 29/40/89 30/41/90
f 30/41/91 31/42/92 28/39/93
f 32/43/94 31/42/95 30/41/96
f 33/44/97 28/39/98 31/42/99
f 31/42/100 34/45/101 33/44/102
f 34/45/103 31/42/104 32/43/105
f 30/46/106 34/45/107 32/43/108
f 29/47/109 33/44/110 34/45/111
f 34/45/112 30/46/113 29/47/114
f 35/48/115 36/49/116 37/50/117
f 37/50/118 38/51/119 35/48/120
f 38/51/121 37/50/122 39/52/123
f 40/53/124 35/48/125 38/51/126
f 41/54/127 40/53/128 38/51/129
f 39/52/130 41/54/131 38/51/132
f 41/54/133 39/52/134 36/55/135
f 36/55/136 35/56/137 41/54/138
f 35/56/139 40/53/140 41/54/141
f 42/57/142 43/58/143 44/59/144
f 44/59/145 45/60/146 42/57/147
f 45/60/148 44/59/149 46/61/150
f 47/62/151 42/57/152 45/60/153
f 46/61/154 48/63/155 45/60/156
f 48/63/157 47/62/158 45/60/159
f 48/63/160 46/61/161 43/64/162
f 43/64/163 42/65/164 48/63/165
f 42/65/166 47/62/167 48/63/168
f 49/66/169 55/67/170 50/68/171
f 50/68/172 51/69/173 49/66/174
f 51/69/175 50/68/176 52/70/177
f 53/71/178 49/66/179 51/69/180
f 52/70/181 54/72/182 51/69/183
f 54/72/184 53/71/185 51/69/186
f 54/72/187 52/70/188 55/73/189
f 55/73/190 49/74/191 54/72/192
f 53/71/193 54/72/194 49/74/195
f 56/75/196 62/76/197 57/77/198
f 57/77/199 58/78/200 56/75/201
f 59/79/202 58/78/203 57/77/204
f 60/80/205 56/75/206 58/78/207
f 61/81/208 58/78/209 59/79/210
f 58/78/211 61/81/212 60/80/213
f 59/79/214 57/82/215 61/81/216
f 61/81/217 57/82/218 62/83/219
f 62/83/220 60/80/221 61/81/222
f 7/2/223 6/18/224 8/19/225 9/23/226 10/26/227 5/16/228 4/13/229 3/9/230 2/7/231 1/3/232
