# This file uses centimeters as units for non-parametric coordinates.

mtllib trompa6.mtl
g default
v 0.047733 -0.582444 0.099981
v 0.488834 -0.562075 0.061350
v 0.644020 -0.594693 0.424651
v 0.505148 -0.614555 0.701360
v 0.270136 -0.623630 0.876021
v -0.005234 -0.646607 0.913202
v -0.382780 -0.616262 -0.001183
v -0.582161 -0.665400 0.338502
v -0.480931 -0.690456 0.639148
v -0.273092 -0.670013 0.843310
v 0.491135 0.103801 0.012499
v 0.671335 0.100668 0.369529
v -0.453252 0.056152 -0.052581
v 0.013597 0.109882 0.034719
v -0.677935 0.025396 0.282346
v -0.046702 0.107700 0.936143
v 0.254217 0.142173 0.905601
v 0.546279 0.116653 0.674314
v -0.596454 0.036427 0.605093
v -0.342005 0.083810 0.874070
vt 0.329102 0.911682
vt 0.332764 0.932190
vt 0.309326 0.935303
vt 0.306152 0.916260
vt 0.309814 0.953278
vt 0.334717 0.950409
vt 0.336426 0.994549
vt 0.308105 0.992313
vt 0.309326 0.980255
vt 0.309326 0.935303
vt 0.332764 0.932190
vt 0.309814 0.953278
vt 0.334717 0.950409
vt 0.309326 0.980255
vt 0.336914 0.981537
vt 0.335938 0.965393
vt 0.309326 0.967407
vt 0.309326 0.967407
vt 0.335938 0.965393
vt 0.336914 0.981537
vn -0.047283 -0.072922 -0.996216
vn -0.047283 -0.072922 -0.996216
vn -0.047283 -0.072922 -0.996216
vn -0.082359 -0.097556 -0.991816
vn -0.082359 -0.097556 -0.991816
vn -0.082359 -0.097556 -0.991816
vn 0.918094 -0.032155 -0.395057
vn 0.918094 -0.032155 -0.395057
vn 0.918094 -0.032155 -0.395057
vn 0.890257 -0.070638 -0.449948
vn 0.890257 -0.070638 -0.449948
vn 0.890257 -0.070638 -0.449948
vn 0.135629 -0.022670 0.990500
vn 0.135629 -0.022670 0.990500
vn 0.135629 -0.022670 0.990500
vn 0.189652 -0.055056 -0.980307
vn 0.189652 -0.055056 -0.980307
vn 0.189652 -0.055056 -0.980307
vn 0.233961 -0.079805 -0.968965
vn 0.233961 -0.079805 -0.968965
vn 0.233961 -0.079805 -0.968965
vn -0.813194 -0.158273 -0.560058
vn -0.813194 -0.158273 -0.560058
vn -0.813194 -0.158273 -0.560058
vn -0.847092 -0.128202 -0.515752
vn -0.847092 -0.128202 -0.515752
vn -0.847092 -0.128202 -0.515752
vn -0.248713 -0.043102 0.967618
vn -0.248713 -0.043102 0.967618
vn -0.248713 -0.043102 0.967618
vn 0.105018 -0.036202 0.993811
vn 0.105018 -0.036202 0.993811
vn 0.105018 -0.036202 0.993811
vn 0.619789 -0.017421 0.784575
vn 0.619789 -0.017421 0.784575
vn 0.619790 -0.017421 0.784575
vn 0.925019 -0.006223 0.379869
vn 0.925019 -0.006223 0.379869
vn 0.925019 -0.006223 0.379869
vn 0.894217 -0.033791 0.446356
vn 0.894217 -0.033791 0.446356
vn 0.894217 -0.033791 0.446356
vn 0.596594 -0.003875 0.802534
vn 0.596594 -0.003875 0.802534
vn 0.596594 -0.003875 0.802534
vn -0.942347 -0.135430 0.306009
vn -0.942347 -0.135430 0.306009
vn -0.942347 -0.135430 0.306009
vn -0.962402 -0.113364 0.246843
vn -0.962402 -0.113364 0.246843
vn -0.962402 -0.113364 0.246843
vn -0.694829 -0.076930 0.715049
vn -0.694829 -0.076930 0.715049
vn -0.694829 -0.076930 0.715049
vn -0.714976 -0.093634 0.692851
vn -0.714976 -0.093634 0.692851
vn -0.714975 -0.093634 0.692851
vn -0.200840 -0.058264 0.977890
vn -0.200840 -0.058264 0.977890
vn -0.200840 -0.058265 0.977890
vn -0.062525 0.997886 -0.017721
vn -0.062525 0.997886 -0.017722
vn -0.062525 0.997886 -0.017722
vn -0.062525 0.997886 -0.017721
vn -0.062525 0.997886 -0.017722
vn -0.062525 0.997886 -0.017722
vn -0.062525 0.997886 -0.017722
vn -0.062525 0.997886 -0.017721
vn -0.062525 0.997886 -0.017721
vn -0.062525 0.997886 -0.017722
s off
g pasted__polySurface38 pasted__polySurface36 group
usemtl pasted__elephant_ElephantSG
f 14/1/1 11/2/2 2/3/3
f 2/3/4 1/4/5 14/1/6
f 3/5/7 2/3/8 11/2/9
f 11/2/10 12/6/11 3/5/12
f 16/7/13 6/8/14 5/9/15
f 7/10/16 13/11/17 14/1/18
f 14/1/19 1/4/20 7/10/21
f 8/12/22 15/13/23 13/11/24
f 13/11/25 7/10/26 8/12/27
f 10/14/28 6/8/29 16/7/30
f 5/9/31 17/15/32 16/7/33
f 18/16/34 17/15/35 5/9/36
f 3/5/37 12/6/38 18/16/39
f 18/16/40 4/17/41 3/5/42
f 5/9/43 4/17/44 18/16/45
f 8/12/46 9/18/47 19/19/48
f 19/19/49 15/13/50 8/12/51
f 19/19/52 9/18/53 10/14/54
f 10/14/55 20/20/56 19/19/57
f 16/7/58 20/20/59 10/14/60
f 14/1/61 13/11/62 15/13/63 19/19/64 20/20/65 16/7/66 17/15/67 18/16/68 12/6/69 11/2/70
