# This file uses centimeters as units for non-parametric coordinates.

mtllib trompa4.mtl
g default
v 0.555122 0.023510 0.060604
v 0.780597 0.035677 0.434088
v 0.006708 0.022584 0.015555
v -0.539875 -0.029326 0.049931
v -0.770239 -0.039871 0.422810
v 0.336686 0.044494 1.077125
v -0.000652 0.024894 1.140016
v 0.705797 0.035347 0.824054
v -0.700418 -0.040807 0.813776
v -0.336702 -0.004336 1.071988
v 0.786882 -0.828304 0.426132
v 0.578573 -0.820614 0.072190
v 0.678994 -0.815048 0.763849
v 0.358068 -0.804471 1.027619
v 0.035216 -0.830359 1.075706
v -0.283360 -0.860267 1.009366
v -0.582936 -0.886149 0.723951
v -0.665427 -0.893700 0.378115
v -0.434147 -0.862939 0.036870
v 0.069670 -0.812640 0.086624
vt 0.378662 0.897766
vt 0.385010 0.921082
vt 0.357910 0.927429
vt 0.357910 0.927429
vt 0.353027 0.905701
vt 0.361328 0.946381
vt 0.390381 0.941040
vt 0.361328 0.946381
vt 0.357910 0.927429
vt 0.385010 0.921082
vt 0.357910 0.927429
vt 0.361328 0.946381
vt 0.390381 0.941040
vt 0.361328 0.946381
vt 0.394043 0.959351
vt 0.365479 0.980682
vt 0.396484 0.978592
vt 0.397705 0.993496
vt 0.366211 0.994785
vt 0.365479 0.980682
vt 0.363770 0.962585
vt 0.394043 0.959351
vt 0.363770 0.962585
vt 0.365479 0.980682
vt 0.365479 0.980682
vt 0.396484 0.978592
vn 0.081883 -0.011402 -0.996577
vn 0.081883 -0.011402 -0.996577
vn 0.081883 -0.011402 -0.996577
vn -0.029606 -0.086961 -0.995772
vn -0.029606 -0.086961 -0.995772
vn -0.029606 -0.086961 -0.995772
vn 0.861856 0.016985 -0.506869
vn 0.861856 0.016985 -0.506869
vn 0.861856 0.016985 -0.506869
vn 0.855879 0.010988 -0.517059
vn 0.855879 0.010988 -0.517059
vn 0.855879 0.010988 -0.517059
vn -0.063485 0.007585 -0.997954
vn -0.063485 0.007585 -0.997954
vn -0.063485 0.007585 -0.997954
vn 0.105542 -0.076410 -0.991475
vn 0.105542 -0.076410 -0.991475
vn 0.105542 -0.076410 -0.991475
vn -0.847279 -0.076495 -0.525611
vn -0.847279 -0.076495 -0.525611
vn -0.847279 -0.076495 -0.525611
vn -0.820029 -0.095162 -0.564355
vn -0.820029 -0.095162 -0.564355
vn -0.820029 -0.095162 -0.564355
vn 0.982081 0.005409 0.188379
vn 0.982081 0.005409 0.188379
vn 0.982081 0.005409 0.188379
vn 0.185971 -0.052529 0.981150
vn 0.185971 -0.052529 0.981150
vn 0.185971 -0.052529 0.981150
vn 0.564582 -0.033870 0.824682
vn 0.564582 -0.033870 0.824682
vn 0.564582 -0.033870 0.824682
vn 0.152293 -0.067757 0.986010
vn 0.152293 -0.067757 0.986010
vn 0.152293 -0.067757 0.986010
vn 0.631724 -0.074536 0.771602
vn 0.631724 -0.074536 0.771602
vn 0.631724 -0.074536 0.771601
vn 0.950715 -0.051609 0.305742
vn 0.950715 -0.051609 0.305742
vn 0.950715 -0.051609 0.305742
vn -0.976259 -0.128952 0.174037
vn -0.976259 -0.128952 0.174037
vn -0.976260 -0.128952 0.174037
vn -0.959699 -0.158066 0.232365
vn -0.959699 -0.158066 0.232365
vn -0.959699 -0.158066 0.232365
vn -0.672013 -0.169983 0.720767
vn -0.672013 -0.169983 0.720767
vn -0.672013 -0.169983 0.720767
vn -0.195826 -0.081698 0.977230
vn -0.195826 -0.081698 0.977230
vn -0.195826 -0.081698 0.977230
vn -0.569885 -0.095228 0.816188
vn -0.569885 -0.095228 0.816188
vn -0.569884 -0.095228 0.816188
vn -0.190740 -0.083445 0.978088
vn -0.190740 -0.083445 0.978088
vn -0.190740 -0.083445 0.978088
vn -0.052178 0.998600 -0.008696
vn -0.052178 0.998600 -0.008696
vn -0.052178 0.998600 -0.008696
vn -0.052178 0.998600 -0.008696
vn -0.052178 0.998600 -0.008696
vn -0.052178 0.998600 -0.008696
vn -0.052178 0.998600 -0.008696
vn -0.052178 0.998600 -0.008696
vn -0.052178 0.998600 -0.008696
vn -0.052178 0.998600 -0.008696
s off
g pasted__polySurface7 pasted__polySurface6 pasted__polySurface4 pasted__polySurface2 pasted__Elephant group
usemtl pasted__elephant_ElephantSG
f 3/1/1 1/2/2 12/3/3
f 12/4/4 20/5/5 3/1/6
f 11/6/7 12/4/8 1/2/9
f 1/2/10 2/7/11 11/8/12
f 19/9/13 4/10/14 3/1/15
f 3/1/16 20/5/17 19/11/18
f 18/12/19 5/13/20 4/10/21
f 4/10/22 19/11/23 18/14/24
f 11/8/25 2/7/26 8/15/27
f 14/16/28 6/17/29 7/18/30
f 8/15/31 6/17/32 14/16/33
f 7/18/34 15/19/35 14/20/36
f 14/20/37 13/21/38 8/15/39
f 8/15/40 13/21/41 11/6/42
f 9/22/43 5/13/44 18/12/45
f 18/14/46 17/23/47 9/22/48
f 9/22/49 17/23/50 16/24/51
f 16/24/52 15/19/53 7/18/54
f 16/25/55 10/26/56 9/22/57
f 7/18/58 10/26/59 16/25/60
f 4/10/61 5/13/62 9/22/63 10/26/64 7/18/65 6/17/66 8/15/67 2/7/68 1/2/69 3/1/70
