# This file uses centimeters as units for non-parametric coordinates.

mtllib trompa3.mtl
g default
v 0.582925 -0.174889 -0.051741
v 0.014869 -0.241380 -0.099702
v 0.832347 -0.133288 0.373804
v -0.556452 -0.222075 -0.058185
v -0.810859 -0.196103 0.364253
v 0.358427 -0.170042 1.077047
v 0.759965 -0.128485 0.810702
v -0.741727 -0.185533 0.801959
v 0.009277 -0.191490 1.142004
v -0.339984 -0.197791 1.073010
v 0.835359 -1.063732 0.362936
v 0.609913 -1.099616 -0.009038
v 0.760544 -1.039663 0.752155
v 0.391412 -1.015101 1.004167
v 0.054097 -1.031135 1.068177
v -0.281914 -1.065000 1.002133
v -0.645574 -1.118072 0.746736
v -0.715381 -1.141781 0.356488
v -0.485016 -1.154387 -0.016329
v 0.061502 -1.104056 -0.053918
vt 0.406250 0.888306
vt 0.416016 0.911194
vt 0.385010 0.921082
vt 0.422852 0.934509
vt 0.390381 0.941040
vt 0.378662 0.897766
vt 0.385010 0.921082
vt 0.416016 0.911194
vt 0.390381 0.941040
vt 0.426270 0.955353
vt 0.427002 0.976547
vt 0.396484 0.978592
vt 0.427490 0.992065
vt 0.397705 0.993496
vt 0.396484 0.978592
vt 0.394043 0.959351
vt 0.390381 0.941040
vt 0.426270 0.955353
vt 0.422852 0.934509
vt 0.390381 0.941040
vt 0.394043 0.959351
vt 0.396484 0.978592
vt 0.427002 0.976547
vt 0.396484 0.978592
vt 0.385010 0.921082
vt 0.385010 0.921082
vn 0.089089 -0.043351 -0.995080
vn 0.089089 -0.043351 -0.995080
vn 0.089089 -0.043351 -0.995080
vn 0.862325 0.008705 -0.506280
vn 0.862325 0.008705 -0.506280
vn 0.862325 0.008705 -0.506280
vn -0.063346 -0.056304 -0.996402
vn -0.063346 -0.056304 -0.996402
vn -0.063346 -0.056304 -0.996402
vn -0.848701 -0.088438 -0.521426
vn -0.848701 -0.088438 -0.521426
vn -0.848701 -0.088438 -0.521426
vn 0.555655 -0.049884 0.829915
vn 0.555655 -0.049884 0.829915
vn 0.555655 -0.049884 0.829915
vn 0.189383 -0.075967 0.978960
vn 0.189383 -0.075967 0.978960
vn 0.189383 -0.075967 0.978960
vn 0.981825 -0.011548 0.189438
vn 0.981825 -0.011548 0.189438
vn 0.981825 -0.011548 0.189438
vn -0.982381 -0.100477 0.157583
vn -0.982381 -0.100477 0.157583
vn -0.982381 -0.100477 0.157583
vn -0.561006 -0.106460 0.820937
vn -0.561006 -0.106460 0.820938
vn -0.561006 -0.106460 0.820938
vn -0.191355 -0.092676 0.977136
vn -0.191355 -0.092676 0.977136
vn -0.191355 -0.092676 0.977136
vn 0.081857 -0.048407 -0.995468
vn 0.081857 -0.048407 -0.995468
vn 0.081857 -0.048407 -0.995468
vn 0.855147 0.001020 -0.518384
vn 0.855147 0.001020 -0.518384
vn 0.855147 0.001020 -0.518384
vn -0.074079 -0.050392 -0.995978
vn -0.074079 -0.050392 -0.995978
vn -0.074079 -0.050392 -0.995978
vn -0.855972 -0.082229 -0.510441
vn -0.855972 -0.082229 -0.510441
vn -0.855972 -0.082229 -0.510441
vn 0.986554 0.001284 0.163431
vn 0.986554 0.001284 0.163431
vn 0.986554 0.001284 0.163431
vn 0.186940 -0.077164 0.979336
vn 0.186940 -0.077164 0.979336
vn 0.186940 -0.077164 0.979336
vn 0.560662 -0.052738 0.826364
vn 0.560662 -0.052738 0.826364
vn 0.560662 -0.052738 0.826364
vn -0.977042 -0.111492 0.181545
vn -0.977042 -0.111492 0.181545
vn -0.977042 -0.111492 0.181545
vn -0.182673 -0.095788 0.978497
vn -0.182673 -0.095788 0.978497
vn -0.182673 -0.095788 0.978496
vn -0.558415 -0.104650 0.822934
vn -0.558415 -0.104650 0.822934
vn -0.558415 -0.104650 0.822934
vn -0.038554 0.998752 -0.031745
vn -0.038554 0.998752 -0.031745
vn -0.038554 0.998752 -0.031745
vn -0.038554 0.998752 -0.031745
vn -0.038554 0.998752 -0.031745
vn -0.038554 0.998752 -0.031745
vn -0.038554 0.998752 -0.031745
vn -0.038554 0.998752 -0.031745
vn -0.038554 0.998752 -0.031745
vn -0.038554 0.998752 -0.031745
s off
g pasted__polySurface5 pasted__polySurface4 pasted__polySurface2 pasted__Elephant group
usemtl pasted__elephant_ElephantSG
f 2/1/1 1/2/2 12/3/3
f 1/2/4 3/4/5 11/5/6
f 2/1/7 20/6/8 19/7/9
f 4/8/10 19/7/11 18/9/12
f 7/10/13 6/11/14 14/12/15
f 9/13/16 15/14/17 14/15/18
f 7/10/19 13/16/20 11/17/21
f 8/18/22 5/19/23 18/20/24
f 8/18/25 17/21/26 16/22/27
f 9/13/28 10/23/29 16/24/30
f 12/25/31 20/6/32 2/1/33
f 11/17/34 12/25/35 1/2/36
f 19/26/37 4/8/38 2/1/39
f 18/20/40 5/19/41 4/8/42
f 11/5/43 3/4/44 7/10/45
f 14/12/46 6/11/47 9/13/48
f 14/15/49 13/16/50 7/10/51
f 18/9/52 17/21/53 8/18/54
f 16/22/55 15/14/56 9/13/57
f 16/24/58 10/23/59 8/18/60
f 2/1/61 4/8/62 5/19/63 8/18/64 10/23/65 9/13/66 6/11/67 7/10/68 3/4/69 1/2/70
