# This file uses centimeters as units for non-parametric coordinates.

mtllib trompa10.mtl
g default
v 0.497514 -0.339876 0.176836
v 0.321072 -0.254994 0.276865
v 0.330338 -0.263743 0.303936
v 0.501544 -0.345390 0.200567
v 0.313710 -0.286473 0.285688
v 0.614721 -0.551478 0.151966
v 0.483328 -0.361372 0.187096
v -0.086931 0.046621 -0.013728
v 0.198296 0.074859 -0.002782
v 0.345564 0.066802 0.273495
v 0.288568 0.053139 0.507784
v 0.155201 0.038429 0.671841
v -0.372350 0.023814 0.004091
v -0.513795 -0.006080 0.286350
v -0.450337 -0.009312 0.519047
v -0.312915 -0.001136 0.678976
v -0.077391 0.008891 0.736473
v 0.325816 -0.355222 0.234198
v 0.192059 -0.381308 0.027751
v 0.314187 -0.354125 0.484316
v 0.179287 -0.346462 0.640717
v -0.048351 -0.359193 0.707174
v -0.279577 -0.381285 0.659779
v -0.423064 -0.410502 0.514706
v -0.453066 -0.415260 0.266040
v -0.328227 -0.423755 0.048405
v -0.068715 -0.411562 0.001833
v 0.358630 -0.213280 0.113800
v 0.293497 -0.170669 0.176792
v 0.293089 -0.188304 0.195567
v 0.361307 -0.223837 0.120855
v 0.276806 -0.193949 0.172396
v 0.418779 -0.282002 -0.029589
v 0.349402 -0.224518 0.112389
v 0.069101 -0.337517 0.655868
v 0.113933 -0.298619 0.748255
v 0.123484 -0.308047 0.751105
v 0.207358 -0.223501 0.821277
v 0.045048 -0.342825 0.662827
v 0.109843 -0.309271 0.757525
v 0.055040 -0.319932 0.658564
v -0.615836 -0.234406 0.523517
v -0.438771 -0.157548 0.505392
v -0.443253 -0.167958 0.490909
v -0.439576 -0.173778 0.507953
v -0.441457 -0.248517 0.225580
v -0.446038 -0.231290 0.207011
v -0.508193 -0.295111 0.156384
v -0.566121 -0.362736 0.010656
v -0.426182 -0.251574 0.201121
v -0.496974 -0.293897 0.146973
v -0.507761 -0.284301 0.149200
vt 0.032684 0.472168
vt 0.038605 0.441895
vt 0.030792 0.440918
vt 0.028366 0.471191
vt 0.021973 0.440918
vt 0.025345 0.508789
vt 0.023483 0.471191
vt 0.013229 0.441895
vt 0.018646 0.471680
vt 0.256104 0.919312
vt 0.253906 0.932434
vt 0.239624 0.927979
vt 0.239624 0.927979
vt 0.244141 0.916138
vt 0.234009 0.940979
vt 0.248047 0.948029
vt 0.234009 0.940979
vt 0.244263 0.959015
vt 0.228882 0.952240
vt 0.225586 0.961151
vt 0.241333 0.968140
vt 0.225586 0.961151
vt 0.237305 0.978134
vt 0.221191 0.970856
vt 0.239624 0.927979
vt 0.253906 0.932434
vt 0.239624 0.927979
vt 0.234009 0.940979
vt 0.234009 0.940979
vt 0.248047 0.948029
vt 0.244263 0.959015
vt 0.228882 0.952240
vt 0.225586 0.961151
vt 0.225586 0.961151
vt 0.241333 0.968140
vt 0.073181 0.398438
vt 0.083984 0.348145
vt 0.070740 0.346191
vt 0.065857 0.397461
vt 0.055817 0.345215
vt 0.059814 0.460938
vt 0.057617 0.396973
vt 0.040955 0.347168
vt 0.049408 0.397949
vt 0.034882 0.262695
vt 0.042694 0.263672
vt 0.036713 0.291504
vt 0.032104 0.291504
vt 0.028442 0.330078
vt 0.026077 0.262207
vt 0.027069 0.291016
vt 0.021973 0.291504
vt 0.017303 0.263184
vt 0.025345 0.508789
vt 0.013229 0.441895
vt 0.021973 0.440918
vt 0.030792 0.440918
vt 0.038605 0.441895
vt 0.070740 0.346191
vt 0.083984 0.348145
vt 0.073181 0.398438
vt 0.065857 0.397461
vt 0.059814 0.460938
vt 0.055817 0.345215
vt 0.057617 0.396973
vt 0.049408 0.397949
vt 0.040955 0.347168
vn 0.482953 0.868029 0.115248
vn 0.482953 0.868029 0.115248
vn 0.482953 0.868029 0.115248
vn 0.484978 0.866400 0.118946
vn 0.484978 0.866400 0.118946
vn 0.484978 0.866400 0.118946
vn 0.119513 -0.673217 0.729723
vn 0.119513 -0.673217 0.729723
vn 0.119513 -0.673217 0.729723
vn 0.872482 0.487397 -0.034927
vn 0.872482 0.487397 -0.034927
vn 0.872482 0.487397 -0.034927
vn 0.097782 -0.704219 0.703217
vn 0.097782 -0.704219 0.703217
vn 0.097782 -0.704219 0.703217
vn -0.313226 -0.377533 0.871411
vn -0.313226 -0.377533 0.871411
vn -0.313226 -0.377533 0.871411
vn -0.535228 -0.109554 -0.837573
vn -0.535228 -0.109554 -0.837573
vn -0.535228 -0.109554 -0.837573
vn -0.516218 -0.066911 -0.853839
vn -0.516218 -0.066911 -0.853839
vn -0.516219 -0.066911 -0.853839
vn -0.435891 -0.136903 -0.889526
vn -0.435891 -0.136903 -0.889526
vn -0.435891 -0.136903 -0.889526
vn 0.044916 -0.067325 -0.996720
vn 0.044916 -0.067325 -0.996719
vn 0.044916 -0.067325 -0.996720
vn 0.102270 -0.029708 -0.994313
vn 0.102270 -0.029708 -0.994313
vn 0.102270 -0.029708 -0.994313
vn 0.841029 -0.047571 -0.538895
vn 0.841029 -0.047571 -0.538895
vn 0.841029 -0.047571 -0.538895
vn 0.882487 0.002502 -0.470330
vn 0.882487 0.002502 -0.470330
vn 0.882487 0.002502 -0.470330
vn 0.997129 0.060068 0.046099
vn 0.997129 0.060068 0.046099
vn 0.997129 0.060068 0.046099
vn 0.970367 -0.067023 0.232156
vn 0.970367 -0.067023 0.232156
vn 0.970367 -0.067023 0.232156
vn 0.757444 0.010031 0.652823
vn 0.757444 0.010031 0.652823
vn 0.757444 0.010031 0.652823
vn 0.776057 -0.002431 0.630658
vn 0.776057 -0.002431 0.630658
vn 0.776057 -0.002431 0.630658
vn 0.274362 -0.060437 0.959726
vn 0.274362 -0.060437 0.959725
vn 0.274362 -0.060437 0.959726
vn 0.282614 -0.053938 0.957716
vn 0.282614 -0.053938 0.957716
vn 0.282614 -0.053938 0.957716
vn -0.053723 -0.103629 -0.993164
vn -0.053723 -0.103629 -0.993164
vn -0.053723 -0.103629 -0.993164
vn -0.174657 -0.040358 -0.983802
vn -0.174657 -0.040358 -0.983802
vn -0.174657 -0.040358 -0.983802
vn -0.861910 -0.133405 -0.489198
vn -0.861910 -0.133405 -0.489198
vn -0.861910 -0.133405 -0.489198
vn -0.884079 -0.108650 -0.454533
vn -0.884079 -0.108650 -0.454533
vn -0.884079 -0.108650 -0.454533
vn -0.953749 -0.154356 0.257948
vn -0.953749 -0.154356 0.257948
vn -0.953749 -0.154356 0.257948
vn -0.990303 -0.068627 0.120793
vn -0.990303 -0.068627 0.120794
vn -0.990303 -0.068627 0.120794
vn -0.704270 -0.055539 0.707756
vn -0.704270 -0.055539 0.707756
vn -0.704270 -0.055539 0.707756
vn -0.752240 -0.098864 0.651430
vn -0.752240 -0.098864 0.651430
vn -0.752240 -0.098864 0.651430
vn -0.233794 -0.069475 0.969801
vn -0.233794 -0.069475 0.969801
vn -0.233794 -0.069475 0.969801
vn -0.191406 -0.092877 0.977107
vn -0.191406 -0.092877 0.977107
vn -0.191406 -0.092877 0.977107
vn 0.752748 0.471601 0.459307
vn 0.752748 0.471601 0.459307
vn 0.752748 0.471601 0.459307
vn 0.747163 0.489777 0.449295
vn 0.747163 0.489777 0.449295
vn 0.747163 0.489777 0.449295
vn -0.134484 -0.936868 0.322790
vn -0.134484 -0.936868 0.322790
vn -0.134484 -0.936868 0.322790
vn 0.907403 0.367000 0.204769
vn 0.907403 0.367000 0.204769
vn 0.907403 0.367000 0.204769
vn -0.160945 -0.939688 0.301801
vn -0.160945 -0.939688 0.301801
vn -0.160945 -0.939688 0.301801
vn -0.154759 -0.943376 0.293414
vn -0.154759 -0.943376 0.293414
vn -0.154759 -0.943376 0.293414
vn -0.441467 0.461780 -0.769329
vn -0.441467 0.461780 -0.769329
vn -0.441467 0.461780 -0.769329
vn -0.442933 0.460312 -0.769365
vn -0.442933 0.460312 -0.769365
vn -0.442933 0.460312 -0.769365
vn -0.618642 0.575198 -0.535191
vn -0.618642 0.575198 -0.535191
vn -0.618642 0.575198 -0.535191
vn 0.614871 0.574511 -0.540251
vn 0.614871 0.574511 -0.540251
vn 0.614871 0.574511 -0.540250
vn 0.667416 0.512943 -0.539857
vn 0.667416 0.512943 -0.539857
vn 0.667416 0.512943 -0.539857
vn 0.478658 0.228842 -0.847655
vn 0.478658 0.228842 -0.847655
vn 0.478658 0.228842 -0.847655
vn 0.254343 -0.955348 0.150400
vn 0.254343 -0.955348 0.150400
vn 0.254343 -0.955348 0.150400
vn 0.186128 -0.959263 0.212535
vn 0.186128 -0.959263 0.212535
vn 0.186128 -0.959263 0.212535
vn 0.325260 -0.773811 0.543528
vn 0.325260 -0.773811 0.543528
vn 0.325260 -0.773811 0.543528
vn -0.736861 0.582035 0.343905
vn -0.736861 0.582035 0.343905
vn -0.736861 0.582035 0.343905
vn -0.735993 0.582587 0.344827
vn -0.735993 0.582587 0.344827
vn -0.735993 0.582587 0.344827
vn -0.809355 0.428091 0.402097
vn -0.809355 0.428091 0.402097
vn -0.809355 0.428091 0.402097
vn -0.393570 0.799868 -0.453115
vn -0.393570 0.799869 -0.453115
vn -0.393570 0.799868 -0.453115
vn 0.274204 -0.890444 -0.363209
vn 0.274204 -0.890444 -0.363209
vn 0.274204 -0.890444 -0.363209
vn 0.034176 0.154131 0.987459
vn 0.034176 0.154131 0.987459
vn 0.034176 0.154131 0.987459
vn -0.782512 0.348273 0.516121
vn -0.782512 0.348273 0.516121
vn -0.782512 0.348273 0.516121
vn -0.780682 0.367198 0.505669
vn -0.780682 0.367198 0.505669
vn -0.780682 0.367198 0.505669
vn -0.937448 0.217829 0.271554
vn -0.937448 0.217829 0.271554
vn -0.937448 0.217829 0.271554
vn 0.310528 -0.899822 0.306418
vn 0.310528 -0.899822 0.306418
vn 0.310528 -0.899822 0.306418
vn 0.329016 -0.903163 0.275763
vn 0.329016 -0.903163 0.275763
vn 0.329016 -0.903163 0.275763
vn 0.335152 -0.898439 0.283691
vn 0.335152 -0.898439 0.283691
vn 0.335152 -0.898439 0.283691
vn 0.473424 0.666011 -0.576453
vn 0.473424 0.666011 -0.576453
vn 0.473424 0.666011 -0.576453
vn 0.297813 0.523317 -0.798403
vn 0.297813 0.523317 -0.798403
vn 0.297813 0.523317 -0.798403
vn 0.299559 0.522052 -0.798577
vn 0.299559 0.522052 -0.798577
vn 0.299559 0.522052 -0.798577
vn -0.084367 0.995269 0.048181
vn -0.084367 0.995269 0.048181
vn -0.084367 0.995269 0.048181
vn -0.084367 0.995269 0.048181
vn -0.084367 0.995269 0.048181
vn -0.084367 0.995269 0.048181
vn -0.084367 0.995269 0.048181
vn -0.084367 0.995269 0.048181
vn -0.084367 0.995269 0.048181
vn -0.084367 0.995269 0.048181
s off
g pasted__polySurface82 group
usemtl pasted__elephant_ElephantSG
f 1/1/1 2/2/2 3/3/3
f 3/3/4 4/4/5 1/1/6
f 4/4/7 3/3/8 5/5/9
f 6/6/10 1/1/11 4/4/12
f 5/5/13 7/7/14 4/4/15
f 7/7/16 6/6/17 4/4/18
f 7/7/19 5/5/20 2/8/21
f 2/8/22 1/9/23 7/7/24
f 1/9/25 6/6/26 7/7/27
f 8/10/28 9/11/29 19/12/30
f 19/13/31 27/14/32 8/10/33
f 18/15/34 19/13/35 9/11/36
f 9/11/37 10/16/38 18/17/39
f 11/18/40 20/19/41 18/15/42
f 18/17/43 10/16/44 11/18/45
f 21/20/46 20/19/47 11/18/48
f 11/18/49 12/21/50 21/22/51
f 21/22/52 12/21/53 17/23/54
f 17/23/55 22/24/56 21/20/57
f 26/25/58 13/26/59 8/10/60
f 8/10/61 27/14/62 26/27/63
f 13/26/64 26/27/65 25/28/66
f 25/29/67 14/30/68 13/26/69
f 15/31/70 14/30/71 25/29/72
f 25/28/73 24/32/74 15/31/75
f 15/31/76 24/32/77 23/33/78
f 23/34/79 16/35/80 15/31/81
f 17/23/82 16/35/83 23/34/84
f 23/33/85 22/24/86 17/23/87
f 28/36/88 29/37/89 30/38/90
f 30/38/91 31/39/92 28/36/93
f 31/39/94 30/38/95 32/40/96
f 33/41/97 28/36/98 31/39/99
f 34/42/100 33/41/101 31/39/102
f 32/40/103 34/42/104 31/39/105
f 34/42/106 32/40/107 29/43/108
f 29/43/109 28/44/110 34/42/111
f 28/44/112 33/41/113 34/42/114
f 35/45/115 41/46/116 36/47/117
f 36/47/118 37/48/119 35/45/120
f 38/49/121 37/48/122 36/47/123
f 39/50/124 35/45/125 37/48/126
f 37/48/127 40/51/128 39/50/129
f 40/51/130 37/48/131 38/49/132
f 38/49/133 36/52/134 40/51/135
f 40/51/136 36/52/137 41/53/138
f 41/53/139 39/50/140 40/51/141
f 42/54/142 43/55/143 44/56/144
f 44/56/145 45/57/146 42/54/147
f 42/54/148 45/57/149 43/58/150
f 46/59/151 47/60/152 52/61/153
f 52/61/154 48/62/155 46/59/156
f 49/63/157 48/62/158 52/61/159
f 50/64/160 46/59/161 48/62/162
f 48/62/163 51/65/164 50/64/165
f 51/65/166 48/62/167 49/63/168
f 52/66/169 51/65/170 49/63/171
f 47/67/172 50/64/173 51/65/174
f 51/65/175 52/66/176 47/67/177
f 8/10/178 13/26/179 14/30/180 15/31/181 16/35/182 17/23/183 12/21/184 11/18/185 10/16/186 9/11/187
