# This file uses centimeters as units for non-parametric coordinates.

mtllib trompa2.mtl
g default
v 0.608482 -0.849785 -0.089117
v 0.926338 -0.788736 0.403674
v -0.586453 -0.866150 -0.099106
v 0.011457 -0.865671 -0.153577
v -0.911548 -0.807118 0.388034
v 0.367632 -0.736276 1.210000
v 0.802283 -0.743187 0.867467
v -0.788341 -0.761787 0.852102
v 0.003634 -0.717384 1.255886
v -0.359150 -0.744162 1.202349
v 0.594334 0.163380 -0.213389
v 1.023753 0.134631 0.308372
v 0.010606 0.233085 -0.282249
v -0.574811 0.164360 -0.222338
v -1.010525 0.144757 0.293713
v -0.793934 0.205551 0.840337
v 0.405046 0.151355 1.201382
v 0.807137 0.200678 0.856162
v -0.398233 0.154139 1.193411
v 0.002796 0.134938 1.259993
v 0.604598 -1.464585 -0.039914
v 0.036253 -1.523396 -0.094083
v -0.534926 -1.507541 -0.049280
v -0.788435 -1.530826 0.373852
v -0.718425 -1.572098 0.809599
v -0.316197 -1.617317 1.076401
v 0.033215 -1.620152 1.144861
v 0.382301 -1.592161 1.082089
v 0.783446 -1.520617 0.821583
v 0.854967 -1.474105 0.386999
vt 0.416016 0.911194
vt 0.406250 0.888306
vt 0.433350 0.876343
vt 0.416016 0.911194
vt 0.444580 0.900024
vt 0.454834 0.927063
vt 0.416016 0.911194
vt 0.444580 0.900024
vt 0.416016 0.911194
vt 0.422852 0.934509
vt 0.454834 0.927063
vt 0.427002 0.976547
vt 0.461670 0.974213
vt 0.463379 0.990112
vt 0.422852 0.934509
vt 0.458984 0.949890
vt 0.427002 0.976547
vt 0.426270 0.955353
vt 0.426270 0.955353
vt 0.458984 0.949890
vt 0.427002 0.976547
vt 0.427490 0.992065
vt 0.427002 0.976547
vt 0.461670 0.974213
vt 0.462646 0.857544
vt 0.473877 0.884705
vt 0.485840 0.917542
vt 0.422852 0.934509
vt 0.473877 0.884705
vt 0.485840 0.917542
vt 0.492920 0.945221
vt 0.494141 0.969330
vt 0.494629 0.987602
vt 0.492920 0.945221
vt 0.422852 0.934509
vt 0.494141 0.969330
vn 0.103318 -0.085741 -0.990946
vn 0.103318 -0.085741 -0.990946
vn 0.103318 -0.085741 -0.990946
vn 0.842088 -0.048311 -0.537173
vn 0.842088 -0.048311 -0.537173
vn 0.842088 -0.048311 -0.537173
vn -0.090336 -0.084344 -0.992333
vn -0.090336 -0.084344 -0.992333
vn -0.090336 -0.084344 -0.992333
vn -0.846824 -0.133968 -0.514726
vn -0.846824 -0.133968 -0.514725
vn -0.846824 -0.133968 -0.514726
vn 0.116347 -0.144851 0.982589
vn 0.116347 -0.144851 0.982589
vn 0.116347 -0.144851 0.982589
vn 0.957918 -0.106240 0.266657
vn 0.957918 -0.106240 0.266657
vn 0.957918 -0.106240 0.266657
vn 0.551388 -0.062459 0.831908
vn 0.551388 -0.062459 0.831908
vn 0.551388 -0.062459 0.831908
vn -0.984418 -0.092774 0.149377
vn -0.984418 -0.092774 0.149377
vn -0.984418 -0.092774 0.149377
vn -0.191724 -0.125982 0.973329
vn -0.191724 -0.125982 0.973329
vn -0.191724 -0.125982 0.973329
vn -0.622381 -0.141654 0.769790
vn -0.622381 -0.141654 0.769790
vn -0.622381 -0.141654 0.769790
vn 0.102201 -0.119701 -0.987536
vn 0.102201 -0.119701 -0.987536
vn 0.102201 -0.119701 -0.987536
vn 0.109665 -0.115527 -0.987232
vn 0.109665 -0.115527 -0.987232
vn 0.109665 -0.115527 -0.987232
vn 0.109105 -0.079980 -0.990807
vn 0.109105 -0.079980 -0.990807
vn 0.109105 -0.079980 -0.990807
vn 0.842161 -0.054047 -0.536510
vn 0.842161 -0.054047 -0.536510
vn 0.842161 -0.054047 -0.536510
vn 0.759950 -0.145557 -0.633474
vn 0.759950 -0.145557 -0.633474
vn 0.759950 -0.145557 -0.633474
vn 0.859276 -0.077178 -0.505656
vn 0.859276 -0.077178 -0.505656
vn 0.859276 -0.077178 -0.505656
vn -0.087466 -0.117308 -0.989236
vn -0.087466 -0.117308 -0.989236
vn -0.087466 -0.117308 -0.989236
vn -0.090023 -0.115909 -0.989172
vn -0.090023 -0.115909 -0.989172
vn -0.090023 -0.115909 -0.989172
vn -0.833604 -0.056292 -0.549487
vn -0.833604 -0.056292 -0.549487
vn -0.833604 -0.056292 -0.549487
vn -0.753673 -0.141957 -0.641737
vn -0.753673 -0.141957 -0.641736
vn -0.753673 -0.141957 -0.641737
vn -0.832877 -0.109065 -0.542606
vn -0.832877 -0.109065 -0.542606
vn -0.832877 -0.109065 -0.542606
vn -0.080421 -0.092805 -0.992431
vn -0.080421 -0.092805 -0.992431
vn -0.080421 -0.092805 -0.992431
vn -0.925771 -0.059261 0.373412
vn -0.925771 -0.059261 0.373412
vn -0.925771 -0.059261 0.373412
vn 0.144367 -0.004625 0.989513
vn 0.144367 -0.004625 0.989513
vn 0.144367 -0.004625 0.989513
vn 0.925845 -0.059153 0.373246
vn 0.925845 -0.059153 0.373245
vn 0.925845 -0.059153 0.373245
vn 0.652702 -0.020160 0.757347
vn 0.652702 -0.020160 0.757347
vn 0.652702 -0.020160 0.757347
vn 0.125291 0.004350 0.992111
vn 0.125291 0.004350 0.992110
vn 0.125291 0.004350 0.992110
vn 0.184671 -0.114000 0.976166
vn 0.184671 -0.114000 0.976166
vn 0.184671 -0.114000 0.976166
vn 0.614412 -0.106310 0.781791
vn 0.614412 -0.106310 0.781791
vn 0.614412 -0.106310 0.781790
vn 0.619011 0.006224 0.785358
vn 0.619011 0.006224 0.785358
vn 0.619011 0.006224 0.785358
vn 0.965992 -0.001870 0.258566
vn 0.965992 -0.001870 0.258566
vn 0.965992 -0.001870 0.258566
vn 0.986745 -0.033283 0.158831
vn 0.986745 -0.033283 0.158831
vn 0.986745 -0.033283 0.158831
vn -0.948839 -0.166667 0.268191
vn -0.948839 -0.166667 0.268191
vn -0.948839 -0.166667 0.268191
vn -0.966454 -0.002464 0.256827
vn -0.966454 -0.002464 0.256827
vn -0.966454 -0.002464 0.256827
vn -0.557565 -0.091385 0.825088
vn -0.557565 -0.091384 0.825088
vn -0.557565 -0.091385 0.825088
vn -0.133689 -0.147923 0.979921
vn -0.133689 -0.147923 0.979921
vn -0.133689 -0.147923 0.979921
vn -0.632386 0.005764 0.774632
vn -0.632386 0.005764 0.774632
vn -0.632386 0.005764 0.774632
vn -0.667182 -0.021618 0.744581
vn -0.667182 -0.021618 0.744581
vn -0.667182 -0.021618 0.744581
vn -0.146240 0.003477 0.989243
vn -0.146240 0.003477 0.989243
vn -0.146240 0.003477 0.989243
vn -0.164012 -0.004911 0.986446
vn -0.164012 -0.004911 0.986446
vn -0.164012 -0.004911 0.986446
vn 0.003527 0.999900 0.013706
vn 0.003527 0.999900 0.013706
vn 0.003527 0.999900 0.013706
vn 0.003527 0.999900 0.013706
vn 0.003527 0.999900 0.013706
vn 0.003527 0.999900 0.013706
vn 0.003527 0.999900 0.013706
vn 0.003527 0.999900 0.013706
vn 0.003527 0.999900 0.013706
vn 0.003527 0.999900 0.013706
s off
g pasted__polySurface3 pasted__polySurface2 pasted__Elephant group
usemtl pasted__elephant_ElephantSG
f 21/1/1 22/2/2 4/3/3
f 21/4/4 1/5/5 2/6/6
f 23/7/7 3/8/8 4/3/9
f 23/9/10 24/10/11 5/11/12
f 28/12/13 6/13/14 9/14/15
f 30/15/16 2/6/17 7/16/18
f 28/17/19 29/18/20 7/16/21
f 24/10/22 25/19/23 8/20/24
f 26/21/25 27/22/26 9/14/27
f 26/23/28 10/24/29 8/20/30
f 13/25/31 11/26/32 1/5/33
f 1/5/34 4/3/35 13/25/36
f 4/3/37 1/5/38 21/4/39
f 2/6/40 1/5/41 11/26/42
f 11/26/43 12/27/44 2/6/45
f 2/6/46 30/28/47 21/1/48
f 3/8/49 14/29/50 13/25/51
f 13/25/52 4/3/53 3/8/54
f 14/29/55 3/8/56 5/11/57
f 5/11/58 15/30/59 14/29/60
f 5/11/61 3/8/62 23/7/63
f 4/3/64 22/2/65 23/9/66
f 16/31/67 15/30/68 5/11/69
f 17/32/70 20/33/71 9/14/72
f 2/6/73 12/27/74 18/34/75
f 18/34/76 17/32/77 6/13/78
f 9/14/79 6/13/80 17/32/81
f 9/14/82 27/22/83 28/17/84
f 7/16/85 6/13/86 28/12/87
f 6/13/88 7/16/89 18/34/90
f 18/34/91 7/16/92 2/6/93
f 7/16/94 29/18/95 30/28/96
f 8/20/97 5/11/98 24/35/99
f 5/11/100 8/20/101 16/31/102
f 8/20/103 25/19/104 26/21/105
f 9/14/106 10/24/107 26/23/108
f 16/31/109 8/20/110 10/24/111
f 10/24/112 19/36/113 16/31/114
f 19/36/115 10/24/116 9/14/117
f 9/14/118 20/33/119 19/36/120
f 13/25/121 14/29/122 15/30/123 16/31/124 19/36/125 20/33/126 17/32/127 18/34/128 12/27/129 11/26/130
