# This file uses centimeters as units for non-parametric coordinates.

mtllib pisoLeones.mtl
g default
v -15.546307 0.018822 -14.359610
v -15.546307 -0.041668 -14.374149
v -8.751173 0.018822 -13.774776
v -8.767061 -0.041668 -13.790677
v 15.546307 0.018822 -3.593983
v 15.546309 -0.041668 -3.604105
v 4.190763 0.018822 -9.511138
v 4.187931 -0.041666 -9.522738
v 5.895673 -0.041668 15.408861
v 5.888544 0.018822 15.408861
v 15.546304 0.018820 4.341283
v 15.546309 -0.041666 4.349459
v 0.476969 -0.041668 15.408861
v 0.483580 0.018822 15.408861
v -15.546306 0.018822 9.914216
v -15.546307 -0.041668 9.916483
vt -0.945433 0.006661
vt 0.010471 0.962565
vt 0.133394 0.000000
vt 0.375000 0.758394
vt 0.226742 0.943785
vt 0.429508 0.763127
vt 1.000067 0.616867
vt 1.610273 0.006661
vt 0.625000 0.845763
vt 0.779237 0.000000
vt 0.638650 0.806874
vt 0.533673 0.797750
vt 0.547404 0.000000
vt 0.547404 1.000000
vt 0.692686 0.006661
vt 0.692686 0.006661
vt 1.000067 0.362055
vt 1.355461 0.006661
vt 0.625000 0.910284
vt 0.714716 0.000000
vt 0.503835 0.000000
vt 0.503835 1.000000
vt 0.520660 0.006661
vt 0.520660 0.006661
vt -0.165969 0.006661
vt 0.010471 0.183101
vt 0.330445 0.000000
vt 0.375000 0.955445
vn 0.000000 -1.000000 0.000000
vn 0.000000 -1.000000 0.000000
vn 0.000000 -1.000000 -0.000000
vn 0.000000 -1.000000 -0.000000
vn 0.000000 -1.000000 -0.000000
vn -0.000000 -1.000000 -0.000000
vn 0.000000 -1.000000 0.000000
vn 0.000000 -1.000000 -0.000000
vn -1.000000 -0.000042 0.000000
vn -1.000000 -0.000041 0.000000
vn -1.000000 0.000008 0.000000
vn -1.000000 0.000008 0.000000
vn 1.000000 0.000064 0.000000
vn 1.000000 0.000063 0.000000
vn 1.000000 0.000029 0.000000
vn 1.000000 0.000029 -0.000000
vn 0.000000 0.000000 1.000000
vn 0.000000 0.000000 1.000000
vn 0.000000 0.000000 1.000000
vn 0.000000 0.000000 1.000000
vn 0.000000 1.000000 0.000000
vn 0.000000 1.000000 -0.000000
vn 0.000000 1.000000 0.000000
vn 0.000000 1.000000 -0.000000
vn 0.000000 1.000000 0.000000
vn 0.000000 1.000000 0.000000
vn 0.000000 1.000000 0.000000
vn 0.000000 1.000000 -0.000000
s 1
g pCube1
usemtl phong1SG
f 2/4/1 4/6/2 16/28/3
f 4/6/2 8/12/4 16/28/3
f 16/28/3 8/12/4 13/22/5
f 8/12/4 6/9/6 13/22/5
f 6/9/6 12/19/7 13/22/5
f 12/19/7 9/14/8 13/22/5
s 2
f 1/1/9 2/3/10 15/25/11
f 15/25/11 2/3/10 16/27/12
s 3
f 11/18/13 12/20/14 5/8/15
f 5/8/15 12/20/14 6/10/16
s 4
f 14/24/17 13/21/18 10/16/19
f 10/16/19 13/21/18 9/13/20
s 5
f 1/2/21 15/26/22 3/5/23
f 3/5/23 15/26/22 7/11/24
f 15/26/22 14/23/25 7/11/24
f 7/11/24 14/23/25 5/7/26
f 5/7/26 14/23/25 11/17/27
f 14/23/25 10/15/28 11/17/27
g default
v -15.546307 0.018822 -14.359610
v -15.546307 -0.041668 -14.374149
v -8.751173 0.018822 -13.774776
v -8.767061 -0.041668 -13.790677
v 15.546307 0.018822 -3.593983
v 15.546309 -0.041668 -3.604105
v 4.190763 0.018822 -9.511138
v 4.187931 -0.041666 -9.522738
v 5.895673 -0.041668 15.408861
v 5.888544 0.018822 15.408861
v 15.546304 0.018820 4.341283
v 15.546309 -0.041666 4.349459
v 0.476969 -0.041668 15.408861
v 0.483580 0.018822 15.408861
v -15.546306 0.018822 9.914216
v -15.546307 -0.041668 9.916483
vt -0.945433 0.006661
vt 0.010471 0.962565
vt 0.133394 0.000000
vt 0.375000 0.758394
vt 0.226742 0.943785
vt 0.429508 0.763127
vt 1.000067 0.616867
vt 1.610273 0.006661
vt 0.625000 0.845763
vt 0.779237 0.000000
vt 0.638650 0.806874
vt 0.533673 0.797750
vt 0.547404 0.000000
vt 0.547404 1.000000
vt 0.692686 0.006661
vt 0.692686 0.006661
vt 1.000067 0.362055
vt 1.355461 0.006661
vt 0.625000 0.910284
vt 0.714716 0.000000
vt 0.503835 0.000000
vt 0.503835 1.000000
vt 0.520660 0.006661
vt 0.520660 0.006661
vt -0.165969 0.006661
vt 0.010471 0.183101
vt 0.330445 0.000000
vt 0.375000 0.955445
vn 0.000000 -1.000000 0.000000
vn 0.000000 -1.000000 0.000000
vn 0.000000 -1.000000 -0.000000
vn 0.000000 -1.000000 -0.000000
vn 0.000000 -1.000000 -0.000000
vn -0.000000 -1.000000 -0.000000
vn 0.000000 -1.000000 0.000000
vn 0.000000 -1.000000 -0.000000
vn -1.000000 -0.000042 0.000000
vn -1.000000 -0.000041 0.000000
vn -1.000000 0.000008 0.000000
vn -1.000000 0.000008 0.000000
vn 1.000000 0.000064 0.000000
vn 1.000000 0.000063 0.000000
vn 1.000000 0.000029 0.000000
vn 1.000000 0.000029 -0.000000
vn 0.000000 0.000000 1.000000
vn 0.000000 0.000000 1.000000
vn 0.000000 0.000000 1.000000
vn 0.000000 0.000000 1.000000
vn 0.000000 1.000000 0.000000
vn 0.000000 1.000000 -0.000000
vn 0.000000 1.000000 0.000000
vn 0.000000 1.000000 -0.000000
vn 0.000000 1.000000 0.000000
vn 0.000000 1.000000 0.000000
vn 0.000000 1.000000 0.000000
vn 0.000000 1.000000 -0.000000
s 1
g pCube1
f 18/32/29 20/34/30 32/56/31
f 20/34/30 24/40/32 32/56/31
f 32/56/31 24/40/32 29/50/33
f 24/40/32 22/37/34 29/50/33
f 22/37/34 28/47/35 29/50/33
f 28/47/35 25/42/36 29/50/33
s 2
f 17/29/37 18/31/38 31/53/39
f 31/53/39 18/31/38 32/55/40
s 3
f 27/46/41 28/48/42 21/36/43
f 21/36/43 28/48/42 22/38/44
s 4
f 30/52/45 29/49/46 26/44/47
f 26/44/47 29/49/46 25/41/48
s 5
f 17/30/49 31/54/50 19/33/51
f 19/33/51 31/54/50 23/39/52
f 31/54/50 30/51/53 23/39/52
f 23/39/52 30/51/53 21/35/54
f 21/35/54 30/51/53 27/45/55
f 30/51/53 26/43/56 27/45/55
