# This file uses centimeters as units for non-parametric coordinates.

mtllib paredesInteriores.mtl
g default
v 10.750014 -0.028995 -0.902841
v 10.711311 -0.028995 -0.903641
v 10.750014 7.772677 -0.902841
v 10.711311 7.772677 -0.903641
v 10.711058 7.772677 0.977568
v 10.672356 7.772677 0.976767
v 10.711058 -0.028995 0.977568
v 10.672356 -0.028995 0.976767
vt 0.244724 -0.349368
vt 0.257825 -0.349368
vt 0.257825 1.349368
vt 0.244724 1.349368
vt 1.244724 1.349368
vt 2.257825 1.349368
vt 3.244724 1.349368
vt 2.244724 -0.349368
vt 1.244724 -0.349368
vt 1.257825 -0.349368
vt 2.244724 1.349368
vt 1.257825 1.349368
vn 0.020676 0.000000 -0.999786
vn 0.020676 0.000000 -0.999786
vn 0.020676 0.000000 -0.999786
vn 0.020676 0.000000 -0.999786
vn 0.000000 1.000000 -0.000000
vn 0.000000 1.000000 -0.000000
vn 0.000000 1.000000 -0.000000
vn 0.000000 1.000000 -0.000000
vn -0.020700 0.000000 0.999786
vn -0.020700 0.000000 0.999786
vn -0.020700 0.000000 0.999786
vn -0.020700 0.000000 0.999786
vn 0.000000 -1.000000 0.000000
vn 0.000000 -1.000000 0.000000
vn 0.000000 -1.000000 0.000000
vn 0.000000 -1.000000 0.000000
vn -0.999786 0.000000 -0.020712
vn -0.999786 0.000000 -0.020712
vn -0.999786 0.000000 -0.020712
vn -0.999786 0.000000 -0.020712
vn 0.999786 0.000000 0.020712
vn 0.999786 0.000000 0.020712
vn 0.999786 0.000000 0.020712
vn 0.999786 0.000000 0.020712
s off
g interior5
usemtl lambert14SG
f 1/1/1 2/2/2 4/3/3 3/4/4
f 3/11/5 4/6/6 6/7/7 5/12/8
f 5/12/9 6/5/10 8/9/11 7/10/12
f 7/10/13 8/9/14 2/2/15 1/8/16
f 2/2/17 8/9/18 6/5/19 4/3/20
f 7/10/21 1/8/22 3/11/23 5/12/24
g default
v 6.875157 -0.028995 8.219061
v 6.902637 -0.028995 8.246326
v 6.875157 7.772677 8.219061
v 6.902637 7.772677 8.246326
v 8.199889 7.772677 6.883943
v 8.227369 7.772677 6.911208
v 8.199889 -0.028995 6.883943
v 8.227369 -0.028995 6.911208
vt 0.244724 -0.349368
vt 0.257825 -0.349368
vt 0.257825 1.349368
vt 0.244724 1.349368
vt 1.244724 1.349368
vt 2.257825 1.349368
vt 3.244724 1.349368
vt 2.244724 -0.349368
vt 1.244724 -0.349368
vt 1.257825 -0.349368
vt 2.244724 1.349368
vt 1.257825 1.349368
vn -0.704314 0.000000 0.709888
vn -0.704314 0.000000 0.709888
vn -0.704314 0.000000 0.709888
vn -0.704314 0.000000 0.709888
vn 0.000000 1.000000 0.000000
vn 0.000000 1.000000 0.000000
vn 0.000000 1.000000 0.000000
vn 0.000000 1.000000 0.000000
vn 0.704332 0.000000 -0.709871
vn 0.704332 0.000000 -0.709871
vn 0.704332 0.000000 -0.709871
vn 0.704332 0.000000 -0.709871
vn 0.000000 -1.000000 0.000000
vn 0.000000 -1.000000 0.000000
vn 0.000000 -1.000000 0.000000
vn 0.000000 -1.000000 0.000000
vn 0.709863 0.000000 0.704340
vn 0.709863 0.000000 0.704340
vn 0.709863 0.000000 0.704340
vn 0.709863 0.000000 0.704340
vn -0.709863 0.000000 -0.704340
vn -0.709863 0.000000 -0.704340
vn -0.709863 0.000000 -0.704340
vn -0.709863 0.000000 -0.704340
s off
g interior1
usemtl lambert14SG
f 9/13/25 10/14/26 12/15/27 11/16/28
f 11/23/29 12/18/30 14/19/31 13/24/32
f 13/24/33 14/17/34 16/21/35 15/22/36
f 15/22/37 16/21/38 10/14/39 9/20/40
f 10/14/41 16/21/42 14/17/43 12/15/44
f 15/22/45 9/20/46 11/23/47 13/24/48
g default
v -0.928307 -0.028995 -10.720306
v -0.928498 -0.028995 -10.681596
v -0.928307 7.772677 -10.720306
v -0.928498 7.772677 -10.681596
v 0.952482 7.772677 -10.710946
v 0.952290 7.772677 -10.672236
v 0.952482 -0.028995 -10.710946
v 0.952290 -0.028995 -10.672236
vt 0.244724 -0.349368
vt 0.257825 -0.349368
vt 0.257825 1.349368
vt 0.244724 1.349368
vt 1.244724 1.349368
vt 2.257825 1.349368
vt 3.244724 1.349368
vt 2.244724 -0.349368
vt 1.244724 -0.349368
vt 1.257825 -0.349368
vt 2.244724 1.349368
vt 1.257825 1.349368
vn -0.999988 0.000000 -0.004940
vn -0.999988 0.000000 -0.004940
vn -0.999988 0.000000 -0.004940
vn -0.999988 0.000000 -0.004940
vn -0.000000 1.000000 0.000000
vn -0.000000 1.000000 0.000000
vn -0.000000 1.000000 0.000000
vn -0.000000 1.000000 0.000000
vn 0.999988 0.000000 0.004965
vn 0.999988 0.000000 0.004965
vn 0.999988 0.000000 0.004965
vn 0.999988 0.000000 0.004965
vn 0.000000 -1.000000 0.000000
vn 0.000000 -1.000000 0.000000
vn 0.000000 -1.000000 0.000000
vn 0.000000 -1.000000 0.000000
vn -0.004977 0.000000 0.999988
vn -0.004977 0.000000 0.999988
vn -0.004977 0.000000 0.999988
vn -0.004977 0.000000 0.999988
vn 0.004977 0.000000 -0.999988
vn 0.004977 0.000000 -0.999988
vn 0.004977 0.000000 -0.999988
vn 0.004977 0.000000 -0.999988
s off
g interior3
usemtl lambert14SG
f 17/25/49 18/26/50 20/27/51 19/28/52
f 19/35/53 20/30/54 22/31/55 21/36/56
f 21/36/57 22/29/58 24/33/59 23/34/60
f 23/34/61 24/33/62 18/26/63 17/32/64
f 18/26/65 24/33/66 22/29/67 20/27/68
f 23/34/69 17/32/70 19/35/71 21/36/72
g default
v -8.219662 -0.028995 -7.027852
v -8.191939 -0.028995 -7.000834
v -8.219662 7.772677 -7.027852
v -8.191939 7.772677 -7.000834
v -6.906926 7.772677 -8.374767
v -6.879204 7.772677 -8.347748
v -6.906926 -0.028995 -8.374767
v -6.879204 -0.028995 -8.347748
vt 0.244724 -0.349368
vt 0.257825 -0.349368
vt 0.257825 1.349368
vt 0.244724 1.349368
vt 1.244724 1.349368
vt 2.257825 1.349368
vt 3.244724 1.349368
vt 2.244724 -0.349368
vt 1.244724 -0.349368
vt 1.257825 -0.349368
vt 2.244724 1.349368
vt 1.257825 1.349368
vn -0.697936 0.000000 0.716160
vn -0.697936 0.000000 0.716160
vn -0.697936 0.000000 0.716160
vn -0.697936 0.000000 0.716160
vn 0.000000 1.000000 0.000000
vn 0.000000 1.000000 0.000000
vn 0.000000 1.000000 0.000000
vn 0.000000 1.000000 0.000000
vn 0.697954 0.000000 -0.716143
vn 0.697954 0.000000 -0.716143
vn 0.697954 0.000000 -0.716143
vn 0.697954 0.000000 -0.716143
vn 0.000000 -1.000000 0.000000
vn 0.000000 -1.000000 0.000000
vn 0.000000 -1.000000 0.000000
vn 0.000000 -1.000000 0.000000
vn 0.716135 0.000000 0.697962
vn 0.716135 0.000000 0.697962
vn 0.716135 0.000000 0.697962
vn 0.716135 0.000000 0.697962
vn -0.716135 0.000000 -0.697962
vn -0.716135 0.000000 -0.697962
vn -0.716135 0.000000 -0.697962
vn -0.716135 0.000000 -0.697962
s off
g interior2
usemtl lambert14SG
f 25/37/73 26/38/74 28/39/75 27/40/76
f 27/47/77 28/42/78 30/43/79 29/48/80
f 29/48/81 30/41/82 32/45/83 31/46/84
f 31/46/85 32/45/86 26/38/87 25/44/88
f 26/38/89 32/45/90 30/41/91 28/39/92
f 31/46/93 25/44/94 27/47/95 29/48/96
g default
v -10.756771 -0.028995 -0.848472
v -10.795482 -0.028995 -0.848449
v -10.756771 7.772677 -0.848472
v -10.795482 7.772677 -0.848449
v -10.755725 7.772677 1.032341
v -10.794436 7.772677 1.032363
v -10.755725 -0.028995 1.032341
v -10.794436 -0.028995 1.032363
vt 0.244724 -0.349368
vt 0.257825 -0.349368
vt 0.257825 1.349368
vt 0.244724 1.349368
vt 1.244724 1.349368
vt 2.257825 1.349368
vt 3.244724 1.349368
vt 2.244724 -0.349368
vt 1.244724 -0.349368
vt 1.257825 -0.349368
vt 2.244724 1.349368
vt 1.257825 1.349368
vn -0.000592 0.000000 -1.000000
vn -0.000592 0.000000 -1.000000
vn -0.000592 0.000000 -1.000000
vn -0.000592 0.000000 -1.000000
vn -0.000000 1.000000 0.000000
vn -0.000000 1.000000 0.000000
vn -0.000000 1.000000 0.000000
vn -0.000000 1.000000 0.000000
vn 0.000568 0.000000 1.000000
vn 0.000568 0.000000 1.000000
vn 0.000568 0.000000 1.000000
vn 0.000568 0.000000 1.000000
vn 0.000000 -1.000000 0.000000
vn 0.000000 -1.000000 0.000000
vn 0.000000 -1.000000 0.000000
vn 0.000000 -1.000000 0.000000
vn -1.000000 0.000000 0.000556
vn -1.000000 0.000000 0.000556
vn -1.000000 0.000000 0.000556
vn -1.000000 0.000000 0.000556
vn 1.000000 0.000000 -0.000556
vn 1.000000 0.000000 -0.000556
vn 1.000000 0.000000 -0.000556
vn 1.000000 0.000000 -0.000556
s off
g interior6
usemtl lambert14SG
f 33/49/97 34/50/98 36/51/99 35/52/100
f 35/59/101 36/54/102 38/55/103 37/60/104
f 37/60/105 38/53/106 40/57/107 39/58/108
f 39/58/109 40/57/110 34/50/111 33/56/112
f 34/50/113 40/57/114 38/53/115 36/51/116
f 39/58/117 33/56/118 35/59/119 37/60/120
g default
v 7.060984 -0.028995 -8.218501
v 7.032395 -0.028995 -8.192402
v 7.060984 7.772677 -8.218501
v 7.032395 7.772677 -8.192402
v 8.328999 7.772677 -6.829402
v 8.300409 7.772677 -6.803304
v 8.328999 -0.028995 -6.829402
v 8.300409 -0.028995 -6.803304
vt 0.244724 -0.349368
vt 0.257825 -0.349368
vt 0.257825 1.349368
vt 0.244724 1.349368
vt 1.244724 1.349368
vt 2.257825 1.349368
vt 3.244724 1.349368
vt 2.244724 -0.349368
vt 1.244724 -0.349368
vt 1.257825 -0.349368
vt 2.244724 1.349368
vt 1.257825 1.349368
vn -0.674211 0.000000 -0.738539
vn -0.674211 0.000000 -0.738539
vn -0.674211 0.000000 -0.738539
vn -0.674211 0.000000 -0.738539
vn -0.000000 1.000000 0.000000
vn -0.000000 1.000000 0.000000
vn -0.000000 1.000000 0.000000
vn -0.000000 1.000000 0.000000
vn 0.674193 0.000000 0.738555
vn 0.674193 0.000000 0.738555
vn 0.674193 0.000000 0.738555
vn 0.674193 0.000000 0.738555
vn 0.000000 -1.000000 0.000000
vn 0.000000 -1.000000 0.000000
vn 0.000000 -1.000000 0.000000
vn 0.000000 -1.000000 0.000000
vn -0.738563 0.000000 0.674185
vn -0.738563 0.000000 0.674185
vn -0.738563 0.000000 0.674185
vn -0.738563 0.000000 0.674185
vn 0.738563 0.000000 -0.674185
vn 0.738563 0.000000 -0.674185
vn 0.738563 0.000000 -0.674185
vn 0.738563 0.000000 -0.674185
s off
g interior4
usemtl lambert14SG
f 41/61/121 42/62/122 44/63/123 43/64/124
f 43/71/125 44/66/126 46/67/127 45/72/128
f 45/72/129 46/65/130 48/69/131 47/70/132
f 47/70/133 48/69/134 42/62/135 41/68/136
f 42/62/137 48/69/138 46/65/139 44/63/140
f 47/70/141 41/68/142 43/71/143 45/72/144
