# This file uses centimeters as units for non-parametric coordinates.

mtllib techo.mtl
g default
v 9.535518 8.692167 -9.535518
v -0.000000 8.692167 -13.485258
v -9.535518 8.692167 -9.535518
v -13.485258 8.692167 -0.000000
v -9.535518 8.692167 9.535518
v -0.000000 8.692167 13.485259
v 9.535519 8.692167 9.535519
v 13.485260 8.692167 -0.000000
v 9.535518 8.870954 -9.535518
v -0.000000 8.870954 -13.485258
v -9.535518 8.870954 -9.535518
v -13.485258 8.870954 -0.000000
v -9.535518 8.870954 9.535518
v -0.000000 8.870954 13.485259
v 9.535519 8.870954 9.535519
v 13.485260 8.870954 -0.000000
v -0.000000 8.692167 -0.000000
v -0.000000 8.870954 -0.000000
v 9.446827 8.453252 -9.446827
v -0.000000 8.453252 -13.359831
v -9.446827 8.453252 -9.446827
v -13.359831 8.453252 -0.000000
v -9.446827 8.453252 9.446827
v -0.000000 8.453252 13.359832
v 9.446828 8.453252 9.446828
v 13.359833 8.453252 -0.000000
v 9.446827 9.109869 -9.446827
v -0.000000 9.109869 -13.359831
v -9.446827 9.109869 -9.446827
v -13.359831 9.109869 -0.000000
v -9.446827 9.109869 9.446827
v -0.000000 9.109869 13.359832
v 9.446828 9.109869 9.446828
v 13.359833 9.109869 -0.000000
v -0.000000 8.453252 -0.000000
v -0.000000 9.109869 -0.000000
v 9.250736 7.847728 -9.250736
v -0.000000 7.847728 -13.082516
v -9.250736 7.847728 -9.250736
v -13.082516 7.847728 -0.000000
v -9.250736 7.847728 9.250736
v -0.000000 7.847728 13.082517
v 9.250737 7.847728 9.250737
v 13.082518 7.847728 -0.000000
v 9.250736 9.460979 -9.250736
v -0.000000 9.460979 -13.082516
v -9.250736 9.460979 -9.250736
v -13.082516 9.460979 -0.000000
v -9.250736 9.460979 9.250736
v -0.000000 9.460979 13.082517
v 9.250737 9.460979 9.250737
v 13.082518 9.460979 -0.000000
v -0.000000 7.847728 -0.000000
v 0.000000 9.460979 0.000000
vt -18.087320 0.421557
vt -18.087320 0.578443
vt -13.440342 0.421557
vt -13.440342 0.578443
vt -8.793365 0.421557
vt -8.793365 0.578443
vt -4.146387 0.421557
vt -4.146387 0.578443
vt -8.115210 0.457539
vt -8.115210 0.596148
vt -5.961339 0.457539
vt -5.961339 0.596148
vt -3.807468 0.457539
vt -3.807468 0.596148
vt -1.653597 0.457539
vt -1.653597 0.596148
vt 0.500274 0.457539
vt 0.500274 0.596148
vt 2.654145 0.596148
vt -5.078972 -3.931220
vt -5.078972 4.931228
vt 1.786452 2.120963
vt 0.544711 2.635309
vt -8.115210 0.326286
vt -0.697031 2.120963
vt -8.115210 0.673715
vt -1.211377 0.879222
vt -0.697031 -0.362519
vt -5.961339 0.326286
vt 0.544711 -0.876865
vt -5.961339 0.673714
vt 1.786452 -0.362519
vt -3.807468 0.326286
vt 2.300798 0.879222
vt -3.807468 0.673715
vt 0.544711 0.879222
vt -1.653597 0.326286
vt -1.653597 0.673715
vt 0.500274 0.326286
vt 0.500274 0.673715
vt 2.654145 0.326286
vt 2.654145 0.673715
vt 4.808016 0.326286
vt 1.201837 1.201837
vt 9.115759 0.457539
vt 6.961887 0.457539
vt 12.151997 -3.931220
vt 2.654145 0.457539
vt 4.808016 0.457539
vt 9.115759 0.596148
vt 4.808016 0.596148
vt 19.885113 0.596148
vt 6.961887 0.596148
vt 12.151997 4.931228
vt 6.961887 0.326286
vt 9.115759 0.326286
vt 9.115759 0.673715
vt 4.808016 0.673715
vt 0.500000 1.492547
vt 6.961887 0.673715
vt 0.500000 0.500000
vt -0.201837 1.201837
vt -0.492547 0.500000
vt -0.201837 -0.201837
vt 0.500000 -0.492547
vt 1.201837 -0.201837
vt 1.492547 0.500000
vt 0.500591 0.421557
vt 0.500591 0.578443
vt 5.147569 0.578443
vt -11.536635 -18.087770
vt -11.536635 19.087770
vt 19.088503 0.421557
vt 14.441525 0.421557
vt 25.639187 -18.087770
vt 5.147569 0.421557
vt 9.794548 0.421557
vt 19.088503 0.578443
vt 9.794548 0.578443
vt 42.323391 0.578443
vt 14.441525 0.578443
vt 25.639187 19.087770
vn 0.382682 0.000000 -0.923880
vn 0.382682 0.000000 -0.923880
vn 0.382682 0.000000 -0.923880
vn 0.382682 0.000000 -0.923880
vn -0.382682 0.000000 -0.923880
vn -0.382682 0.000000 -0.923880
vn -0.382682 0.000000 -0.923880
vn -0.382682 0.000000 -0.923880
vn -0.923880 0.000000 -0.382683
vn -0.923880 0.000000 -0.382683
vn -0.923880 0.000000 -0.382683
vn -0.923880 0.000000 -0.382683
vn -0.923880 0.000000 0.382683
vn -0.923880 0.000000 0.382683
vn -0.923880 0.000000 0.382683
vn -0.923880 0.000000 0.382683
vn -0.382683 0.000000 0.923880
vn -0.382683 0.000000 0.923880
vn -0.382683 0.000000 0.923880
vn -0.382683 0.000000 0.923880
vn 0.382682 0.000000 0.923880
vn 0.382682 0.000000 0.923880
vn 0.382682 0.000000 0.923880
vn 0.382682 0.000000 0.923880
vn 0.923879 0.000000 0.382684
vn 0.923879 0.000000 0.382684
vn 0.923879 0.000000 0.382684
vn 0.923879 0.000000 0.382684
vn 0.923879 0.000000 -0.382684
vn 0.923879 0.000000 -0.382684
vn 0.923879 0.000000 -0.382684
vn 0.923879 0.000000 -0.382684
vn 0.000000 -1.000000 0.000000
vn 0.000000 -1.000000 0.000000
vn 0.000000 -1.000000 0.000000
vn 0.000000 -1.000000 0.000000
vn 0.000000 -1.000000 0.000000
vn 0.000000 -1.000000 0.000000
vn 0.000000 -1.000000 0.000000
vn 0.000000 -1.000000 0.000000
vn 0.000000 -1.000000 0.000000
vn 0.000000 -1.000000 0.000000
vn 0.000000 -1.000000 0.000000
vn 0.000000 -1.000000 0.000000
vn 0.000000 -1.000000 0.000000
vn 0.000000 -1.000000 0.000000
vn 0.000000 -1.000000 0.000000
vn 0.000000 -1.000000 0.000000
vn 0.000000 -1.000000 0.000000
vn 0.000000 -1.000000 0.000000
vn 0.000000 -1.000000 0.000000
vn 0.000000 -1.000000 0.000000
vn 0.000000 -1.000000 0.000000
vn 0.000000 -1.000000 0.000000
vn 0.000000 -1.000000 0.000000
vn 0.000000 -1.000000 0.000000
vn 0.000000 1.000000 0.000000
vn 0.000000 1.000000 0.000000
vn 0.000000 1.000000 0.000000
vn 0.000000 1.000000 0.000000
vn 0.000000 1.000000 0.000000
vn 0.000000 1.000000 0.000000
vn 0.000000 1.000000 0.000000
vn 0.000000 1.000000 0.000000
vn 0.000000 1.000000 0.000000
vn 0.000000 1.000000 0.000000
vn 0.000000 1.000000 0.000000
vn 0.000000 1.000000 0.000000
vn 0.000000 1.000000 0.000000
vn 0.000000 1.000000 0.000000
vn 0.000000 1.000000 0.000000
vn 0.000000 1.000000 0.000000
vn 0.000000 1.000000 0.000000
vn 0.000000 1.000000 0.000000
vn 0.000000 1.000000 0.000000
vn 0.000000 1.000000 0.000000
vn 0.000000 1.000000 0.000000
vn 0.000000 1.000000 0.000000
vn 0.000000 1.000000 0.000000
vn 0.000000 1.000000 0.000000
vn 0.382683 0.000000 -0.923880
vn 0.382683 0.000000 -0.923880
vn 0.382683 0.000000 -0.923880
vn 0.382683 0.000000 -0.923880
vn -0.382683 0.000000 -0.923880
vn -0.382683 0.000000 -0.923880
vn -0.382683 0.000000 -0.923880
vn -0.382683 0.000000 -0.923880
vn -0.923880 0.000000 -0.382683
vn -0.923880 0.000000 -0.382683
vn -0.923880 0.000000 -0.382683
vn -0.923880 0.000000 -0.382683
vn -0.923880 0.000000 0.382683
vn -0.923880 0.000000 0.382683
vn -0.923880 0.000000 0.382683
vn -0.923880 0.000000 0.382683
vn -0.382684 0.000000 0.923879
vn -0.382684 0.000000 0.923879
vn -0.382684 0.000000 0.923879
vn -0.382684 0.000000 0.923879
vn 0.382683 0.000000 0.923880
vn 0.382683 0.000000 0.923880
vn 0.382683 0.000000 0.923880
vn 0.382683 0.000000 0.923880
vn 0.923880 0.000000 0.382683
vn 0.923880 0.000000 0.382683
vn 0.923880 0.000000 0.382683
vn 0.923880 0.000000 0.382683
vn 0.923879 0.000000 -0.382684
vn 0.923879 0.000000 -0.382684
vn 0.923879 0.000000 -0.382684
vn 0.923879 0.000000 -0.382684
vn 0.000000 -1.000000 0.000000
vn 0.000000 -1.000000 0.000000
vn 0.000000 -1.000000 0.000000
vn 0.000000 -1.000000 0.000000
vn 0.000000 -1.000000 0.000000
vn 0.000000 -1.000000 0.000000
vn 0.000000 -1.000000 0.000000
vn 0.000000 -1.000000 0.000000
vn 0.000000 -1.000000 0.000000
vn 0.000000 -1.000000 0.000000
vn 0.000000 -1.000000 0.000000
vn 0.000000 -1.000000 0.000000
vn 0.000000 -1.000000 0.000000
vn 0.000000 -1.000000 0.000000
vn 0.000000 -1.000000 0.000000
vn 0.000000 -1.000000 0.000000
vn 0.000000 -1.000000 0.000000
vn 0.000000 -1.000000 0.000000
vn 0.000000 -1.000000 0.000000
vn 0.000000 -1.000000 0.000000
vn 0.000000 -1.000000 0.000000
vn 0.000000 -1.000000 0.000000
vn 0.000000 -1.000000 0.000000
vn 0.000000 -1.000000 0.000000
vn 0.000000 1.000000 0.000000
vn 0.000000 1.000000 0.000000
vn 0.000000 1.000000 0.000000
vn 0.000000 1.000000 0.000000
vn 0.000000 1.000000 0.000000
vn 0.000000 1.000000 0.000000
vn 0.000000 1.000000 0.000000
vn 0.000000 1.000000 0.000000
vn 0.000000 1.000000 0.000000
vn 0.000000 1.000000 0.000000
vn 0.000000 1.000000 0.000000
vn 0.000000 1.000000 0.000000
vn 0.000000 1.000000 0.000000
vn 0.000000 1.000000 0.000000
vn 0.000000 1.000000 0.000000
vn 0.000000 1.000000 0.000000
vn 0.000000 1.000000 0.000000
vn 0.000000 1.000000 0.000000
vn 0.000000 1.000000 0.000000
vn 0.000000 1.000000 0.000000
vn 0.000000 1.000000 0.000000
vn 0.000000 1.000000 0.000000
vn 0.000000 1.000000 0.000000
vn 0.000000 1.000000 0.000000
vn 0.382683 0.000000 -0.923880
vn 0.382683 0.000000 -0.923880
vn 0.382683 0.000000 -0.923880
vn 0.382683 0.000000 -0.923880
vn -0.382683 0.000000 -0.923880
vn -0.382683 0.000000 -0.923880
vn -0.382683 0.000000 -0.923880
vn -0.382683 0.000000 -0.923880
vn -0.923880 0.000000 -0.382683
vn -0.923880 0.000000 -0.382683
vn -0.923880 0.000000 -0.382683
vn -0.923880 0.000000 -0.382683
vn -0.923880 0.000000 0.382683
vn -0.923880 0.000000 0.382683
vn -0.923880 0.000000 0.382683
vn -0.923880 0.000000 0.382683
vn -0.382684 0.000000 0.923879
vn -0.382684 0.000000 0.923879
vn -0.382684 0.000000 0.923879
vn -0.382684 0.000000 0.923879
vn 0.382683 0.000000 0.923880
vn 0.382683 0.000000 0.923880
vn 0.382683 0.000000 0.923880
vn 0.382683 0.000000 0.923880
vn 0.923880 0.000000 0.382683
vn 0.923880 0.000000 0.382683
vn 0.923880 0.000000 0.382683
vn 0.923880 0.000000 0.382683
vn 0.923879 0.000000 -0.382684
vn 0.923879 0.000000 -0.382684
vn 0.923879 0.000000 -0.382684
vn 0.923879 0.000000 -0.382684
vn 0.000000 -1.000000 0.000000
vn 0.000000 -1.000000 0.000000
vn 0.000000 -1.000000 0.000000
vn 0.000000 -1.000000 0.000000
vn 0.000000 -1.000000 0.000000
vn 0.000000 -1.000000 0.000000
vn 0.000000 -1.000000 0.000000
vn 0.000000 -1.000000 0.000000
vn 0.000000 -1.000000 0.000000
vn 0.000000 -1.000000 0.000000
vn 0.000000 -1.000000 0.000000
vn 0.000000 -1.000000 0.000000
vn 0.000000 -1.000000 0.000000
vn 0.000000 -1.000000 0.000000
vn 0.000000 -1.000000 0.000000
vn 0.000000 -1.000000 0.000000
vn 0.000000 -1.000000 0.000000
vn 0.000000 -1.000000 0.000000
vn 0.000000 -1.000000 0.000000
vn 0.000000 -1.000000 0.000000
vn 0.000000 -1.000000 0.000000
vn 0.000000 -1.000000 0.000000
vn 0.000000 -1.000000 0.000000
vn 0.000000 -1.000000 0.000000
vn 0.000000 1.000000 0.000000
vn 0.000000 1.000000 0.000000
vn 0.000000 1.000000 0.000000
vn 0.000000 1.000000 0.000000
vn 0.000000 1.000000 0.000000
vn 0.000000 1.000000 0.000000
vn 0.000000 1.000000 0.000000
vn 0.000000 1.000000 0.000000
vn 0.000000 1.000000 0.000000
vn 0.000000 1.000000 0.000000
vn 0.000000 1.000000 0.000000
vn 0.000000 1.000000 0.000000
vn 0.000000 1.000000 0.000000
vn 0.000000 1.000000 0.000000
vn 0.000000 1.000000 0.000000
vn 0.000000 1.000000 0.000000
vn 0.000000 1.000000 0.000000
vn 0.000000 1.000000 0.000000
vn 0.000000 1.000000 0.000000
vn 0.000000 1.000000 0.000000
vn 0.000000 1.000000 0.000000
vn 0.000000 1.000000 0.000000
vn 0.000000 1.000000 0.000000
vn 0.000000 1.000000 0.000000
s off
g techo
usemtl casa:lambert7SG
f 1/74/1 2/73/2 10/78/3 9/81/4
f 2/1/5 3/3/6 11/4/7 10/2/8
f 3/3/9 4/5/10 12/6/11 11/4/12
f 4/5/13 5/7/14 13/8/15 12/6/16
f 5/7/17 6/68/18 14/69/19 13/8/20
f 6/68/21 7/76/22 15/70/23 14/69/24
f 7/76/25 8/77/26 16/79/27 15/70/28
f 8/77/29 1/74/30 9/81/31 16/79/32
f 2/73/33 1/74/34 17/75/35
f 3/3/36 2/1/37 17/71/38
f 4/5/39 3/3/40 17/71/41
f 5/7/42 4/5/43 17/71/44
f 6/68/45 5/7/46 17/71/47
f 7/76/48 6/68/49 17/71/50
f 8/77/51 7/76/52 17/75/53
f 1/74/54 8/77/55 17/75/56
f 9/81/57 10/78/58 18/82/59
f 10/2/60 11/4/61 18/72/62
f 11/4/63 12/6/64 18/72/65
f 12/6/66 13/8/67 18/72/68
f 13/8/69 14/69/70 18/72/71
f 14/69/72 15/70/73 18/72/74
f 15/80/75 16/79/76 18/82/77
f 16/79/78 9/81/79 18/82/80
usemtl casa:lambert3SG
f 19/46/81 20/45/82 28/50/83 27/53/84
f 20/9/85 21/11/86 29/12/87 28/10/88
f 21/11/89 22/13/90 30/14/91 29/12/92
f 22/13/93 23/15/94 31/16/95 30/14/96
f 23/15/97 24/17/98 32/18/99 31/16/100
f 24/17/101 25/48/102 33/19/103 32/18/104
f 25/48/105 26/49/106 34/51/107 33/19/108
f 26/49/109 19/46/110 27/53/111 34/51/112
f 20/45/113 19/46/114 35/47/115
f 21/11/116 20/9/117 35/20/118
f 22/13/119 21/11/120 35/20/121
f 23/15/122 22/13/123 35/20/124
f 24/17/125 23/15/126 35/20/127
f 25/48/128 24/17/129 35/20/130
f 26/49/131 25/48/132 35/47/133
f 19/46/134 26/49/135 35/47/136
f 27/53/137 28/50/138 36/54/139
f 28/10/140 29/12/141 36/21/142
f 29/12/143 30/14/144 36/21/145
f 30/14/146 31/16/147 36/21/148
f 31/16/149 32/18/150 36/21/151
f 32/18/152 33/19/153 36/21/154
f 33/52/155 34/51/156 36/54/157
f 34/51/158 27/53/159 36/54/160
f 37/55/161 38/56/162 46/57/163 45/60/164
f 38/24/165 39/29/166 47/31/167 46/26/168
f 39/29/169 40/33/170 48/35/171 47/31/172
f 40/33/173 41/37/174 49/38/175 48/35/176
f 41/37/177 42/39/178 50/40/179 49/38/180
f 42/39/181 43/41/182 51/42/183 50/40/184
f 43/41/185 44/43/186 52/58/187 51/42/188
f 44/43/189 37/55/190 45/60/191 52/58/192
f 38/23/193 37/22/194 53/36/195
f 39/25/196 38/23/197 53/36/198
f 40/27/199 39/25/200 53/36/201
f 41/28/202 40/27/203 53/36/204
f 42/30/205 41/28/206 53/36/207
f 43/32/208 42/30/209 53/36/210
f 44/34/211 43/32/212 53/36/213
f 37/22/214 44/34/215 53/36/216
f 45/44/217 46/59/218 54/61/219
f 46/59/220 47/62/221 54/61/222
f 47/62/223 48/63/224 54/61/225
f 48/63/226 49/64/227 54/61/228
f 49/64/229 50/65/230 54/61/231
f 50/65/232 51/66/233 54/61/234
f 51/66/235 52/67/236 54/61/237
f 52/67/238 45/44/239 54/61/240
