# This file uses centimeters as units for non-parametric coordinates.

mtllib hojasFlotantes.mtl
g default
v -1.886457 4.476235 3.329985
v -3.724038 4.476235 3.273960
v -3.776972 4.476235 5.010156
v -1.939391 4.476235 5.066180
vt 0.000000 0.000000
vt 1.000000 0.000000
vt 0.000000 1.000000
vt 1.000000 1.000000
vn 0.000000 1.000000 -0.000000
vn 0.000000 1.000000 0.000000
vn 0.000000 1.000000 0.000000
vn 0.000000 1.000000 0.000000
vn 0.000000 -1.000000 0.000000
vn 0.000000 -1.000000 0.000000
vn 0.000000 -1.000000 0.000000
vn 0.000000 -1.000000 0.000000
s 1
g polySurface91 pasted__polySurface148
usemtl pasted__phong5SG
f 1/1/1 2/2/2 4/3/3
s 2
f 4/3/3 2/2/2 3/4/4
f 1/1/5 4/3/6 2/2/7
s 1
f 2/2/7 4/3/6 3/4/8
g default
v -2.742239 4.476235 -0.391028
v -4.579820 4.476235 -0.447048
v -4.632754 4.476235 1.289143
v -2.795173 4.476235 1.345172
vt 0.000000 0.000000
vt 1.000000 0.000000
vt 0.000000 1.000000
vt 1.000000 1.000000
vn 0.000000 1.000000 -0.000000
vn 0.000000 1.000000 0.000000
vn 0.000000 1.000000 0.000000
vn 0.000000 1.000000 0.000000
vn 0.000000 -1.000000 0.000000
vn 0.000000 -1.000000 0.000000
vn 0.000000 -1.000000 0.000000
vn 0.000000 -1.000000 0.000000
s 1
g pasted__polySurface148 polySurface99
usemtl pasted__phong5SG
f 5/5/9 6/6/10 8/7/11
s 2
f 8/7/11 6/6/10 7/8/12
f 5/5/13 8/7/14 6/6/15
s 1
f 6/6/15 8/7/14 7/8/16
g default
v 0.522303 4.476235 1.498922
v 0.825490 4.476235 -0.314341
v -0.887728 4.476235 -0.600802
v -1.190917 4.476235 1.212461
vt 0.000000 0.000000
vt 1.000000 0.000000
vt 0.000000 1.000000
vt 1.000000 1.000000
vn 0.000000 1.000000 0.000000
vn 0.000000 1.000000 0.000000
vn 0.000000 1.000000 0.000000
vn 0.000000 1.000000 0.000000
vn 0.000000 -1.000000 0.000000
vn 0.000000 -1.000000 0.000000
vn 0.000000 -1.000000 0.000000
vn 0.000000 -1.000000 0.000000
s 1
g pasted__polySurface148 polySurface93
usemtl pasted__phong5SG
f 9/9/17 10/10/18 12/11/19
s 2
f 12/11/19 10/10/18 11/12/20
f 9/9/21 12/11/22 10/10/23
s 1
f 10/10/23 12/11/22 11/12/24
g default
v 3.778412 4.476235 -2.318280
v 2.314045 4.476235 -1.206762
v 3.364235 4.476235 0.176810
v 4.828603 4.476235 -0.934708
vt 0.000000 0.000000
vt 1.000000 0.000000
vt 0.000000 1.000000
vt 1.000000 1.000000
vn 0.000000 1.000000 0.000000
vn 0.000000 1.000000 0.000000
vn 0.000000 1.000000 0.000000
vn 0.000000 1.000000 0.000000
vn 0.000000 -1.000000 0.000000
vn 0.000000 -1.000000 0.000000
vn 0.000000 -1.000000 0.000000
vn 0.000000 -1.000000 0.000000
s 1
g pasted__polySurface148 polySurface113
usemtl pasted__phong5SG
f 13/13/25 14/14/26 16/15/27
s 2
f 16/15/27 14/14/26 15/16/28
f 13/13/29 16/15/30 14/14/31
s 1
f 14/14/31 16/15/30 15/16/32
g default
v 1.352380 4.476235 5.303123
v 2.649530 4.476235 6.605907
v 3.880436 4.476235 5.380328
v 2.583289 4.476235 4.077540
vt 0.000000 0.000000
vt 1.000000 0.000000
vt 0.000000 1.000000
vt 1.000000 1.000000
vn 0.000000 1.000000 0.000000
vn 0.000000 1.000000 0.000000
vn 0.000000 1.000000 0.000000
vn 0.000000 1.000000 0.000000
vn 0.000000 -1.000000 0.000000
vn 0.000000 -1.000000 0.000000
vn 0.000000 -1.000000 0.000000
vn 0.000000 -1.000000 0.000000
s 1
g pasted__polySurface148 polySurface101
usemtl pasted__phong5SG
f 17/17/33 18/18/34 20/19/35
s 2
f 20/19/35 18/18/34 19/20/36
f 17/17/37 20/19/38 18/18/39
s 1
f 18/18/39 20/19/38 19/20/40
