# This file uses centimeters as units for non-parametric coordinates.

mtllib vegetacion.mtl
g default
v -1.525225 2.049790 -6.055559
v -3.776776 2.049790 -3.803998
v -1.525225 7.956776 -6.055559
v -3.776776 7.956776 -3.803998
vt 1.000000 0.000000
vt 1.000000 1.000000
vt 0.000000 0.000000
vt 0.000000 1.000000
vn -0.707107 0.000000 -0.707107
vn -0.707107 0.000000 -0.707107
vn -0.707107 0.000000 -0.707107
vn -0.707107 0.000000 -0.707107
s 1
g polySurface106 pasted__polySurface148
usemtl pasted__phong3SG5
f 2/1/1 4/2/2 1/3/3
f 1/3/3 4/2/2 3/4/4
g default
v -3.776776 2.049790 -6.055559
v -1.525225 2.049790 -3.803998
v -3.776776 7.956776 -6.055559
v -1.525225 7.956776 -3.803998
vt 1.000000 0.000000
vt 1.000000 1.000000
vt 0.000000 0.000000
vt 0.000000 1.000000
vn -0.707107 0.000000 0.707107
vn -0.707107 0.000000 0.707107
vn -0.707107 0.000000 0.707107
vn -0.707107 0.000000 0.707107
s 1
g pasted__polySurface148 polySurface84
usemtl pasted__phong3SG5
f 6/5/5 8/6/6 5/7/7
f 5/7/7 8/6/6 7/8/8
g default
v -1.022928 2.049790 -4.335391
v -3.274480 2.049790 -2.083830
v -1.022928 7.956776 -4.335391
v -3.274480 7.956776 -2.083830
vt 1.000000 0.000000
vt 1.000000 1.000000
vt 0.000000 0.000000
vt 0.000000 1.000000
vn -0.707107 0.000000 -0.707107
vn -0.707107 0.000000 -0.707107
vn -0.707107 0.000000 -0.707107
vn -0.707107 0.000000 -0.707107
s 1
g pasted__polySurface148 polySurface102
usemtl pasted__phong3SG5
f 10/9/9 12/10/10 9/11/11
f 9/11/11 12/10/10 11/12/12
g default
v 0.888852 2.049790 -6.055559
v -1.362699 2.049790 -3.803998
v 0.888852 7.956776 -6.055559
v -1.362699 7.956776 -3.803998
vt 1.000000 0.000000
vt 1.000000 1.000000
vt 0.000000 0.000000
vt 0.000000 1.000000
vn -0.707107 0.000000 -0.707107
vn -0.707107 0.000000 -0.707107
vn -0.707107 0.000000 -0.707107
vn -0.707107 0.000000 -0.707107
s 1
g pasted__polySurface148 polySurface114
usemtl pasted__phong3SG5
f 14/13/13 16/14/14 13/15/15
f 13/15/15 16/14/14 15/16/16
g default
v -2.407665 2.049790 -3.209610
v 0.776510 2.049790 -3.209610
v -2.407665 7.956776 -3.209610
v 0.776510 7.956776 -3.209610
vt 1.000000 0.000000
vt 1.000000 1.000000
vt 0.000000 0.000000
vt 0.000000 1.000000
vn 0.000000 0.000000 1.000000
vn 0.000000 0.000000 1.000000
vn 0.000000 0.000000 1.000000
vn 0.000000 0.000000 1.000000
s 1
g pasted__polySurface148 polySurface97
usemtl pasted__phong3SG5
f 18/17/17 20/18/18 17/19/19
f 17/19/19 20/18/18 19/20/20
g default
v -1.829011 2.049790 -4.929779
v 1.355164 2.049790 -4.929779
v -1.829011 7.956776 -4.929779
v 1.355164 7.956776 -4.929779
vt 1.000000 0.000000
vt 1.000000 1.000000
vt 0.000000 0.000000
vt 0.000000 1.000000
vn 0.000000 0.000000 1.000000
vn 0.000000 0.000000 1.000000
vn 0.000000 0.000000 1.000000
vn 0.000000 0.000000 1.000000
s 1
g pasted__polySurface148 polySurface92
usemtl pasted__phong3SG5
f 22/21/21 24/22/22 21/23/23
f 21/23/23 24/22/22 23/24/24
g default
v 0.310198 2.049790 -4.335391
v -1.941353 2.049790 -2.083830
v 0.310198 7.956776 -4.335391
v -1.941353 7.956776 -2.083830
vt 1.000000 0.000000
vt 1.000000 1.000000
vt 0.000000 0.000000
vt 0.000000 1.000000
vn -0.707107 0.000000 -0.707107
vn -0.707107 0.000000 -0.707107
vn -0.707107 0.000000 -0.707107
vn -0.707107 0.000000 -0.707107
s 1
g pasted__polySurface148 polySurface108
usemtl pasted__phong3SG5
f 26/25/25 28/26/26 25/27/27
f 25/27/27 28/26/26 27/28/28
g default
v -3.740792 2.049790 -3.209610
v -0.556616 2.049790 -3.209610
v -3.740792 7.956776 -3.209610
v -0.556616 7.956776 -3.209610
vt 1.000000 0.000000
vt 1.000000 1.000000
vt 0.000000 0.000000
vt 0.000000 1.000000
vn 0.000000 0.000000 1.000000
vn 0.000000 0.000000 1.000000
vn 0.000000 0.000000 1.000000
vn 0.000000 0.000000 1.000000
s 1
g pasted__polySurface148 polySurface109
usemtl pasted__phong3SG5
f 30/29/29 32/30/30 29/31/31
f 29/31/31 32/30/30 31/32/32
g default
v -4.243088 2.049790 -4.929779
v -1.058913 2.049790 -4.929779
v -4.243088 7.956776 -4.929779
v -1.058913 7.956776 -4.929779
vt 1.000000 0.000000
vt 1.000000 1.000000
vt 0.000000 0.000000
vt 0.000000 1.000000
vn 0.000000 0.000000 1.000000
vn 0.000000 0.000000 1.000000
vn 0.000000 0.000000 1.000000
vn 0.000000 0.000000 1.000000
s 1
g pasted__polySurface148 polySurface107
usemtl pasted__phong3SG5
f 34/33/33 36/34/34 33/35/35
f 33/35/35 36/34/34 35/36/36
g default
v -3.274480 2.049790 -4.335391
v -1.022928 2.049790 -2.083830
v -3.274480 7.956776 -4.335391
v -1.022928 7.956776 -2.083830
vt 1.000000 0.000000
vt 1.000000 1.000000
vt 0.000000 0.000000
vt 0.000000 1.000000
vn -0.707107 0.000000 0.707107
vn -0.707107 0.000000 0.707107
vn -0.707107 0.000000 0.707107
vn -0.707107 0.000000 0.707107
s 1
g pasted__polySurface148 polySurface118
usemtl pasted__phong3SG5
f 38/37/37 40/38/38 37/39/39
f 37/39/39 40/38/38 39/40/40
g default
v -1.362699 2.049790 -6.055559
v 0.888852 2.049790 -3.803998
v -1.362699 7.956776 -6.055559
v 0.888852 7.956776 -3.803998
vt 1.000000 0.000000
vt 1.000000 1.000000
vt 0.000000 0.000000
vt 0.000000 1.000000
vn -0.707107 0.000000 0.707107
vn -0.707107 0.000000 0.707107
vn -0.707107 0.000000 0.707107
vn -0.707107 0.000000 0.707107
s 1
g pasted__polySurface148 polySurface105
usemtl pasted__phong3SG5
f 42/41/41 44/42/42 41/43/43
f 41/43/43 44/42/42 43/44/44
g default
v -2.148704 2.049790 -1.617522
v -2.148704 2.049790 -4.801699
v -2.148704 7.956776 -1.617522
v -2.148704 7.956776 -4.801699
vt 1.000000 0.000000
vt 1.000000 1.000000
vt 0.000000 0.000000
vt 0.000000 1.000000
vn 1.000000 0.000000 0.000000
vn 1.000000 0.000000 0.000000
vn 1.000000 0.000000 0.000000
vn 1.000000 0.000000 0.000000
s 1
g pasted__polySurface148 polySurface95
usemtl pasted__phong3SG5
f 46/45/45 48/46/46 45/47/47
f 45/47/47 48/46/46 47/48/48
g default
v -2.651001 2.049790 -3.337690
v -2.651001 2.049790 -6.521867
v -2.651001 7.956776 -3.337690
v -2.651001 7.956776 -6.521867
vt 1.000000 0.000000
vt 1.000000 1.000000
vt 0.000000 0.000000
vt 0.000000 1.000000
vn 1.000000 0.000000 0.000000
vn 1.000000 0.000000 0.000000
vn 1.000000 0.000000 0.000000
vn 1.000000 0.000000 0.000000
s 1
g pasted__polySurface148 polySurface104
usemtl pasted__phong3SG5
f 50/49/49 52/50/50 49/51/51
f 49/51/51 52/50/50 51/52/52
g default
v -0.236923 2.049790 -3.337690
v -0.236923 2.049790 -6.521867
v -0.236923 7.956776 -3.337690
v -0.236923 7.956776 -6.521867
vt 1.000000 0.000000
vt 1.000000 1.000000
vt 0.000000 0.000000
vt 0.000000 1.000000
vn 1.000000 0.000000 0.000000
vn 1.000000 0.000000 0.000000
vn 1.000000 0.000000 0.000000
vn 1.000000 0.000000 0.000000
s 1
g pasted__polySurface148 polySurface86
usemtl pasted__phong3SG5
f 54/53/53 56/54/54 53/55/55
f 53/55/55 56/54/54 55/56/56
g default
v -1.941353 2.049790 -4.335391
v 0.310198 2.049790 -2.083830
v -1.941353 7.956776 -4.335391
v 0.310198 7.956776 -2.083830
vt 1.000000 0.000000
vt 1.000000 1.000000
vt 0.000000 0.000000
vt 0.000000 1.000000
vn -0.707107 0.000000 0.707107
vn -0.707107 0.000000 0.707107
vn -0.707107 0.000000 0.707107
vn -0.707107 0.000000 0.707107
s 1
g pasted__polySurface148 polySurface116
usemtl pasted__phong3SG5
f 58/57/57 60/58/58 57/59/59
f 57/59/59 60/58/58 59/60/60
g default
v -0.815578 2.049790 -1.617522
v -0.815578 2.049790 -4.801699
v -0.815578 7.956776 -1.617522
v -0.815578 7.956776 -4.801699
vt 1.000000 0.000000
vt 1.000000 1.000000
vt 0.000000 0.000000
vt 0.000000 1.000000
vn 1.000000 0.000000 0.000000
vn 1.000000 0.000000 0.000000
vn 1.000000 0.000000 0.000000
vn 1.000000 0.000000 0.000000
s 1
g pasted__polySurface148 polySurface117
usemtl pasted__phong3SG5
f 62/61/61 64/62/62 61/63/63
f 61/63/63 64/62/62 63/64/64
g default
v 0.522303 4.476235 1.498922
v 0.825490 4.476235 -0.314341
v -0.887728 4.476235 -0.600802
v -1.190917 4.476235 1.212461
vt 0.000000 0.000000
vt 1.000000 0.000000
vt 0.000000 1.000000
vt 1.000000 1.000000
vn 0.000000 1.000000 0.000000
vn 0.000000 1.000000 0.000000
vn 0.000000 1.000000 0.000000
vn 0.000000 1.000000 0.000000
vn 0.000000 -1.000000 0.000000
vn 0.000000 -1.000000 0.000000
vn 0.000000 -1.000000 0.000000
vn 0.000000 -1.000000 0.000000
s 1
g pasted__polySurface148 polySurface93
usemtl pasted__phong5SG
f 65/65/65 66/66/66 68/67/67
s 2
f 68/67/67 66/66/66 67/68/68
f 65/65/69 68/67/70 66/66/71
s 1
f 66/66/71 68/67/70 67/68/72
g default
v 3.778412 4.476235 -2.318280
v 2.314045 4.476235 -1.206762
v 3.364235 4.476235 0.176810
v 4.828603 4.476235 -0.934708
vt 0.000000 0.000000
vt 1.000000 0.000000
vt 0.000000 1.000000
vt 1.000000 1.000000
vn 0.000000 1.000000 0.000000
vn 0.000000 1.000000 0.000000
vn 0.000000 1.000000 0.000000
vn 0.000000 1.000000 0.000000
vn 0.000000 -1.000000 0.000000
vn 0.000000 -1.000000 0.000000
vn 0.000000 -1.000000 0.000000
vn 0.000000 -1.000000 0.000000
s 1
g pasted__polySurface148 polySurface113
usemtl pasted__phong5SG
f 69/69/73 70/70/74 72/71/75
s 2
f 72/71/75 70/70/74 71/72/76
f 69/69/77 72/71/78 70/70/79
s 1
f 70/70/79 72/71/78 71/72/80
g default
v -2.742239 4.476235 -0.391028
v -4.579820 4.476235 -0.447048
v -4.632754 4.476235 1.289143
v -2.795173 4.476235 1.345172
vt 0.000000 0.000000
vt 1.000000 0.000000
vt 0.000000 1.000000
vt 1.000000 1.000000
vn 0.000000 1.000000 -0.000000
vn 0.000000 1.000000 0.000000
vn 0.000000 1.000000 0.000000
vn 0.000000 1.000000 0.000000
vn 0.000000 -1.000000 0.000000
vn 0.000000 -1.000000 0.000000
vn 0.000000 -1.000000 0.000000
vn 0.000000 -1.000000 0.000000
s 1
g pasted__polySurface148 polySurface99
usemtl pasted__phong5SG
f 73/73/81 74/74/82 76/75/83
s 2
f 76/75/83 74/74/82 75/76/84
f 73/73/85 76/75/86 74/74/87
s 1
f 74/74/87 76/75/86 75/76/88
g default
v -1.886457 4.476235 3.329985
v -3.724038 4.476235 3.273960
v -3.776972 4.476235 5.010156
v -1.939391 4.476235 5.066180
vt 0.000000 0.000000
vt 1.000000 0.000000
vt 0.000000 1.000000
vt 1.000000 1.000000
vn 0.000000 1.000000 -0.000000
vn 0.000000 1.000000 0.000000
vn 0.000000 1.000000 0.000000
vn 0.000000 1.000000 0.000000
vn 0.000000 -1.000000 0.000000
vn 0.000000 -1.000000 0.000000
vn 0.000000 -1.000000 0.000000
vn 0.000000 -1.000000 0.000000
s 1
g pasted__polySurface148 polySurface91
usemtl pasted__phong5SG
f 77/77/89 78/78/90 80/79/91
s 2
f 80/79/91 78/78/90 79/80/92
f 77/77/93 80/79/94 78/78/95
s 1
f 78/78/95 80/79/94 79/80/96
g default
v 1.352380 4.476235 5.303123
v 2.649530 4.476235 6.605907
v 3.880436 4.476235 5.380328
v 2.583289 4.476235 4.077540
vt 0.000000 0.000000
vt 1.000000 0.000000
vt 0.000000 1.000000
vt 1.000000 1.000000
vn 0.000000 1.000000 0.000000
vn 0.000000 1.000000 0.000000
vn 0.000000 1.000000 0.000000
vn 0.000000 1.000000 0.000000
vn 0.000000 -1.000000 0.000000
vn 0.000000 -1.000000 0.000000
vn 0.000000 -1.000000 0.000000
vn 0.000000 -1.000000 0.000000
s 1
g pasted__polySurface148 polySurface101
usemtl pasted__phong5SG
f 81/81/97 82/82/98 84/83/99
s 2
f 84/83/99 82/82/98 83/84/100
f 81/81/101 84/83/102 82/82/103
s 1
f 82/82/103 84/83/102 83/84/104
