# This file uses centimeters as units for non-parametric coordinates.

mtllib barandalesCentro.mtl
g default
v -5.214143 14.970706 -3.737609
v 3.296737 14.970706 -3.737609
v -5.214143 16.840662 -3.737609
v 3.296737 16.840662 -3.737609
vt 0.001992 0.001992
vt 0.998008 0.001992
vt 0.998008 0.998008
vt 0.001992 0.998008
vn 0.000000 0.000000 1.000000
vn 0.000000 0.000000 1.000000
vn 0.000000 0.000000 1.000000
vn 0.000000 0.000000 1.000000
s off
g pasted__pCube12 group63
usemtl phong3SG
f 1/1/1 2/2/2 4/3/3 3/4/4
g default
v -5.170761 14.970706 4.802772
v -5.170761 14.970706 -3.708110
v -5.170761 16.840662 4.802772
v -5.170761 16.840662 -3.708110
vt 0.001992 0.001992
vt 0.998008 0.001992
vt 0.998008 0.998008
vt 0.001992 0.998008
vn 1.000000 0.000000 0.000000
vn 1.000000 0.000000 0.000000
vn 1.000000 0.000000 0.000000
vn 1.000000 0.000000 0.000000
s off
g group63 pasted__pCube10
usemtl phong3SG
f 5/5/5 6/6/6 8/7/7 7/8/8
g default
v -5.214143 14.970706 4.767589
v 3.296737 14.970706 4.767589
v -5.214143 16.840662 4.767589
v 3.296737 16.840662 4.767589
vt 0.001992 0.001992
vt 0.998008 0.001992
vt 0.998008 0.998008
vt 0.001992 0.998008
vn 0.000000 0.000000 1.000000
vn 0.000000 0.000000 1.000000
vn 0.000000 0.000000 1.000000
vn 0.000000 0.000000 1.000000
s off
g group63 pasted__pCube13
usemtl phong3SG
f 9/9/9 10/10/10 12/11/11 11/12/12
g default
v 3.285128 14.970706 4.802771
v 3.285129 14.970706 -3.708109
v 3.285128 16.840662 4.802771
v 3.285129 16.840662 -3.708109
vt 0.001992 0.001992
vt 0.998008 0.001992
vt 0.998008 0.998008
vt 0.001992 0.998008
vn 1.000000 0.000000 0.000000
vn 1.000000 0.000000 0.000000
vn 1.000000 0.000000 0.000000
vn 1.000000 0.000000 0.000000
s off
g group63 pasted__pCube11
usemtl phong3SG
f 13/13/13 14/14/14 16/15/15 15/16/16
