# This file uses centimeters as units for non-parametric coordinates.

mtllib sueloPrimeraPlanta.mtl
g default
v -33.994989 14.328767 26.586584
v 33.554606 14.328767 26.586584
v -33.994989 14.951638 26.586584
v 33.554606 14.951638 26.586584
v -33.994989 14.951638 -25.948297
v 33.554606 14.951638 -25.948297
v -33.994989 14.328767 -25.948297
v 33.554606 14.328767 -25.948297
v -4.927857 14.328767 26.586590
v -4.927857 14.951638 26.586590
v -4.927857 14.951638 -25.948297
v -4.927857 14.328767 -25.948297
v -33.994989 14.951638 -3.520472
v -33.994983 14.328767 -3.520473
v -4.927861 14.328773 -3.520471
v 33.554606 14.328767 -3.520473
v 33.554606 14.951638 -3.520472
v -4.927851 14.951646 -3.520469
v 3.232350 14.328767 26.586590
v 3.232350 14.951638 26.586590
v 3.232341 14.951646 -3.520469
v 3.232350 14.951638 -25.948297
v 3.232350 14.328767 -25.948297
v 3.232346 14.328773 -3.520471
v -33.994989 14.951638 4.714591
v -33.994983 14.328767 4.714589
v -4.927861 14.328770 4.714593
v 3.232346 14.328770 4.714593
v 33.554606 14.328767 4.714589
v 33.554606 14.951638 4.714591
v 3.232341 14.951646 4.714592
v -4.927851 14.951646 4.714592
v 3.232343 14.305971 4.714592
v -4.927850 14.305971 4.714592
v 3.232343 14.305971 -3.520471
v -4.927850 14.305971 -3.520471
v -26.278074 14.328767 26.586584
v -26.278074 14.951638 26.586584
v -26.278071 14.951638 4.714592
v -26.278071 14.951638 -3.520471
v -26.278074 14.951638 -25.948297
v -26.278074 14.328767 -25.948297
v -26.278068 14.328767 -3.520472
v -26.278068 14.328767 4.714590
v -20.634312 14.951642 -3.520471
v -20.634312 14.951642 4.714592
v -20.634315 14.951638 26.586584
v -20.634315 14.328767 26.586584
v -20.634312 14.328770 4.714591
v -20.634312 14.328770 -3.520472
v -20.634315 14.328767 -25.948297
v -20.634315 14.951638 -25.948297
v -26.278071 14.307038 4.714592
v -26.278071 14.307038 -3.520471
v -20.634312 14.307041 4.714592
v -20.634312 14.307041 -3.520471
v -33.994983 14.328767 -6.206160
v -33.994989 14.951638 -6.206159
v -26.278071 14.951638 -6.206159
v -20.634312 14.951641 -6.206159
v -4.927852 14.951645 -6.206157
v 3.232342 14.951645 -6.206157
v 33.554606 14.951638 -6.206159
v 33.554606 14.328767 -6.206160
v 3.232346 14.328770 -6.206159
v -4.927861 14.328770 -6.206159
v -20.634312 14.328767 -6.206159
v -26.278068 14.328767 -6.206160
v -26.278071 14.336178 -6.206159
v -20.634312 14.336180 -6.206159
v -26.278071 14.336178 -3.520471
v -20.634312 14.336180 -3.520471
vt 0.000000 -0.000000
vt 0.430308 -0.000000
vt 0.430308 -0.000000
vt 0.000000 -0.000000
vt -2.847647 -2.847647
vt 0.000000 0.416333
vt 0.000000 1.000000
vt 0.430308 1.000000
vt 0.430308 1.000000
vt 0.000000 1.000000
vt 0.000000 0.416333
vt 0.000000 0.416333
vt 1.000000 -0.000000
vt 1.000000 0.416333
vt 1.000000 0.416333
vt 1.000000 -0.000000
vt 0.551111 -0.000000
vt 0.551111 -0.000000
vt 0.033392 -2.847647
vt 0.551111 1.000000
vt 0.551111 1.000000
vt 0.430308 0.416333
vt 0.000000 0.573087
vt 0.000000 0.573087
vt 0.430308 -0.000000
vt 0.000000 -0.000000
vt 1.000000 0.573087
vt 1.000000 0.573087
vt 1.000000 1.000000
vt 1.000000 1.000000
vt 0.033392 -0.060177
vt -2.847647 -0.060177
vt -0.000001 0.528307
vt 1.000000 0.528307
vt 1.000000 0.565669
vt -0.000000 0.565669
vt 1.000000 0.565669
vt -0.000000 0.528307
vt -0.000000 0.471682
vt 1.000000 0.434321
vt -0.000000 0.528307
vt 1.000000 0.565669
vt 1.000000 0.434320
vt -0.000000 0.471681
vt 1.000000 0.471681
vt -0.000001 0.471681
vt -0.000000 0.434320
vt 1.000000 0.434320
vt 0.842204 -2.847647
vt 0.842204 -0.060177
vt 0.033392 3.847646
vt 0.033392 0.989339
vt 0.842205 0.989339
vt 0.842204 3.847646
vt -2.847647 0.989339
vt -2.847647 3.847646
vt 3.847647 -0.060177
vt 3.847647 -2.847647
vt 3.847647 0.989339
vt 3.847647 3.847646
vt 0.551111 0.416333
vt 0.551111 -0.000000
vt 0.000000 1.000000
vt 0.430308 1.000000
vt 0.430308 0.573087
vt 0.000000 0.573087
vt 0.551111 1.000000
vt 0.551111 0.573087
vt 1.000000 0.573087
vt 1.000000 1.000000
vt 1.000000 0.416333
vt 1.000000 -0.000000
vt 0.114241 -0.000000
vt 0.114241 -0.000000
vt -2.082771 -2.847647
vt 0.114241 -0.000000
vt -2.082771 -0.060177
vt -2.082771 0.989339
vt 0.114241 1.000000
vt -2.082771 3.847646
vt 0.114241 1.000000
vt 0.114241 1.000000
vt 0.114241 0.573087
vt 0.114241 0.416333
vt -1.523381 0.989339
vt -1.523381 -0.060177
vt -1.523381 -2.847647
vt 0.197791 -0.000000
vt 0.197791 -0.000000
vt 0.197791 -0.000000
vt 0.197791 0.416333
vt 0.197791 0.573087
vt 0.197791 1.000000
vt 0.197791 1.000000
vt 0.197791 1.000000
vt -1.523381 3.847646
vt 0.573318 0.526235
vt 0.219679 0.537645
vt 0.780321 0.537646
vt 0.355716 0.526235
vt 0.000000 0.624209
vt 0.000000 0.624209
vt 0.000000 0.624209
vt -2.847647 1.331615
vt -2.082771 1.331615
vt -1.523381 1.331615
vt 0.033392 1.331615
vt 0.842205 1.331615
vt 3.847647 1.331615
vt 1.000000 0.624209
vt 1.000000 0.624209
vt 1.000000 0.624209
vt 0.551111 0.624209
vt 0.430308 0.624209
vt 0.197791 0.624209
vt 0.114241 0.624209
vt 0.780321 0.462355
vt 0.219679 0.462354
vt 0.355716 0.473765
vt 0.573318 0.473765
vt 0.355716 0.526235
vt 0.573318 0.526235
vt 0.573318 0.473765
vt 0.355716 0.473765
vt 0.644284 0.526235
vt 0.573318 0.476137
vt 0.644284 0.476137
vt 0.644284 0.526235
vt 0.644284 0.476137
vt 0.573318 0.476137
vt 0.780321 0.537646
vt 0.219679 0.537645
vt 0.219679 0.465758
vt 0.780321 0.465758
vt 0.573318 0.526235
vt 0.573318 0.526235
vn 0.000000 0.000000 1.000000
vn 0.000000 0.000000 1.000000
vn 0.000000 0.000000 1.000000
vn 0.000000 0.000000 1.000000
vn 0.000000 1.000000 0.000000
vn -0.000000 1.000000 0.000000
vn 0.000000 1.000000 0.000000
vn -0.000000 1.000000 0.000000
vn 0.000000 0.000000 -1.000000
vn 0.000000 0.000000 -1.000000
vn 0.000000 0.000000 -1.000000
vn 0.000000 0.000000 -1.000000
vn 0.000000 -1.000000 -0.000000
vn 0.000000 -1.000000 -0.000000
vn 0.000000 -1.000000 0.000000
vn 0.000000 -1.000000 0.000000
vn 1.000000 0.000000 0.000000
vn 1.000000 0.000007 0.000000
vn 1.000000 0.000000 0.000000
vn 1.000000 0.000007 0.000000
vn -1.000000 -0.000003 0.000000
vn -1.000000 -0.000003 -0.000000
vn -1.000000 0.000000 -0.000000
vn -1.000000 0.000000 -0.000000
vn -0.000000 0.000000 1.000000
vn -0.000000 0.000000 1.000000
vn 0.000000 0.000000 1.000000
vn 0.000000 0.000000 1.000000
vn 0.000000 1.000000 0.000000
vn 0.000000 1.000000 0.000000
vn -0.000000 1.000000 0.000000
vn -0.000000 1.000000 0.000000
vn 0.000000 0.000000 -1.000000
vn 0.000000 0.000000 -1.000000
vn 0.000000 0.000000 -1.000000
vn 0.000000 0.000000 -1.000000
vn 0.000000 -1.000000 -0.000000
vn 0.000000 -1.000000 -0.000000
vn -0.000000 -1.000000 -0.000000
vn -0.000000 -1.000000 -0.000000
vn -1.000000 0.000000 0.000000
vn -1.000000 -0.000001 0.000000
vn -1.000000 0.000000 0.000000
vn -1.000000 -0.000001 0.000000
vn 0.000000 -1.000000 -0.000000
vn 0.000000 -1.000000 -0.000000
vn 0.000000 -1.000000 -0.000000
vn 0.000000 -1.000000 0.000000
vn 0.000000 -1.000000 0.000000
vn -0.000000 -1.000000 0.000000
vn 0.000000 -1.000000 0.000000
vn 0.000000 -1.000000 0.000000
vn 1.000000 0.000010 0.000000
vn 1.000000 0.000010 0.000000
vn 1.000000 0.000000 0.000000
vn 1.000000 0.000000 0.000000
vn -0.000000 1.000000 -0.000000
vn -0.000000 1.000000 -0.000000
vn 0.000000 1.000000 -0.000000
vn 0.000000 1.000000 -0.000000
vn 0.000000 1.000000 0.000000
vn 0.000000 1.000000 0.000000
vn 0.000000 1.000000 0.000000
vn 0.000000 1.000000 0.000000
vn 0.000000 0.000000 1.000000
vn 0.000000 0.000000 1.000000
vn 0.000000 1.000000 0.000000
vn 0.000000 1.000000 0.000000
vn 0.000000 1.000000 -0.000000
vn 0.000000 1.000000 0.000000
vn 0.000000 0.000000 -1.000000
vn 0.000000 0.000000 -1.000000
vn -0.000000 -1.000000 0.000000
vn -0.000000 -1.000000 0.000000
vn -0.000000 -1.000000 0.000000
vn -0.000000 -1.000000 0.000000
vn -1.000000 -0.000012 0.000000
vn -1.000000 -0.000012 0.000000
vn 0.000000 -1.000000 0.000000
vn 0.000000 -1.000000 0.000000
vn -0.000000 -1.000000 -0.000000
vn -0.000000 -1.000000 0.000000
vn 1.000000 -0.000003 0.000000
vn 1.000000 -0.000003 0.000000
vn 0.000000 1.000000 -0.000000
vn 0.000000 1.000000 -0.000000
vn 0.000000 1.000000 0.000000
vn 0.000000 1.000000 0.000000
vn 0.000000 0.000001 -1.000000
vn 0.000000 0.000001 -1.000000
vn 0.000000 0.000001 -1.000000
vn 0.000000 0.000001 -1.000000
vn -1.000000 -0.000003 -0.000000
vn -1.000000 -0.000002 -0.000000
vn -1.000000 -0.000003 -0.000000
vn -1.000000 -0.000002 -0.000000
vn 0.000000 -0.000002 1.000000
vn 0.000000 -0.000002 1.000000
vn 0.000000 -0.000002 1.000000
vn 0.000000 -0.000002 1.000000
vn 1.000000 0.000000 0.000000
vn 1.000000 0.000005 0.000000
vn 1.000000 0.000001 0.000000
vn 1.000000 0.000005 0.000000
vn -0.000000 0.000000 1.000000
vn -0.000000 0.000000 1.000000
vn -0.000000 1.000000 0.000000
vn -0.000000 1.000000 0.000000
vn -0.000000 1.000000 -0.000000
vn -0.000000 1.000000 -0.000000
vn 0.000000 1.000000 -0.000000
vn -0.000000 1.000000 -0.000000
vn 0.000000 0.000000 -1.000000
vn 0.000000 0.000000 -1.000000
vn 0.000000 -1.000000 0.000000
vn 0.000000 -1.000000 0.000000
vn 0.000000 -1.000000 -0.000000
vn 0.000000 -1.000000 0.000000
vn 0.000000 -1.000000 -0.000000
vn 0.000000 -1.000000 -0.000000
vn 0.000000 1.000000 -0.000000
vn -0.000000 1.000000 -0.000000
vn -0.000000 1.000000 -0.000000
vn -0.000001 1.000000 -0.000000
vn 1.000000 0.000000 0.000000
vn 1.000000 0.000000 0.000000
vn 1.000000 0.000000 0.000000
vn 1.000000 0.000000 0.000000
vn 0.000000 0.000000 -1.000000
vn 0.000000 0.000000 -1.000000
vn 0.000000 0.000000 -1.000000
vn 0.000000 0.000000 -1.000000
vn -1.000000 0.000000 0.000000
vn -1.000000 0.000000 0.000000
vn -1.000000 0.000000 0.000000
vn -1.000000 0.000000 0.000000
vn -0.000000 0.000000 1.000000
vn 0.000000 0.000000 1.000000
vn -0.000000 0.000000 1.000000
vn 0.000000 0.000000 1.000000
vn 1.000000 0.000000 0.000000
vn 1.000000 0.000000 0.000000
vn 1.000000 0.000000 0.000000
vn 1.000000 0.000000 0.000000
vn -1.000000 0.000000 0.000000
vn -1.000000 0.000000 0.000000
vn -1.000000 0.000000 0.000000
vn -1.000000 0.000000 0.000000
s 1
g pasted__polySurface66 pasted__polySurface27 group56
usemtl initialShadingGroup
f 1/1/1 37/73/2 3/4/3
f 3/4/3 37/73/2 38/76/4
s 2
usemtl phong9SG
f 3/5/5 38/75/6 25/32/7
f 25/32/7 38/75/6 39/77/8
s 3
usemtl initialShadingGroup
f 5/7/9 41/79/10 7/10/11
f 7/10/11 41/79/10 42/82/12
s 4
usemtl lambert4SG
f 26/12/13 44/84/14 1/26/15
f 1/26/15 44/84/14 37/74/16
s 5
usemtl initialShadingGroup
f 2/13/17 29/14/18 4/16/19
f 4/16/19 29/14/18 30/15/20
s 6
f 25/6/21 26/11/22 3/4/23
f 3/4/23 26/11/22 1/1/24
s 1
f 10/3/25 9/2/26 20/18/27
f 20/18/27 9/2/26 19/17/28
s 2
usemtl phong9SG
f 20/49/29 31/50/30 10/19/31
f 10/19/31 31/50/30 32/31/32
s 3
usemtl initialShadingGroup
f 12/9/33 11/8/34 23/21/35
f 23/21/35 11/8/34 22/20/36
s 4
usemtl lambert4SG
f 9/25/37 27/22/38 19/62/39
f 19/62/39 27/22/38 28/61/40
s 6
usemtl initialShadingGroup
f 7/10/41 57/101/42 5/7/43
f 5/7/43 57/101/42 58/103/44
s 4
usemtl lambert4SG
f 7/63/45 42/81/46 57/102/47
f 57/102/47 42/81/46 68/116/48
f 23/67/49 65/113/50 12/64/51
f 12/64/51 65/113/50 66/114/52
s 5
usemtl initialShadingGroup
f 63/110/53 64/112/54 6/30/55
f 6/30/55 64/112/54 8/29/56
s 2
usemtl phong9SG
f 11/51/57 61/107/58 22/54/59
f 22/54/59 61/107/58 62/108/60
f 58/104/61 59/105/62 5/56/63
f 5/56/63 59/105/62 41/80/64
s 1
usemtl initialShadingGroup
f 20/18/27 19/17/28 4/16/65
f 4/16/65 19/17/28 2/13/66
s 2
usemtl phong9SG
f 30/57/67 31/50/30 4/58/68
f 4/58/68 31/50/30 20/49/29
f 22/54/59 62/108/60 6/60/69
f 6/60/69 62/108/60 63/109/70
s 3
usemtl initialShadingGroup
f 23/21/35 22/20/36 8/29/71
f 8/29/71 22/20/36 6/30/72
s 4
usemtl lambert4SG
f 64/111/73 65/113/50 8/70/74
f 8/70/74 65/113/50 23/67/49
f 19/62/39 28/61/40 2/72/75
f 2/72/75 28/61/40 29/71/76
s 6
usemtl initialShadingGroup
f 13/24/77 14/23/78 25/6/21
f 25/6/21 14/23/78 26/11/22
s 4
usemtl lambert4SG
f 14/66/79 43/83/80 26/12/13
f 26/12/13 43/83/80 44/84/14
f 29/71/76 28/61/40 16/69/81
f 16/69/81 28/61/40 24/68/82
s 5
usemtl initialShadingGroup
f 30/15/20 29/14/18 17/27/83
f 17/27/83 29/14/18 16/28/84
s 2
usemtl phong9SG
f 17/59/85 21/53/86 30/57/67
f 30/57/67 21/53/86 31/50/30
f 25/32/7 39/77/8 13/55/87
f 13/55/87 39/77/8 40/78/88
s 22
usemtl lambert4SG
f 32/33/89 31/34/90 34/46/91
f 34/46/91 31/34/90 33/45/92
s 23
f 31/41/93 21/42/94 33/44/95
f 33/44/95 21/42/94 35/43/96
s 24
f 21/35/97 18/36/98 35/48/99
f 35/48/99 18/36/98 36/47/100
s 25
f 18/37/101 32/38/102 36/40/103
f 36/40/103 32/38/102 34/39/104
s 1
usemtl initialShadingGroup
f 47/88/105 48/89/106 10/3/25
f 10/3/25 48/89/106 9/2/26
s 2
usemtl phong9SG
f 46/86/107 47/87/108 32/31/32
f 32/31/32 47/87/108 10/19/31
f 45/85/109 46/86/107 18/52/110
f 18/52/110 46/86/107 32/31/32
f 52/96/111 60/106/112 11/51/57
f 11/51/57 60/106/112 61/107/58
s 3
usemtl initialShadingGroup
f 51/94/113 52/95/114 12/9/33
f 12/9/33 52/95/114 11/8/34
s 4
usemtl lambert4SG
f 66/114/52 67/115/115 12/64/51
f 12/64/51 67/115/115 51/93/116
f 49/91/117 50/92/118 27/22/38
f 27/22/38 50/92/118 15/65/119
f 48/90/120 49/91/117 9/25/37
f 9/25/37 49/91/117 27/22/38
s 2
usemtl phong9SG
f 39/77/8 38/75/6 46/86/107
f 46/86/107 38/75/6 47/87/108
s 1
usemtl initialShadingGroup
f 38/76/4 37/73/2 47/88/105
f 47/88/105 37/73/2 48/89/106
s 4
usemtl lambert4SG
f 37/74/16 44/84/14 48/90/120
f 48/90/120 44/84/14 49/91/117
f 67/115/115 68/116/48 51/93/116
f 51/93/116 68/116/48 42/81/46
s 3
usemtl initialShadingGroup
f 42/82/12 41/79/10 51/94/113
f 51/94/113 41/79/10 52/95/114
s 31
usemtl phong9SG
f 41/80/121 59/105/122 52/96/123
f 52/96/123 59/105/122 60/106/124
s 32
usemtl lambert4SG
f 40/97/125 39/100/126 54/120/127
f 54/120/127 39/100/126 53/119/128
s 33
f 39/98/129 46/99/130 53/118/131
f 53/118/131 46/99/130 55/117/132
s 34
f 46/121/133 45/135/134 55/124/135
f 55/124/135 45/135/134 56/123/136
s 6
usemtl initialShadingGroup
f 58/103/44 57/101/42 13/24/77
f 13/24/77 57/101/42 14/23/78
s 2
usemtl phong9SG
f 13/55/87 40/78/88 58/104/61
f 58/104/61 40/78/88 59/105/62
f 61/107/58 60/106/112 18/52/110
f 18/52/110 60/106/112 45/85/109
f 62/108/60 61/107/58 21/53/86
f 21/53/86 61/107/58 18/52/110
f 63/109/70 62/108/60 17/59/85
f 17/59/85 62/108/60 21/53/86
s 5
usemtl initialShadingGroup
f 17/27/83 16/28/84 63/110/53
f 63/110/53 16/28/84 64/112/54
s 4
usemtl lambert4SG
f 16/69/81 24/68/82 64/111/73
f 64/111/73 24/68/82 65/113/50
f 66/114/52 65/113/50 15/65/119
f 15/65/119 65/113/50 24/68/82
f 50/92/118 67/115/115 15/65/119
f 15/65/119 67/115/115 66/114/52
f 57/102/47 68/116/48 14/66/79
f 14/66/79 68/116/48 43/83/80
s 35
f 60/131/137 59/132/138 70/134/139
f 70/134/139 59/132/138 69/133/140
s 36
f 59/125/141 40/136/142 69/127/143
f 69/127/143 40/136/142 71/126/144
s 37
f 45/122/145 60/128/146 72/130/147
f 72/130/147 60/128/146 70/129/148
