# This file uses centimeters as units for non-parametric coordinates.

mtllib dinero.mtl
g default
v -0.528371 0.046197 0.566406
v -0.528371 0.046197 -0.532079
v -0.528371 0.256667 -0.532079
v 0.528371 0.046197 0.566406
v 0.528371 0.046197 -0.532079
v -0.528371 0.256667 0.566406
v 0.528371 0.256667 -0.532079
v 0.528371 0.256667 0.566406
v 0.520115 0.230358 -0.532079
v -0.520115 0.230358 -0.532079
v 0.520115 0.230358 -0.549243
v 0.511859 0.230358 -0.557825
v -0.511859 0.230358 -0.557825
v -0.520115 0.230358 -0.549243
v -0.528371 0.059351 -0.549243
v -0.511859 0.046197 -0.549243
v -0.511859 0.059351 -0.566406
v 0.511859 0.046197 -0.549243
v 0.528371 0.059351 -0.549243
v 0.511859 0.059351 -0.566406
v -0.528371 0.256667 -0.549243
v -0.511859 0.256667 -0.566406
v 0.511859 0.256667 -0.566406
v 0.528371 0.256667 -0.549243
v -0.511859 0.046197 -0.532079
v -0.528371 0.059351 -0.532079
v 0.528371 0.059351 -0.532079
v 0.511859 0.046197 -0.532079
v 0.528371 0.223781 -0.532079
v -0.511859 0.223781 -0.566406
v 0.528371 0.223781 -0.549243
v -0.528371 0.223781 -0.549243
v 0.511859 0.223781 -0.566406
v -0.528371 0.223781 -0.532079
v 0.511859 0.236935 -0.566406
v -0.528371 0.236935 -0.549243
v -0.528371 0.236935 -0.532079
v -0.511859 0.236935 -0.566406
v 0.528371 0.236935 -0.549243
v 0.528371 0.236935 -0.532079
vt 0.002024 0.004429
vt 0.152265 0.004429
vt 0.152265 0.154670
vt 0.002024 0.154670
vt -0.014892 0.978447
vt -0.014893 0.021553
vt 1.014892 0.021553
vt 1.014893 0.978447
vt 0.152265 0.192230
vt 0.002024 0.192230
vt 0.151459 0.444925
vt 0.151459 0.482485
vt 0.001219 0.482485
vt 0.001219 0.444925
vt 0.152265 0.343053
vt 0.152265 0.380613
vt 0.002024 0.380613
vt 0.002024 0.343053
vt 0.152123 0.381390
vt 0.152124 0.418950
vt 0.001883 0.418950
vt 0.001883 0.381389
vt 0.290000 0.720000
vt 0.290000 0.716000
vt 0.010000 0.716000
vt 0.010000 0.720000
vt 0.005000 0.785000
vt 0.001000 0.785000
vt 0.001000 0.789000
vt 0.005000 0.789000
vt 0.011310 0.426764
vt 0.011310 0.429948
vt 0.142928 0.429948
vt 0.142928 0.426764
vt 0.440455 0.543414
vt 0.440455 0.540230
vt 0.304605 0.540230
vt 0.304605 0.543414
vt 0.145818 0.439584
vt 0.145814 0.437092
vt 0.003057 0.437092
vt 0.003061 0.439584
vt 0.004901 0.720000
vt 0.010000 0.725000
vt 0.290000 0.725000
vt 0.295000 0.720000
vt 0.010000 0.785000
vt 0.290000 0.785000
vt 0.295000 0.785000
vt 0.299000 0.785000
vt 0.299000 0.716000
vt 0.001000 0.716000
vt 0.145930 0.426764
vt 0.145180 0.425464
vt 0.143679 0.425464
vt 0.008308 0.426764
vt 0.010560 0.425464
vt 0.009059 0.425464
vt 0.006186 0.426764
vt 0.006186 0.429948
vt 0.008308 0.429948
vt 0.279348 0.093214
vt 0.276799 0.095762
vt 0.276823 0.239244
vt 0.279348 0.240365
vt 0.010000 0.789000
vt 0.290000 0.789000
vt 0.310387 0.238066
vt 0.310387 0.095513
vt 0.308088 0.093214
vt 0.308088 0.240365
vt 0.295000 0.789000
vt 0.148053 0.426764
vt 0.148053 0.425263
vt 0.145930 0.425263
vt 0.299000 0.789000
vt 0.145930 0.429948
vt 0.148053 0.429948
vt 0.439420 0.545744
vt 0.306957 0.545766
vt 0.011299 0.424467
vt 0.142916 0.424467
vt 0.005280 0.434643
vt 0.143361 0.434640
vt 0.008308 0.425263
vt 0.006186 0.425263
vn 0.000000 -1.000000 0.000000
vn 0.000000 -1.000000 0.000000
vn 0.000000 -1.000000 0.000000
vn 0.000000 -1.000000 0.000000
vn 0.000000 1.000000 0.000000
vn 0.000000 1.000000 0.000000
vn 0.000000 1.000000 0.000000
vn 0.000000 1.000000 0.000000
vn 0.000000 0.000000 1.000000
vn 0.000000 0.000000 1.000000
vn 0.000000 0.000000 1.000000
vn 0.000000 0.000000 1.000000
vn 1.000000 0.000000 0.000000
vn 1.000000 0.000000 0.000000
vn 1.000000 0.000000 0.000000
vn 1.000000 0.000000 0.000000
vn 0.000000 0.000000 -1.000000
vn 0.000000 0.000000 -1.000000
vn 0.000000 0.000000 -1.000000
vn 0.000000 0.000000 -1.000000
vn -1.000000 0.000000 0.000000
vn -1.000000 0.000000 0.000000
vn -1.000000 0.000000 0.000000
vn -1.000000 0.000000 0.000000
vn 0.000000 -1.000000 0.000000
vn 0.000000 -1.000000 0.000000
vn 0.000000 -1.000000 0.000000
vn 0.000000 -1.000000 0.000000
vn -0.623109 0.782135 -0.000000
vn -0.623109 0.782135 -0.000000
vn -0.623109 0.782135 -0.000000
vn -0.623109 0.782135 -0.000000
vn 0.000000 0.000000 -1.000000
vn 0.000000 0.000000 -1.000000
vn 0.000000 0.000000 -1.000000
vn 0.000000 0.000000 -1.000000
vn 0.000000 0.000000 1.000000
vn 0.000000 0.000000 1.000000
vn 0.000000 0.000000 1.000000
vn 0.000000 0.000000 1.000000
vn 0.000000 1.000000 0.000000
vn 0.000000 1.000000 0.000000
vn 0.000000 1.000000 0.000000
vn 0.000000 1.000000 0.000000
vn -0.534421 -0.670813 -0.514202
vn -0.534421 -0.670813 -0.514202
vn -0.534421 -0.670813 -0.514202
vn 0.534421 -0.670813 -0.514202
vn 0.534421 -0.670813 -0.514202
vn 0.534421 -0.670813 -0.514202
vn -0.720667 0.000000 -0.693281
vn -0.720667 0.000000 -0.693281
vn -0.720667 0.000000 -0.693281
vn -0.720667 0.000000 -0.693281
vn 0.000000 -0.793707 -0.608300
vn 0.000000 -0.793707 -0.608300
vn 0.000000 -0.793707 -0.608300
vn 0.000000 -0.793707 -0.608300
vn 0.720667 0.000000 -0.693281
vn 0.720667 0.000000 -0.693281
vn 0.720667 0.000000 -0.693281
vn 0.720667 0.000000 -0.693281
vn 1.000000 0.000000 0.000000
vn 1.000000 0.000000 0.000000
vn 1.000000 0.000000 0.000000
vn 1.000000 0.000000 0.000000
vn 0.623109 -0.782135 0.000000
vn 0.623109 -0.782135 0.000000
vn 0.623109 -0.782135 0.000000
vn 0.623109 -0.782135 0.000000
vn -0.623109 -0.782135 0.000000
vn -0.623109 -0.782135 0.000000
vn -0.623109 -0.782135 0.000000
vn -0.623109 -0.782135 0.000000
vn 0.534470 -0.670874 -0.514071
vn 0.534470 -0.670874 -0.514071
vn 0.534470 -0.670874 -0.514071
vn 0.534470 -0.670874 -0.514071
vn -0.534470 -0.670874 -0.514071
vn -0.534470 -0.670874 -0.514071
vn -0.534470 -0.670874 -0.514071
vn -0.534470 -0.670874 -0.514071
vn -1.000000 0.000000 0.000000
vn -1.000000 0.000000 0.000000
vn -1.000000 0.000000 0.000000
vn -1.000000 0.000000 0.000000
vn 0.000000 0.000000 1.000000
vn 0.000000 0.000000 1.000000
vn 0.000000 0.000000 1.000000
vn 0.000000 0.000000 1.000000
vn 0.000000 0.793707 -0.608300
vn 0.000000 0.793707 -0.608300
vn 0.000000 0.793707 -0.608300
vn 0.000000 0.793707 -0.608300
vn 0.000000 0.000000 -1.000000
vn 0.000000 0.000000 -1.000000
vn 0.000000 0.000000 -1.000000
vn 0.000000 0.000000 -1.000000
vn 0.000000 0.000000 1.000000
vn 0.000000 0.000000 1.000000
vn 0.000000 0.000000 1.000000
vn 0.000000 0.000000 1.000000
vn 0.000000 0.000000 1.000000
vn 0.000000 0.000000 1.000000
vn 0.534380 0.670877 -0.514162
vn 0.534380 0.670877 -0.514162
vn 0.534380 0.670877 -0.514162
vn 0.534380 0.670877 -0.514162
vn -0.534380 0.670877 -0.514162
vn -0.534380 0.670877 -0.514162
vn -0.534380 0.670877 -0.514162
vn -0.534380 0.670877 -0.514162
vn 0.623109 -0.782135 0.000000
vn 0.623109 -0.782135 0.000000
vn 0.623109 -0.782135 0.000000
vn 0.623109 -0.782135 0.000000
vn 0.623109 0.782135 0.000000
vn 0.623109 0.782135 0.000000
vn 0.623109 0.782135 0.000000
vn 0.623109 0.782135 0.000000
vn -1.000000 0.000000 0.000000
vn -1.000000 0.000000 0.000000
vn -1.000000 0.000000 0.000000
vn -1.000000 0.000000 0.000000
vn -0.720667 0.000000 -0.693281
vn -0.720667 0.000000 -0.693281
vn -0.720667 0.000000 -0.693281
vn -0.720667 0.000000 -0.693281
vn 0.720667 0.000000 -0.693281
vn 0.720667 0.000000 -0.693281
vn 0.720667 0.000000 -0.693281
vn 0.720667 0.000000 -0.693281
vn 1.000000 0.000000 0.000000
vn 1.000000 0.000000 0.000000
vn 1.000000 0.000000 0.000000
vn 1.000000 0.000000 0.000000
vn 0.000000 0.000000 1.000000
vn 0.000000 0.000000 1.000000
vn 0.000000 0.000000 1.000000
vn 0.000000 0.000000 1.000000
vn 0.000000 -0.793707 -0.608300
vn 0.000000 -0.793707 -0.608300
vn 0.000000 -0.793707 -0.608300
vn 0.000000 -0.793707 -0.608300
vn 0.000000 1.000000 0.000000
vn 0.000000 1.000000 0.000000
vn 0.000000 1.000000 0.000000
vn 0.000000 1.000000 0.000000
vn -0.623109 -0.782135 0.000000
vn -0.623109 -0.782135 0.000000
vn -0.623109 -0.782135 0.000000
vn -0.623109 -0.782135 0.000000
s off
g dinero:dinero
usemtl dinero:lambert2SG
f 2/1/1 5/2/2 4/3/3 1/4/4
usemtl dinero:lambert3SG
f 8/5/5 7/6/6 3/7/7 6/8/8
usemtl dinero:lambert2SG
f 4/3/9 8/9/10 6/10/11 1/4/12
f 5/11/13 7/12/14 8/13/15 4/14/16
f 2/15/17 3/16/18 7/17/19 5/18/20
f 1/19/21 6/20/22 3/21/23 2/22/24
f 18/23/25 28/24/26 25/25/27 16/26/28
f 32/27/29 34/28/30 10/29/31 14/30/32
f 38/31/33 22/32/34 23/33/35 35/34/36
f 40/35/37 7/36/38 3/37/39 37/38/40
f 7/39/41 24/40/42 21/41/43 3/42/44
f 15/43/45 17/44/46 16/26/47
f 18/23/48 20/45/49 19/46/50
f 32/27/51 30/47/52 17/44/53 15/43/54
f 20/45/55 18/23/56 16/26/57 17/44/58
f 33/48/59 31/49/60 19/46/61 20/45/62
f 31/49/63 29/50/64 27/51/65 19/46/66
f 18/23/67 19/46/68 27/51/69 28/24/70
f 25/25/71 26/52/72 15/43/73 16/26/74
f 35/34/75 39/53/76 11/54/77 12/55/78
f 36/56/79 38/31/80 13/57/81 14/58/82
f 36/56/83 37/59/84 3/60/85 21/61/86
f 29/62/87 9/63/88 10/64/89 34/65/90
f 30/47/91 13/66/92 12/67/93 33/48/94
f 17/44/95 30/47/96 33/48/97 20/45/98
f 25/68/99 28/69/100 27/70/101 29/62/102 34/65/103 26/71/104
f 12/67/105 11/72/106 31/49/107 33/48/108
f 14/30/109 13/66/110 30/47/111 32/27/112
f 39/53/113 40/73/114 9/74/115 11/75/116
f 11/72/117 9/76/118 29/50/119 31/49/120
f 15/43/121 26/52/122 34/28/123 32/27/124
f 21/61/125 22/32/126 38/31/127 36/56/128
f 23/33/129 24/77/130 39/53/131 35/34/132
f 24/77/133 7/78/134 40/73/135 39/53/136
f 9/79/137 40/35/138 37/38/139 10/80/140
f 13/81/141 38/31/142 35/34/143 12/82/144
f 22/83/145 21/41/146 24/40/147 23/84/148
f 14/85/149 10/86/150 37/59/151 36/56/152
