# This file uses centimeters as units for non-parametric coordinates.

mtllib muros.mtl
g default
v 34.010730 0.267939 26.589025
v 34.010730 0.267939 -26.320143
v 34.010730 21.160789 26.589025
v 34.010730 21.160789 -26.320143
v 33.706014 21.160789 26.589025
v 33.706014 21.160789 -26.320143
v 33.706014 0.267939 26.589025
v 33.706014 0.267939 -26.320143
v 34.010719 0.267940 -5.131240
v 34.010722 21.160789 -5.131241
v 33.706014 21.160789 -5.131241
v 33.706014 0.267939 -5.131241
v 34.010719 0.267940 5.453778
v 34.010722 21.160789 5.453780
v 33.706014 21.160789 5.453780
v 33.706014 0.267939 5.453780
v 34.010722 8.768069 26.589025
v 33.706014 8.768069 26.589025
v 33.706014 8.768069 5.453780
v 33.706014 8.768069 -5.131241
v 33.706014 8.768069 -26.320143
v 34.010722 8.768069 -26.320143
v 34.010719 8.768069 -5.131241
v 34.010719 8.768068 5.453785
v 34.010719 8.768069 -5.131241
v 34.010719 8.768069 5.453779
v 34.010719 0.267939 5.453780
v 34.010719 0.267939 -5.131241
v 34.010719 8.768069 -5.131241
v 34.010719 8.768069 5.453779
v 34.010719 0.267939 5.453780
v 34.010719 0.267939 -5.131241
v 34.010730 8.768069 -5.131241
v 34.010730 8.768069 5.453779
v 34.010730 0.267939 5.453780
v 34.010730 0.267939 -5.131241
v 34.010730 8.768069 -5.131241
v 34.010730 8.768069 5.453779
v 34.010730 0.267939 5.453780
v 34.010730 0.267939 -5.131241
v 33.677489 8.768069 -5.131241
v 33.677489 8.768069 5.453779
v 33.677489 0.267939 5.453780
v 33.677489 0.267939 -5.131241
vt 0.000000 0.000000
vt 0.399463 0.000000
vt 0.399463 0.406844
vt 0.000000 0.406844
vt 0.000000 1.000000
vt 0.399463 1.000000
vt 0.399463 1.000000
vt 0.000000 1.000000
vt 0.000000 0.406844
vt 0.399463 0.406844
vt 0.399463 0.000000
vt 0.000000 0.000000
vt 1.000000 0.000000
vt 1.000000 0.000000
vt 1.000000 0.406844
vt 1.000000 0.406844
vt 0.599523 0.406844
vt 0.599523 0.000000
vt 0.599523 1.000000
vt 0.599523 1.000000
vt 1.000000 1.000000
vt 1.000000 1.000000
vt 0.599523 0.000000
vt 0.599523 0.406844
vt 0.399463 0.406844
vt 0.599523 0.406844
vt 0.399463 0.000000
vt 0.599523 0.000000
vt 0.399463 0.406844
vt 0.599523 0.406844
vt 0.399463 0.000000
vt 0.599523 0.000000
vt 0.399463 0.406844
vt 0.599523 0.406844
vt 0.399463 0.000000
vt 0.599523 0.000000
vt 0.399463 0.406844
vt 0.599523 0.406844
vt 0.399463 0.000000
vt 0.599523 0.000000
vt 0.399463 0.406844
vt 0.599523 0.406844
vt 0.399463 0.000000
vt 0.599523 0.000000
vn 1.000000 0.000001 -0.000000
vn 1.000000 0.000001 -0.000000
vn 1.000000 0.000000 -0.000000
vn 1.000000 -0.000000 -0.000000
vn 0.000000 1.000000 0.000000
vn 0.000000 1.000000 0.000000
vn 0.000000 1.000000 0.000000
vn 0.000000 1.000000 0.000000
vn -1.000000 0.000000 0.000000
vn -1.000000 0.000000 0.000000
vn -1.000000 0.000000 0.000000
vn -1.000000 0.000000 0.000000
vn 0.000002 -1.000000 -0.000000
vn 0.000002 -1.000000 -0.000000
vn 0.000002 -1.000000 -0.000000
vn 0.000002 -1.000000 -0.000000
vn 0.000000 0.000000 -1.000000
vn 0.000000 0.000000 -1.000000
vn 0.000000 0.000000 -1.000000
vn 0.000000 0.000000 -1.000000
vn 0.000000 0.000000 1.000000
vn 0.000000 0.000000 1.000000
vn 0.000000 0.000000 1.000000
vn 0.000000 0.000000 1.000000
vn 1.000000 0.000000 0.000000
vn 1.000000 0.000000 0.000000
vn 1.000000 0.000001 0.000000
vn 1.000000 0.000001 0.000000
vn 0.000000 1.000000 -0.000000
vn 0.000000 1.000000 -0.000000
vn 0.000000 1.000000 -0.000000
vn 0.000000 1.000000 -0.000000
vn -1.000000 0.000000 0.000000
vn -1.000000 0.000000 0.000000
vn -1.000000 0.000000 0.000000
vn -1.000000 0.000000 0.000000
vn 0.000002 -1.000000 0.000000
vn 0.000002 -1.000000 0.000000
vn 0.000002 -1.000000 0.000000
vn 0.000002 -1.000000 0.000000
vn 0.000000 0.000000 1.000000
vn 0.000000 0.000000 1.000000
vn -1.000000 0.000000 0.000000
vn -1.000000 0.000000 0.000000
vn -1.000000 0.000000 0.000000
vn -1.000000 0.000000 0.000000
vn 0.000000 0.000000 -1.000000
vn 0.000000 0.000000 -1.000000
vn 1.000000 -0.000000 0.000000
vn 1.000000 -0.000001 0.000000
vn 1.000000 -0.000000 -0.000000
vn 1.000000 -0.000001 -0.000000
vn -0.000000 -0.000000 0.000000
vn -0.110182 -0.993912 0.000000
vn -0.110182 -0.993912 0.000000
vn -0.000000 -0.000000 0.000000
vn 1.000000 0.000001 0.000000
vn 1.000000 0.000001 0.000000
vn 1.000000 0.000001 0.000000
vn 1.000000 0.000001 0.000000
vn -0.832433 -0.554126 0.000000
vn -0.832433 -0.554126 0.000000
vn -0.832433 -0.554125 0.000000
vn -0.832433 -0.554125 0.000000
vn -1.000000 0.000000 0.000000
vn -0.000000 0.000000 0.000000
vn -0.000000 0.000000 0.000000
vn -1.000000 0.000000 0.000000
vn 0.000000 0.000000 0.000000
vn 0.000000 0.000000 0.000000
vn 0.000000 0.000000 0.000000
vn 0.000000 0.000000 0.000000
vn 0.000000 0.000000 0.000000
vn 0.000000 0.000000 0.000000
vn 0.000000 0.000000 0.000000
vn 0.000000 0.000000 0.000000
vn 0.000000 0.000000 0.000000
vn 0.000000 0.000000 0.000000
vn 0.000000 0.000000 0.000000
vn 0.000000 0.000000 0.000000
vn 0.000000 0.000000 0.000000
vn 0.000000 0.000000 0.000000
vn 0.000000 0.000000 0.000000
vn 0.000000 0.000000 0.000000
vn 0.000000 1.000000 0.000000
vn 0.000000 1.000000 0.000000
vn 0.000000 1.000000 0.000000
vn 0.000000 1.000000 0.000000
vn 0.000000 0.000000 1.000000
vn 0.000000 0.000000 1.000000
vn 0.000000 0.000000 1.000000
vn 0.000000 0.000000 1.000000
vn 0.000000 -1.000000 0.000000
vn 0.000000 -1.000000 0.000000
vn 0.000000 -1.000000 0.000000
vn 0.000000 -1.000000 0.000000
vn 0.000000 0.000000 -1.000000
vn 0.000000 0.000000 -1.000000
vn 0.000000 0.000000 -1.000000
vn 0.000000 0.000000 -1.000000
vn 0.000000 0.000000 0.000000
vn 0.000000 0.000000 0.000000
vn 0.000000 0.000000 0.000000
vn 0.000000 0.000000 0.000000
vn 0.000000 0.000000 0.000000
vn 0.000000 0.000000 0.000000
vn 0.000000 0.000000 0.000000
vn 0.000000 0.000000 0.000000
vn 0.000000 0.000000 0.000000
vn 0.000000 0.000000 0.000000
vn 0.000000 0.000000 0.000000
vn 0.000000 0.000000 0.000000
vn 0.000000 0.000000 0.000000
vn 0.000000 0.000000 0.000000
vn 0.000000 0.000000 0.000000
vn 0.000000 0.000000 0.000000
vn 0.000000 -1.000000 0.000000
vn 0.000000 -1.000000 0.000000
vn 0.000000 -1.000000 0.000000
vn 0.000000 -1.000000 0.000000
vn 0.000000 -0.000000 -1.000000
vn 0.000000 -0.000000 -1.000000
vn 0.000000 -0.000000 -1.000000
vn 0.000000 -0.000000 -1.000000
vn 0.000000 1.000000 0.000000
vn 0.000000 1.000000 0.000000
vn 0.000000 1.000000 0.000000
vn 0.000000 1.000000 0.000000
vn 0.000000 0.000000 1.000000
vn 0.000000 0.000000 1.000000
vn 0.000000 0.000000 1.000000
vn 0.000000 0.000000 1.000000
s 1
g polySurface73 polySurface27
usemtl lambert4SG
f 1/1/1 13/2/2 24/3/3 17/4/4
s 2
f 3/5/5 14/6/6 15/7/7 5/8/8
s 3
f 18/9/9 19/10/10 16/11/11 7/12/12
s off
f 7/12/13 16/11/14 13/2/15 1/1/16
s 4
f 2/13/17 8/14/18 21/15/19 22/16/20
s 5
f 7/12/21 1/1/22 17/4/23 18/9/24
s 1
f 22/16/25 23/17/26 9/18/27 2/13/28
s 2
f 11/19/29 10/20/30 4/21/31 6/22/32
s 3
f 12/23/33 20/24/34 21/15/35 8/14/36
s off
f 9/18/37 12/23/38 8/14/39 2/13/40
s 2
f 15/7/7 14/6/6 10/20/30 11/19/29
s 5
f 18/9/24 17/4/23 3/5/41 5/8/42
s 3
f 5/8/43 15/7/44 19/10/10 18/9/9
f 20/24/34 19/10/10 15/7/44 11/19/45
f 21/15/35 20/24/34 11/19/45 6/22/46
s 4
f 22/16/20 21/15/19 6/22/47 4/21/48
s 1
f 10/20/49 23/17/26 22/16/25 4/21/50
f 14/6/51 24/3/3 23/17/26 10/20/49
f 17/4/4 24/3/3 14/6/51 3/5/52
s off
f 23/17/53 24/3/54 26/25/55 25/26/56
f 24/3/57 13/2/58 27/27/59 26/25/60
f 13/2/61 9/18/62 28/28/63 27/27/64
f 9/18/65 23/17/66 25/26/67 28/28/68
f 25/26/69 26/25/70 30/29/71 29/30/72
f 26/25/73 27/27/74 31/31/75 30/29/76
f 27/27/77 28/28/78 32/32/79 31/31/80
f 28/28/81 25/26/82 29/30/83 32/32/84
f 29/30/85 30/29/86 34/33/87 33/34/88
f 30/29/89 31/31/90 35/35/91 34/33/92
f 31/31/93 32/32/94 36/36/95 35/35/96
f 32/32/97 29/30/98 33/34/99 36/36/100
f 33/34/101 34/33/102 38/37/103 37/38/104
f 34/33/105 35/35/106 39/39/107 38/37/108
f 35/35/109 36/36/110 40/40/111 39/39/112
f 36/36/113 33/34/114 37/38/115 40/40/116
f 37/38/117 38/37/118 42/41/119 41/42/120
f 38/37/121 39/39/122 43/43/123 42/41/124
f 39/39/125 40/40/126 44/44/127 43/43/128
f 40/40/129 37/38/130 41/42/131 44/44/132
g default
v -34.505695 0.269732 26.990542
v 34.032901 0.269732 26.990542
v -34.505695 21.162580 26.990542
v 34.032901 21.162580 26.990542
v -34.505695 21.162580 26.676554
v 34.032901 21.162580 26.676554
v -34.505695 0.269732 26.676554
v 34.032901 0.269732 26.676554
v -34.505695 12.839308 26.990542
v -34.505695 12.839309 26.676554
v 34.032904 12.839309 26.676554
v 34.032901 12.839308 26.990542
vt 0.375000 0.000000
vt 0.625000 0.000000
vt 0.625000 0.250000
vt 0.375000 0.250000
vt 0.625000 0.500000
vt 0.375000 0.500000
vt 0.625000 0.750000
vt 0.375000 0.750000
vt 0.625000 1.000000
vt 0.375000 1.000000
vt 0.875000 0.000000
vt 0.875000 0.250000
vt 0.125000 0.000000
vt 0.125000 0.250000
vt 0.375000 0.150405
vt 0.125000 0.150405
vt 0.375000 0.599595
vt 0.625000 0.599595
vt 0.875000 0.150405
vt 0.625000 0.150405
vn 0.000000 1.000000 0.000000
vn 0.000000 1.000000 0.000000
vn 0.000000 1.000000 0.000000
vn 0.000000 1.000000 0.000000
vn 0.000000 -1.000000 0.000000
vn 0.000000 -1.000000 0.000000
vn 0.000000 -1.000000 0.000000
vn 0.000000 -1.000000 0.000000
vn 1.000000 -0.000000 0.000005
vn 1.000000 -0.000000 0.000005
vn 1.000000 0.000000 0.000005
vn 1.000000 -0.000000 0.000005
vn -1.000000 0.000000 0.000000
vn -1.000000 0.000000 0.000000
vn -1.000000 0.000000 0.000000
vn -1.000000 0.000000 0.000000
vn -1.000000 0.000000 0.000000
vn -1.000000 0.000000 0.000000
vn 0.000000 0.000000 -1.000000
vn 0.000000 0.000000 -1.000000
vn 0.000000 0.000000 -1.000000
vn 0.000000 0.000000 -1.000000
vn 1.000000 0.000000 0.000005
vn 1.000000 0.000000 0.000005
vn 0.000000 0.000000 1.000000
vn 0.000000 0.000000 1.000000
vn 0.000000 0.000000 1.000000
vn 0.000000 0.000000 1.000000
s off
g polySurface27 polySurface51
usemtl secondFloorWallSG
f 47/48/133 48/47/134 50/49/135 49/50/136
f 51/52/137 52/51/138 46/53/139 45/54/140
s 1
f 46/46/141 52/55/142 55/63/143 56/64/144
s 2
f 51/57/145 45/45/146 53/59/147 54/60/148
f 54/60/148 53/59/147 47/48/149 49/58/150
s off
f 49/50/151 50/49/152 55/62/153 54/61/154
s 1
f 56/64/144 55/63/143 50/56/155 48/47/156
s off
f 53/59/157 56/64/158 48/47/159 47/48/160
g default
v -34.079498 0.267939 26.589025
v -34.079498 0.267939 -26.320145
v -34.079498 21.160789 26.589025
v -34.079498 21.160789 -26.320145
v -34.384209 21.160789 26.589025
v -34.384209 21.160789 -26.320145
v -34.384209 0.267939 26.589025
v -34.384209 0.267939 -26.320145
vt 0.000000 0.000000
vt 1.000000 0.000000
vt 1.000000 1.000000
vt 0.000000 1.000000
vt 1.000000 1.000000
vt 0.000000 1.000000
vt 1.000000 0.000000
vt 0.000000 0.000000
vn 1.000000 0.000000 0.000000
vn 1.000000 0.000000 0.000000
vn 1.000000 0.000000 0.000000
vn 1.000000 0.000000 0.000000
vn 0.000000 1.000000 0.000000
vn 0.000000 1.000000 0.000000
vn 0.000000 1.000000 0.000000
vn 0.000000 1.000000 0.000000
vn -1.000000 0.000000 0.000000
vn -1.000000 0.000000 0.000000
vn -1.000000 0.000000 0.000000
vn -1.000000 0.000000 0.000000
vn 0.000000 -1.000000 0.000000
vn 0.000000 -1.000000 0.000000
vn 0.000000 -1.000000 0.000000
vn 0.000000 -1.000000 0.000000
vn 0.000000 0.000000 -1.000000
vn 0.000000 0.000000 -1.000000
vn 0.000000 0.000000 -1.000000
vn 0.000000 0.000000 -1.000000
vn 0.000000 0.000000 1.000000
vn 0.000000 0.000000 1.000000
vn 0.000000 0.000000 1.000000
vn 0.000000 0.000000 1.000000
s off
g polySurface27 polySurface44
usemtl lambert4SG
f 57/65/161 58/66/162 60/67/163 59/68/164
f 59/68/165 60/67/166 62/69/167 61/70/168
f 61/70/169 62/69/170 64/71/171 63/72/172
f 63/72/173 64/71/174 58/66/175 57/65/176
f 58/66/177 64/71/178 62/69/179 60/67/180
f 63/72/181 57/65/182 59/68/183 61/70/184
g default
v -34.505695 0.267939 -26.030273
v 34.032901 0.267939 -26.030273
v -34.505695 21.160787 -26.030273
v 34.032901 21.160787 -26.030273
v -34.505695 21.160787 -26.344255
v 34.032901 21.160787 -26.344255
v -34.505695 0.267939 -26.344255
v 34.032901 0.267939 -26.344255
v -34.505695 12.837515 -26.030273
v -34.505695 12.837516 -26.344255
v 34.032904 12.837516 -26.344255
v 34.032901 12.837515 -26.030273
vt 0.375000 0.000000
vt 0.625000 0.000000
vt 0.625000 0.250000
vt 0.375000 0.250000
vt 0.625000 0.500000
vt 0.375000 0.500000
vt 0.625000 0.750000
vt 0.375000 0.750000
vt 0.625000 1.000000
vt 0.375000 1.000000
vt 0.875000 0.000000
vt 0.875000 0.250000
vt 0.125000 0.000000
vt 0.125000 0.250000
vt 0.375000 0.150405
vt 0.125000 0.150405
vt 0.375000 0.599595
vt 0.625000 0.599595
vt 0.875000 0.150405
vt 0.625000 0.150405
vn 0.000000 1.000000 0.000000
vn 0.000000 1.000000 0.000000
vn 0.000000 1.000000 0.000000
vn 0.000000 1.000000 0.000000
vn 0.000000 -1.000000 0.000000
vn 0.000000 -1.000000 0.000000
vn 0.000000 -1.000000 0.000000
vn 0.000000 -1.000000 0.000000
vn 1.000000 -0.000000 0.000005
vn 1.000000 -0.000000 0.000005
vn 1.000000 0.000000 0.000005
vn 1.000000 -0.000000 0.000005
vn -1.000000 0.000000 0.000000
vn -1.000000 0.000000 0.000000
vn -1.000000 0.000000 0.000000
vn -1.000000 0.000000 0.000000
vn -1.000000 0.000000 0.000000
vn -1.000000 0.000000 0.000000
vn 0.000000 0.000000 -1.000000
vn 0.000000 0.000000 -1.000000
vn 0.000000 0.000000 -1.000000
vn 0.000000 0.000000 -1.000000
vn 1.000000 0.000000 0.000005
vn 1.000000 0.000000 0.000005
vn 0.000000 0.000000 1.000000
vn 0.000000 0.000000 1.000000
vn 0.000000 0.000000 1.000000
vn 0.000000 0.000000 1.000000
s off
g pasted__polySurface51 pasted__polySurface27 group58
usemtl secondFloorWallSG
f 67/76/185 68/75/186 70/77/187 69/78/188
f 71/80/189 72/79/190 66/81/191 65/82/192
s 1
f 66/74/193 72/83/194 75/91/195 76/92/196
s 2
f 71/85/197 65/73/198 73/87/199 74/88/200
f 74/88/200 73/87/199 67/76/201 69/86/202
s off
f 69/78/203 70/77/204 75/90/205 74/89/206
s 1
f 76/92/196 75/91/195 70/84/207 68/75/208
s off
f 73/87/209 76/92/210 68/75/211 67/76/212
