# This file uses centimeters as units for non-parametric coordinates.

mtllib sueloPlantaBaja.mtl
g default
v -40.019344 -0.055475 31.882188
v 39.558780 -0.055475 31.882188
v -40.019344 0.473209 31.882188
v 39.558780 0.473209 31.882188
v -40.019344 0.473209 -31.456263
v 39.558780 0.473209 -31.456263
v -40.019344 -0.055475 -31.456263
v 39.558780 -0.055475 -31.456263
vt 0.000000 -0.000000
vt 1.000000 -0.000000
vt 0.995277 0.004722
vt 0.004723 0.004722
vt 0.995277 0.995277
vt 0.004723 0.995277
vt 1.000000 1.000000
vt 0.000000 1.000000
vn 0.000000 0.000000 1.000000
vn 0.000000 0.000000 1.000000
vn 0.000000 0.000000 1.000000
vn 0.000000 0.000000 1.000000
vn 0.000000 1.000000 0.000000
vn 0.000000 1.000000 0.000000
vn 0.000000 1.000000 0.000000
vn 0.000000 1.000000 0.000000
vn 0.000000 0.000000 -1.000000
vn 0.000000 0.000000 -1.000000
vn 0.000000 0.000000 -1.000000
vn 0.000000 0.000000 -1.000000
vn 0.000000 -1.000000 0.000000
vn 0.000000 -1.000000 0.000000
vn 0.000000 -1.000000 0.000000
vn 0.000000 -1.000000 0.000000
vn 1.000000 0.000000 0.000000
vn 1.000000 0.000000 0.000000
vn 1.000000 0.000000 0.000000
vn 1.000000 0.000000 0.000000
vn -1.000000 0.000000 0.000000
vn -1.000000 0.000000 0.000000
vn -1.000000 0.000000 0.000000
vn -1.000000 0.000000 0.000000
s off
g pasted__polySurface67 pasted__polySurface27 group57
usemtl lambert8SG
f 1/1/1 2/2/2 4/3/3 3/4/4
f 3/4/5 4/3/6 6/5/7 5/6/8
f 5/6/9 6/5/10 8/7/11 7/8/12
f 7/8/13 8/7/14 2/2/15 1/1/16
f 2/2/17 8/7/18 6/5/19 4/3/20
f 7/8/21 1/1/22 3/4/23 5/6/24
