# This file uses centimeters as units for non-parametric coordinates.

mtllib ventanas.mtl
g default
v -34.670498 0.142319 26.917983
v 34.162692 0.142319 26.917983
v -34.670498 12.951474 26.917983
v 34.162692 12.951474 26.917983
v -34.670498 12.951474 26.777238
v 34.162692 12.951474 26.777238
v -34.670498 0.142319 26.777238
v 34.162692 0.142319 26.777238
vt 0.375000 0.000000
vt 0.625000 0.000000
vt 0.375000 0.250000
vt 0.625000 0.250000
vt 0.375000 0.500000
vt 0.625000 0.500000
vt 0.375000 0.750000
vt 0.625000 0.750000
vt 0.375000 1.000000
vt 0.625000 1.000000
vt 0.875000 0.000000
vt 0.875000 0.250000
vt 0.125000 0.000000
vt 0.125000 0.250000
vn 0.000000 0.000000 1.000000
vn 0.000000 0.000000 1.000000
vn 0.000000 0.000000 1.000000
vn 0.000000 0.000000 1.000000
vn 0.000000 1.000000 0.000000
vn 0.000000 1.000000 0.000000
vn 0.000000 1.000000 0.000000
vn 0.000000 1.000000 0.000000
vn 0.000000 0.000000 -1.000000
vn 0.000000 0.000000 -1.000000
vn 0.000000 0.000000 -1.000000
vn 0.000000 0.000000 -1.000000
vn 0.000000 -1.000000 0.000000
vn 0.000000 -1.000000 0.000000
vn 0.000000 -1.000000 0.000000
vn 0.000000 -1.000000 0.000000
vn 1.000000 0.000000 0.000000
vn 1.000000 0.000000 0.000000
vn 1.000000 0.000000 0.000000
vn 1.000000 0.000000 0.000000
vn -1.000000 0.000000 0.000000
vn -1.000000 0.000000 0.000000
vn -1.000000 0.000000 0.000000
vn -1.000000 0.000000 0.000000
s off
g pCube44
usemtl pasted__phong3SG
f 1/1/1 2/2/2 4/4/3 3/3/4
f 3/3/5 4/4/6 6/6/7 5/5/8
f 5/5/9 6/6/10 8/8/11 7/7/12
f 7/7/13 8/8/14 2/10/15 1/9/16
f 2/2/17 8/11/18 6/12/19 4/4/20
f 7/13/21 1/1/22 3/3/23 5/14/24
g default
v -17.765217 14.624999 13.514678
v 17.719484 14.624999 13.514678
v -17.765217 21.523985 13.514678
v 17.719484 21.523985 13.514678
v -17.765217 21.523985 13.213530
v 17.719484 21.523985 13.213530
v -17.765217 14.624999 13.213530
v 17.719484 14.624999 13.213530
vt -0.021989 0.354312
vt 1.021989 0.354312
vt 1.021989 0.645688
vt -0.021989 0.645688
vt 1.021080 0.645688
vt -0.021080 0.645688
vt 1.021080 0.354312
vt -0.021080 0.354312
vn 0.000000 0.000000 1.000000
vn 0.000000 0.000000 1.000000
vn 0.000000 0.000000 1.000000
vn 0.000000 0.000000 1.000000
vn 0.000000 1.000000 0.000000
vn 0.000000 1.000000 0.000000
vn 0.000000 1.000000 0.000000
vn 0.000000 1.000000 0.000000
vn 0.000000 0.000000 -1.000000
vn 0.000000 0.000000 -1.000000
vn 0.000000 0.000000 -1.000000
vn 0.000000 0.000000 -1.000000
vn 0.000000 -1.000000 0.000000
vn 0.000000 -1.000000 0.000000
vn 0.000000 -1.000000 0.000000
vn 0.000000 -1.000000 0.000000
vn 1.000000 0.000000 0.000000
vn 1.000000 0.000000 0.000000
vn 1.000000 0.000000 0.000000
vn 1.000000 0.000000 0.000000
vn -1.000000 0.000000 0.000000
vn -1.000000 0.000000 0.000000
vn -1.000000 0.000000 0.000000
vn -1.000000 0.000000 0.000000
s off
g pasted__pCube23 group60
usemtl pasted__phong3SG
f 9/15/25 10/16/26 12/17/27 11/18/28
f 11/18/29 12/17/30 14/19/31 13/20/32
f 13/20/33 14/19/34 16/21/35 15/22/36
f 15/22/37 16/21/38 10/16/39 9/15/40
f 10/16/41 16/21/42 14/19/43 12/17/44
f 15/22/45 9/15/46 11/18/47 13/20/48
g default
v -17.765217 14.624999 -12.258423
v 17.719484 14.624999 -12.258423
v -17.765217 21.523985 -12.258423
v 17.719484 21.523985 -12.258423
v -17.765217 21.523985 -12.559569
v 17.719484 21.523985 -12.559569
v -17.765217 14.624999 -12.559569
v 17.719484 14.624999 -12.559569
vt -0.021989 0.354312
vt 1.021989 0.354312
vt 1.021989 0.645688
vt -0.021989 0.645688
vt 1.021080 0.645688
vt -0.021080 0.645688
vt 1.021080 0.354312
vt -0.021080 0.354312
vn 0.000000 0.000000 1.000000
vn 0.000000 0.000000 1.000000
vn 0.000000 0.000000 1.000000
vn 0.000000 0.000000 1.000000
vn 0.000000 1.000000 0.000000
vn 0.000000 1.000000 0.000000
vn 0.000000 1.000000 0.000000
vn 0.000000 1.000000 0.000000
vn 0.000000 0.000000 -1.000000
vn 0.000000 0.000000 -1.000000
vn 0.000000 0.000000 -1.000000
vn 0.000000 0.000000 -1.000000
vn 0.000000 -1.000000 0.000000
vn 0.000000 -1.000000 0.000000
vn 0.000000 -1.000000 0.000000
vn 0.000000 -1.000000 0.000000
vn 1.000000 0.000000 0.000000
vn 1.000000 0.000000 0.000000
vn 1.000000 0.000000 0.000000
vn 1.000000 0.000000 0.000000
vn -1.000000 0.000000 0.000000
vn -1.000000 0.000000 0.000000
vn -1.000000 0.000000 0.000000
vn -1.000000 0.000000 0.000000
s off
g group60 pasted__pCube14
usemtl pasted__phong3SG
f 17/23/49 18/24/50 20/25/51 19/26/52
f 19/26/53 20/25/54 22/27/55 21/28/56
f 21/28/57 22/27/58 24/29/59 23/30/60
f 23/30/61 24/29/62 18/24/63 17/23/64
f 18/24/65 24/29/66 22/27/67 20/25/68
f 23/30/69 17/23/70 19/26/71 21/28/72
g default
v -20.133291 14.624999 -11.154035
v -33.826530 14.624999 -11.154035
v -20.133291 21.523985 -11.154035
v -33.826530 21.523985 -11.154035
v -20.133291 21.523985 -10.927993
v -33.826530 21.523985 -10.927993
v -20.133291 14.624999 -10.927993
v -33.826530 14.624999 -10.927993
vt 0.770160 0.307692
vt 0.229840 0.307692
vt 0.229840 0.692308
vt 0.770160 0.692308
vt 0.229840 0.692308
vt 0.770160 0.692308
vt 0.229840 0.307692
vt 0.770160 0.307692
vn 0.000000 0.000000 -1.000000
vn 0.000000 0.000000 -1.000000
vn 0.000000 0.000000 -1.000000
vn 0.000000 0.000000 -1.000000
vn 0.000000 1.000000 0.000000
vn 0.000000 1.000000 0.000000
vn 0.000000 1.000000 0.000000
vn 0.000000 1.000000 0.000000
vn 0.000000 0.000000 1.000000
vn 0.000000 0.000000 1.000000
vn 0.000000 0.000000 1.000000
vn 0.000000 0.000000 1.000000
vn 0.000000 -1.000000 0.000000
vn 0.000000 -1.000000 0.000000
vn 0.000000 -1.000000 0.000000
vn 0.000000 -1.000000 0.000000
vn -1.000000 0.000000 0.000000
vn -1.000000 0.000000 0.000000
vn -1.000000 0.000000 0.000000
vn -1.000000 0.000000 0.000000
vn 1.000000 0.000000 0.000000
vn 1.000000 0.000000 0.000000
vn 1.000000 0.000000 0.000000
vn 1.000000 0.000000 0.000000
s off
g group60 pasted__pCube19
usemtl pasted__phong3SG
f 25/31/73 26/32/74 28/33/75 27/34/76
f 27/34/77 28/33/78 30/35/79 29/36/80
f 29/36/81 30/35/82 32/37/83 31/38/84
f 31/38/85 32/37/86 26/32/87 25/31/88
f 26/32/89 32/37/90 30/35/91 28/33/92
f 31/38/93 25/31/94 27/34/95 29/36/96
g default
v -20.133291 14.624999 11.600768
v -33.826530 14.624999 11.600768
v -20.133291 21.523985 11.600768
v -33.826530 21.523985 11.600768
v -20.133291 21.523985 11.901912
v -33.826530 21.523985 11.901912
v -20.133291 14.624999 11.901912
v -33.826530 14.624999 11.901912
vt 0.770160 0.307692
vt 0.229840 0.307692
vt 0.229840 0.692308
vt 0.770160 0.692308
vt 0.229840 0.692308
vt 0.770160 0.692308
vt 0.229840 0.307692
vt 0.770160 0.307692
vn 0.000000 0.000000 -1.000000
vn 0.000000 0.000000 -1.000000
vn 0.000000 0.000000 -1.000000
vn 0.000000 0.000000 -1.000000
vn 0.000000 1.000000 0.000000
vn 0.000000 1.000000 0.000000
vn 0.000000 1.000000 0.000000
vn 0.000000 1.000000 0.000000
vn 0.000000 0.000000 1.000000
vn 0.000000 0.000000 1.000000
vn 0.000000 0.000000 1.000000
vn 0.000000 0.000000 1.000000
vn 0.000000 -1.000000 0.000000
vn 0.000000 -1.000000 0.000000
vn 0.000000 -1.000000 0.000000
vn 0.000000 -1.000000 0.000000
vn -1.000000 0.000000 0.000000
vn -1.000000 0.000000 0.000000
vn -1.000000 0.000000 0.000000
vn -1.000000 0.000000 0.000000
vn 1.000000 0.000000 0.000000
vn 1.000000 0.000000 0.000000
vn 1.000000 0.000000 0.000000
vn 1.000000 0.000000 0.000000
s off
g group60 pasted__pCube24
usemtl pasted__phong3SG
f 33/39/97 34/40/98 36/41/99 35/42/100
f 35/42/101 36/41/102 38/43/103 37/44/104
f 37/44/105 38/43/106 40/45/107 39/46/108
f 39/46/109 40/45/110 34/40/111 33/39/112
f 34/40/113 40/45/114 38/43/115 36/41/116
f 39/46/117 33/39/118 35/42/119 37/44/120
g default
v -34.670498 0.142319 -26.250556
v 34.162692 0.142319 -26.250556
v -34.670498 12.951474 -26.250556
v 34.162692 12.951474 -26.250556
v -34.670498 12.951474 -26.391301
v 34.162692 12.951474 -26.391301
v -34.670498 0.142319 -26.391301
v 34.162692 0.142319 -26.391301
vt 0.375000 0.000000
vt 0.625000 0.000000
vt 0.375000 0.250000
vt 0.625000 0.250000
vt 0.375000 0.500000
vt 0.625000 0.500000
vt 0.375000 0.750000
vt 0.625000 0.750000
vt 0.375000 1.000000
vt 0.625000 1.000000
vt 0.875000 0.000000
vt 0.875000 0.250000
vt 0.125000 0.000000
vt 0.125000 0.250000
vn 0.000000 0.000000 1.000000
vn 0.000000 0.000000 1.000000
vn 0.000000 0.000000 1.000000
vn 0.000000 0.000000 1.000000
vn 0.000000 1.000000 0.000000
vn 0.000000 1.000000 0.000000
vn 0.000000 1.000000 0.000000
vn 0.000000 1.000000 0.000000
vn 0.000000 0.000000 -1.000000
vn 0.000000 0.000000 -1.000000
vn 0.000000 0.000000 -1.000000
vn 0.000000 0.000000 -1.000000
vn 0.000000 -1.000000 0.000000
vn 0.000000 -1.000000 0.000000
vn 0.000000 -1.000000 0.000000
vn 0.000000 -1.000000 0.000000
vn 1.000000 0.000000 0.000000
vn 1.000000 0.000000 0.000000
vn 1.000000 0.000000 0.000000
vn 1.000000 0.000000 0.000000
vn -1.000000 0.000000 0.000000
vn -1.000000 0.000000 0.000000
vn -1.000000 0.000000 0.000000
vn -1.000000 0.000000 0.000000
s off
g pCube43
usemtl pasted__phong3SG
f 41/47/121 42/48/122 44/50/123 43/49/124
f 43/49/125 44/50/126 46/52/127 45/51/128
f 45/51/129 46/52/130 48/54/131 47/53/132
f 47/53/133 48/54/134 42/56/135 41/55/136
f 42/48/137 48/57/138 46/58/139 44/50/140
f 47/59/141 41/47/142 43/49/143 45/60/144
g default
v 20.762747 14.625003 10.894629
v 20.762747 14.625003 -10.729295
v 20.762747 21.523989 10.894629
v 20.762747 21.523989 -10.729295
v 20.461601 21.523989 10.894629
v 20.461601 21.523989 -10.729297
v 20.461601 14.625003 10.894629
v 20.461601 14.625003 -10.729297
vt 0.000000 0.382284
vt 1.000000 0.382284
vt 1.000000 0.617716
vt 0.000000 0.617716
vt 1.000000 0.617716
vt 0.000000 0.617716
vt 1.000000 0.382284
vt 0.000000 0.382284
vn 1.000000 0.000000 0.000000
vn 1.000000 0.000000 0.000000
vn 1.000000 0.000000 0.000000
vn 1.000000 0.000000 0.000000
vn 0.000000 1.000000 0.000000
vn 0.000000 1.000000 0.000000
vn 0.000000 1.000000 0.000000
vn 0.000000 1.000000 0.000000
vn -1.000000 0.000000 0.000000
vn -1.000000 0.000000 0.000000
vn -1.000000 0.000000 0.000000
vn -1.000000 0.000000 0.000000
vn 0.000000 -1.000000 0.000000
vn 0.000000 -1.000000 0.000000
vn 0.000000 -1.000000 0.000000
vn 0.000000 -1.000000 0.000000
vn 0.000007 0.000000 -1.000000
vn 0.000007 0.000000 -1.000000
vn 0.000007 0.000000 -1.000000
vn 0.000007 0.000000 -1.000000
vn 0.000000 0.000000 1.000000
vn 0.000000 0.000000 1.000000
vn 0.000000 0.000000 1.000000
vn 0.000000 0.000000 1.000000
s off
g group60 pasted__pCube18
usemtl pasted__phong3SG
f 49/61/145 50/62/146 52/63/147 51/64/148
f 51/64/149 52/63/150 54/65/151 53/66/152
f 53/66/153 54/65/154 56/67/155 55/68/156
f 55/68/157 56/67/158 50/62/159 49/61/160
f 50/62/161 56/67/162 54/65/163 52/63/164
f 55/68/165 49/61/166 51/64/167 53/66/168
