# This file uses centimeters as units for non-parametric coordinates.

mtllib rueda-izquierda.mtl
g default
v -0.058908 -0.051346 0.123944
v -0.058908 -0.111556 -0.074532
v -0.074876 0.060240 -0.090154
v -0.074876 -0.021154 -0.106341
v -0.074876 -0.100180 0.041493
v -0.074876 0.106345 -0.021155
v -0.074876 -0.076673 0.076669
v -0.074876 -0.000003 0.108426
v -0.074876 0.060240 0.090151
v -0.074876 -0.108433 0.000001
v -0.074876 -0.076673 -0.076669
v -0.074876 0.106345 0.021153
v -0.120263 -0.000003 0.106702
v -0.133408 -0.062645 0.062638
v -0.120263 0.075451 -0.075452
v -0.120263 0.040831 -0.098582
v -0.120263 0.075451 0.075450
v -0.120263 -0.075456 -0.075452
v -0.120263 0.106696 0.000001
v -0.133408 0.073654 0.049213
v -0.120263 -0.088728 0.059279
v -0.133408 -0.081846 -0.033901
v 0.119233 -0.127502 -0.052811
v 0.119233 -0.052815 -0.127497
v 0.119233 -0.000003 -0.138002
v 0.119233 0.052809 -0.127497
v 0.119233 0.114740 -0.076669
v 0.119233 0.135348 -0.026925
v 0.119233 0.114745 0.076669
v 0.119233 0.076667 0.114744
v 0.119233 -0.000003 0.138002
v 0.119233 -0.097583 0.097582
v 0.119233 -0.135348 0.026923
v -0.058908 -0.131578 0.026172
v -0.058908 -0.094865 0.094864
v -0.058908 -0.000003 0.134155
v -0.058908 0.051341 0.123944
v -0.058908 0.094865 0.094864
v -0.058908 0.123940 0.051340
v -0.058908 0.134154 0.000001
v -0.058908 0.111545 -0.074532
v -0.058908 0.074530 -0.111546
v -0.058908 0.026168 -0.131580
v -0.058908 -0.074536 -0.111546
v 0.133408 0.108570 -0.044975
v 0.133408 -0.065297 -0.097710
v 0.133408 0.022924 -0.115262
v 0.133408 0.108570 0.044972
v 0.133408 -0.022929 0.115259
v 0.133408 -0.097715 0.065288
vt 0.064153 0.411527
vt 0.281075 0.507597
vt 0.518462 0.379001
vt 0.560834 0.369703
vt 0.445109 0.436744
vt 0.485090 0.414617
vt 0.561180 0.374942
vt 0.261810 0.549839
vt 0.403581 0.459115
vt 0.276740 0.534972
vt 0.311545 0.508254
vt 0.341113 0.491303
vt 0.552677 0.382428
vt 0.514683 0.399535
vt 0.382512 0.470025
vt 0.564892 0.388902
vt 0.575057 0.419127
vt 0.337759 0.549267
vt 0.462291 0.484875
vt 0.482327 0.472634
vt 0.375716 0.530563
vt 0.539324 0.439567
vt 0.298766 0.576805
vt 0.445944 0.593102
vt 0.463524 0.501816
vt 0.480093 0.513404
vt 0.393129 0.549451
vt 0.497650 0.568250
vt 0.418235 0.507971
vt 0.405737 0.538871
vt 0.455578 0.603770
vt 0.482741 0.577454
vt 0.410721 0.585994
vt 0.508254 0.296867
vt 0.458639 0.314277
vt 0.434386 0.325051
vt 0.411361 0.336775
vt 0.378081 0.354085
vt 0.354566 0.364937
vt 0.307917 0.388600
vt 0.283780 0.401540
vt 0.246786 0.423982
vt 0.197479 0.466981
vt 0.176412 0.505029
vt 0.543778 0.287116
vt 0.560224 0.363678
vt 0.240205 0.549856
vt 0.263774 0.523077
vt 0.299994 0.493817
vt 0.320214 0.481676
vt 0.341095 0.470332
vt 0.362282 0.459345
vt 0.383660 0.448386
vt 0.415521 0.431835
vt 0.436401 0.420527
vt 0.457044 0.409358
vt 0.497994 0.388366
vt 0.080681 0.494705
vt 0.083698 0.410643
vt 0.154072 0.383043
vt 0.080200 0.391711
vt 0.128618 0.376749
vt 0.056952 0.448905
vt 0.130279 0.510936
vt 0.187236 0.408792
vt 0.064037 0.474115
vt 0.171195 0.499910
vt 0.100199 0.488952
vt 0.074427 0.457966
vt 0.118846 0.392316
vt 0.180009 0.428660
vt 0.176525 0.470159
vn -0.807003 0.226003 0.545590
vn -0.529166 0.324701 0.783934
vn -0.529166 0.165523 0.832217
vn -0.529166 -0.324701 -0.783934
vn -0.964222 -0.101447 -0.244917
vn -0.964222 -0.051698 -0.260005
vn -0.964235 -0.265047 -0.000001
vn -0.529165 -0.848519 -0.000005
vn -0.529165 -0.832218 0.165524
vn -0.529165 -0.832218 0.165524
vn -0.964222 -0.260005 0.051699
vn -0.964235 -0.265047 -0.000001
vn -0.529166 0.848518 0.000004
vn -0.964222 0.265095 0.000001
vn -0.964222 0.260005 0.051700
vn -0.529166 -0.705520 0.471408
vn -0.964222 -0.220422 0.147272
vn -0.964223 -0.244915 0.101446
vn -0.964222 -0.220422 0.147272
vn -0.529166 -0.705520 0.471408
vn -0.529167 -0.599996 0.599990
vn -0.529167 -0.832217 -0.165524
vn -0.964222 -0.260005 -0.051699
vn -0.964236 -0.244869 -0.101429
vn -0.529166 0.783934 -0.324701
vn -0.964222 0.244916 -0.101448
vn -0.964222 0.260004 -0.051699
vn -0.529166 -0.471414 0.705515
vn -0.964222 -0.147273 0.220422
vn -0.964236 -0.187415 0.187414
vn -0.964222 0.244916 -0.101448
vn -0.529166 0.783934 -0.324701
vn -0.529166 0.705520 -0.471408
vn -0.964222 -0.101447 0.244915
vn -0.529167 -0.324700 0.783934
vn -0.529166 -0.165524 0.832217
vn -0.964236 0.187414 -0.187416
vn -0.529166 0.599996 -0.599990
vn -0.529165 0.471408 -0.705521
vn -0.529166 0.165523 0.832217
vn -0.964222 0.051698 0.260005
vn -0.964236 -0.000001 0.265044
vn -0.964223 0.101446 -0.244915
vn -0.529166 0.324719 -0.783927
vn -0.529166 0.165524 -0.832217
vn -0.529166 0.000004 -0.848518
vn -0.964236 0.000001 -0.265044
vn -0.964222 0.051698 -0.260005
vn -0.964236 0.000001 -0.265044
vn -0.529166 0.000004 -0.848518
vn -0.529166 -0.165524 -0.832217
vn -0.964236 0.101428 0.244869
vn -0.806993 -0.225998 -0.545607
vn -0.806993 -0.115190 -0.579218
vn -0.964223 0.220421 0.147272
vn -0.806993 -0.491033 -0.328099
vn -0.806994 -0.417589 -0.417589
vn -0.964223 -0.147273 -0.220420
vn -0.806992 0.328097 0.491036
vn -0.806994 0.225997 0.545607
vn -0.806993 -0.491033 -0.328099
vn -0.964223 0.220421 0.147272
vn -0.964222 0.244917 0.101447
vn -0.806993 -0.579218 -0.115191
vn -0.964222 0.260005 0.051700
vn -0.964222 0.265095 0.000001
vn -0.964236 -0.244869 -0.101429
vn -0.806993 0.545607 0.225999
vn -0.806993 0.491033 0.328097
vn 0.000006 -0.980785 -0.195091
vn -0.422678 -0.888867 -0.176802
vn -0.422681 -0.837297 -0.346807
vn -0.422678 0.888867 -0.176802
vn -0.000000 0.980785 -0.195091
vn -0.000000 0.923879 -0.382685
vn -0.422680 0.176800 -0.888866
vn -0.000000 0.195090 -0.980785
vn 0.000000 -0.000001 -1.000000
vn -0.422679 -0.000001 -0.906279
vn 0.000000 -0.000001 -1.000000
vn 0.000000 -0.195091 -0.980785
vn -0.802528 0.421870 -0.421871
vn -0.962496 0.191836 -0.191835
vn -0.962498 0.225570 -0.150719
vn -0.802525 0.228298 0.551211
vn -0.962493 0.103812 0.250658
vn -0.962483 0.052924 0.266130
vn -0.962493 0.103812 0.250658
vn -0.802525 0.228298 0.551211
vn -0.802496 0.331478 0.496107
vn -0.802496 -0.228313 -0.551248
vn -0.962493 -0.103811 -0.250659
vn -0.962498 -0.052913 -0.266080
vn -0.962491 0.250667 0.103815
vn -0.802525 0.551211 0.228298
vn -0.802525 0.585157 0.116382
vn -0.962490 -0.250670 -0.103816
vn -0.802497 -0.551246 -0.228313
vn -0.802527 -0.585154 -0.116382
vn -0.962486 0.266122 -0.052923
vn -0.802526 0.585157 -0.116381
vn -0.802526 0.551210 -0.228298
vn -0.962496 -0.191835 0.191834
vn -0.802526 -0.421872 0.421873
vn -0.802557 -0.331433 0.496039
vn -0.802526 -0.596617 0.000000
vn -0.962483 -0.271343 -0.000001
vn -0.962486 -0.266119 -0.052922
vn -1.000000 0.000000 -0.000000
vn -1.000000 -0.000000 0.000000
vn -1.000000 -0.000000 0.000001
vn -1.000000 -0.000000 -0.000001
vn -1.000000 -0.000000 -0.000000
vn -1.000000 -0.000000 -0.000000
vn -0.028676 -0.831128 0.555341
vn -0.028674 -0.923500 0.382526
vn -0.025739 -0.923574 0.382556
vn -0.025739 -0.923574 0.382556
vn -0.025737 -0.831194 0.555387
vn -0.028676 -0.831128 0.555341
vn -0.028673 -0.382526 0.923500
vn -0.028674 -0.555342 0.831128
vn -0.025740 -0.555386 0.831194
vn -0.025740 -0.382556 0.923574
vn -0.025739 -0.195025 0.980460
vn -0.028674 -0.195010 0.980382
vn -0.028674 0.000000 0.999589
vn -0.028674 -0.195010 0.980382
vn -0.025739 -0.195025 0.980460
vn -0.028674 0.382527 0.923499
vn -0.028674 0.195010 0.980382
vn -0.025739 0.195026 0.980460
vn -0.025739 0.195026 0.980460
vn -0.025739 0.382557 0.923573
vn -0.028674 0.382527 0.923499
vn -0.028675 0.706815 0.706817
vn -0.028673 0.555342 0.831128
vn -0.025739 0.555387 0.831194
vn -0.025739 0.555387 0.831194
vn -0.025739 0.706873 0.706872
vn -0.028675 0.706815 0.706817
vn -0.028674 0.923500 0.382526
vn -0.028674 0.831128 0.555342
vn -0.025739 0.831194 0.555386
vn -0.028674 0.999589 -0.000000
vn -0.028674 0.980382 0.195010
vn -0.025739 0.980460 0.195026
vn -0.025739 0.980460 0.195026
vn -0.025740 0.999669 -0.000000
vn -0.028674 0.999589 -0.000000
vn -0.028674 0.923499 -0.382527
vn -0.028674 0.980382 -0.195010
vn -0.025739 0.980460 -0.195026
vn -0.025739 0.980460 -0.195026
vn -0.025740 0.923573 -0.382558
vn -0.028674 0.923499 -0.382527
vn -0.028674 0.555342 -0.831127
vn -0.028674 0.706817 -0.706815
vn -0.025739 0.706873 -0.706872
vn -0.025739 0.706873 -0.706872
vn -0.025739 0.555386 -0.831194
vn -0.028674 0.555342 -0.831127
vn -0.028674 0.195010 -0.980382
vn -0.028674 0.382526 -0.923499
vn -0.025740 0.382556 -0.923574
vn -0.025740 0.382556 -0.923574
vn -0.025740 0.195026 -0.980460
vn -0.028674 0.195010 -0.980382
vn -0.028674 -0.195011 -0.980382
vn -0.028674 0.000000 -0.999589
vn -0.025739 -0.000000 -0.999669
vn -0.025739 -0.000000 -0.999669
vn -0.025740 -0.195025 -0.980460
vn -0.028674 -0.195011 -0.980382
vn -0.028676 -0.831128 -0.555341
vn -0.028675 -0.706815 -0.706817
vn -0.025739 -0.706872 -0.706873
vn -0.025739 -0.706872 -0.706873
vn -0.025739 -0.831194 -0.555387
vn -0.028676 -0.831128 -0.555341
vn -0.028674 -0.980382 -0.195010
vn -0.028674 -0.923500 -0.382525
vn -0.025738 -0.923574 -0.382556
vn -0.025739 -0.980461 -0.195024
vn -0.025740 -0.999669 -0.000000
vn -0.028674 -0.999589 -0.000000
vn 0.789465 0.602009 0.119708
vn -0.000000 0.980785 0.195090
vn 0.000000 0.923879 0.382684
vn 0.000001 -1.000000 0.000000
vn 0.789465 -0.613795 -0.000023
vn 0.789465 -0.602009 0.119709
vn 0.000003 0.831470 0.555570
vn 0.789465 0.510374 0.340975
vn 0.789465 0.567065 0.234910
vn 0.000000 -0.382683 -0.923880
vn 0.789465 -0.234855 -0.567088
vn 0.789465 -0.340976 -0.510373
vn 0.789465 0.340975 0.510374
vn 0.000003 0.555569 0.831471
vn 0.000000 0.382684 0.923879
vn 0.000000 0.195090 0.980785
vn 0.789465 0.119708 0.602009
vn 0.789465 0.234855 0.567088
vn 0.789465 0.340976 -0.510373
vn -0.000000 0.555572 -0.831468
vn 0.000005 0.707106 -0.707107
vn -0.000003 -0.555569 0.831470
vn 0.789465 -0.340975 0.510373
vn 0.789465 -0.234854 0.567088
vn -0.000000 0.923879 -0.382685
vn 0.789465 0.567082 -0.234869
vn 0.789464 0.510374 -0.340976
vn 0.789465 -0.340975 0.510373
vn -0.000003 -0.555569 0.831470
vn 0.000000 -0.707106 0.707107
vn -0.000002 -0.831469 0.555571
vn 0.789465 -0.510374 0.340975
vn 0.789465 -0.434004 0.434034
vn -0.000000 1.000000 -0.000000
vn 0.789465 0.613796 0.000023
vn 0.789465 0.602003 -0.119742
vn 0.000000 -0.831469 -0.555570
vn 0.789465 -0.510355 -0.341004
vn 0.789465 -0.567064 -0.234911
vn 0.806997 -0.491061 -0.328047
vn 0.764424 -0.536066 -0.358174
vn 0.764426 -0.455854 -0.455905
vn 0.806997 0.590555 -0.000012
vn 0.764425 0.644713 -0.000012
vn 0.764426 0.632325 0.125765
vn 0.806997 0.328047 -0.491061
vn 0.764426 0.358171 -0.536065
vn 0.764425 0.455856 -0.455906
vn 0.764425 0.455856 -0.455906
vn 0.806997 0.417578 -0.417594
vn 0.806997 0.328047 -0.491061
vn 0.764424 -0.125765 0.632328
vn 0.806997 -0.115133 0.579224
vn 0.806997 0.000012 0.590555
vn 0.764424 -0.595643 -0.246710
vn 0.806998 -0.545599 -0.226001
vn 0.806997 -0.579215 -0.115178
vn 0.806997 0.545589 -0.226028
vn 0.764425 0.595632 -0.246732
vn 0.764420 0.632328 -0.125789
vn 0.806997 0.115155 -0.579219
vn 0.764426 0.125765 -0.632327
vn 0.764424 0.246710 -0.595643
vn 0.806997 0.226005 0.545598
vn 0.764424 0.246733 0.595633
vn 0.764425 0.125788 0.632322
vn 0.764423 -0.358193 -0.536055
vn 0.806997 -0.328046 -0.491061
vn 0.806997 -0.417578 -0.417593
vn 0.764421 0.595646 0.246713
vn 0.806997 0.545607 0.225985
vn 0.806997 0.579211 0.115200
vn 0.769740 -0.589766 0.244287
vn 0.769739 -0.638359 -0.000004
vn 0.769745 -0.626074 -0.124593
vn 0.769740 -0.589766 0.244287
vn 0.769715 -0.124542 -0.626121
vn 0.769752 -0.000010 -0.638343
vn 0.769740 -0.589766 0.244287
vn 0.769716 0.244301 -0.589792
vn 0.769744 0.354629 -0.530785
vn 0.769740 -0.589766 0.244287
vn 0.769742 0.638355 0.000009
vn 0.769744 0.626087 0.124539
vn 0.769740 -0.589766 0.244287
vn 0.769752 0.451370 0.451383
vn 0.769715 0.354651 0.530812
vn 0.806997 -0.417577 0.417593
vn 0.769739 -0.451385 0.451391
vn 0.769745 -0.354634 0.530780
vn 0.806998 0.000012 -0.590555
vn 0.769752 -0.000010 -0.638343
vn 0.769715 -0.124542 -0.626121
vn 0.806997 0.328085 0.491035
vn 0.769715 0.354651 0.530812
vn 0.769752 0.451370 0.451383
vn 0.769744 0.626087 0.124539
vn 0.806997 0.579211 0.115200
vn 0.806997 0.545607 0.225985
vn 0.769739 -0.451385 0.451391
vn 0.806997 -0.417577 0.417593
vn 0.806997 -0.491022 0.328105
s off
g polySurface2210 MicroscopeFBXASC046003
usemtl MicroscopeSG1
f 37/50/1 38/51/2 36/49/3
f 44/57/4 2/3/5 4/6/6
f 10/13/7 34/46/8 35/4/9
f 35/4/10 5/7/11 10/13/12
f 40/53/13 6/9/14 39/52/15
f 35/48/16 7/10/17 5/8/18
f 7/10/19 35/48/20 1/2/21
f 34/46/22 10/13/23 2/3/24
f 40/53/25 3/5/26 6/9/27
f 1/2/28 8/11/29 7/10/30
f 3/5/31 40/53/32 41/54/33
f 8/11/34 1/2/35 36/49/36
f 3/5/37 41/54/38 42/55/39
f 36/49/40 38/51/41 8/11/42
f 3/5/43 42/55/44 43/56/45
f 43/56/46 4/6/47 3/5/48
f 4/6/49 43/56/50 44/57/51
f 38/51/52 9/12/53 8/11/54
f 38/51/55 12/15/56 9/12/57
f 2/3/58 11/14/59 4/6/60
f 12/15/61 38/51/62 39/52/63
f 12/15/64 39/52/65 6/9/66
f 2/3/67 10/13/68 11/14/69
f 10/13/70 21/17/71 18/22/72
f 19/29/73 6/9/74 15/25/75
f 16/20/76 3/5/77 4/6/78
f 16/20/79 4/6/80 18/22/81
f 15/25/82 16/26/83 20/30/84
f 13/33/85 20/30/86 14/24/87
f 20/30/88 13/33/89 17/27/90
f 18/28/91 22/32/92 16/26/93
f 20/30/94 17/21/95 19/29/96
f 22/32/97 18/28/98 21/31/99
f 20/30/100 19/29/101 15/25/102
f 14/24/103 21/31/104 13/33/105
f 21/31/106 14/24/107 22/32/108
f 22/32/109 14/24/110 20/30/111
f 16/26/112 22/32/113 20/30/114
f 35/48/115 34/47/116 33/44/117
f 33/44/118 32/43/119 35/48/120
f 1/2/121 35/48/122 32/43/123
f 32/43/124 31/42/125 1/2/126
f 36/49/127 1/2/128 31/42/129
f 37/50/130 36/49/131 31/42/132
f 31/42/133 30/41/134 37/50/135
f 38/51/136 37/50/137 30/41/138
f 30/41/139 29/40/140 38/51/141
f 39/52/142 38/51/143 29/40/144
f 40/53/145 39/52/146 29/40/147
f 29/40/148 28/39/149 40/53/150
f 41/54/151 40/53/152 28/39/153
f 28/39/154 27/38/155 41/54/156
f 42/55/157 41/54/158 27/38/159
f 27/38/160 26/37/161 42/55/162
f 43/56/163 42/55/164 26/37/165
f 26/37/166 25/36/167 43/56/168
f 44/57/169 43/56/170 25/36/171
f 25/36/172 24/35/173 44/57/174
f 2/3/175 44/57/176 24/35/177
f 24/35/178 23/34/179 2/3/180
f 34/46/181 2/3/182 23/34/183
f 23/34/184 33/45/185 34/46/186
f 12/15/187 19/29/188 17/21/189
f 21/17/190 10/13/191 5/16/192
f 17/21/193 9/12/194 12/15/195
f 18/22/196 4/6/197 11/14/198
f 9/12/199 17/21/200 13/18/201
f 13/18/202 8/11/203 9/12/204
f 3/5/205 16/20/206 15/19/207
f 13/18/208 7/10/209 8/11/210
f 15/25/211 6/9/212 3/5/213
f 7/10/214 13/18/215 21/23/216
f 21/23/217 5/8/218 7/10/219
f 19/29/220 12/15/221 6/9/222
f 18/22/223 11/14/224 10/13/225
f 46/68/226 23/64/227 24/58/228
f 45/59/229 28/61/230 29/62/231
f 47/69/232 26/63/233 27/1/234
f 27/1/235 45/59/236 47/69/237
f 31/65/238 32/43/239 49/71/240
f 23/64/241 46/68/242 33/67/243
f 45/59/244 27/1/245 28/61/246
f 47/69/247 25/66/248 26/63/249
f 49/71/250 30/60/251 31/65/252
f 24/58/253 25/66/254 46/68/255
f 29/62/256 30/60/257 45/59/258
f 50/72/259 33/67/260 46/68/261
f 50/72/262 46/68/263 47/69/264
f 50/72/265 47/69/266 45/59/267
f 50/72/268 45/59/269 48/70/270
f 50/72/271 48/70/272 49/71/273
f 32/43/274 50/72/275 49/71/276
f 25/66/277 47/69/278 46/68/279
f 30/60/280 49/71/281 48/70/282
f 48/70/283 45/59/284 30/60/285
f 50/72/286 32/43/287 33/67/288
