# This file uses centimeters as units for non-parametric coordinates.

mtllib rueda-derecha.mtl
g default
v -0.119233 -0.097583 0.097582
v -0.119233 -0.000003 0.138002
v -0.119233 0.114745 0.076669
v -0.119233 0.135348 -0.026925
v -0.119233 0.114740 -0.076669
v -0.119233 0.052809 -0.127497
v -0.119233 -0.052815 -0.127497
v -0.119233 -0.127502 -0.052811
v 0.058908 0.051341 0.123944
v 0.058908 0.094865 0.094864
v 0.058908 -0.074536 -0.111546
v 0.058908 -0.094865 0.094864
v 0.058908 0.134154 0.000001
v 0.058908 -0.051346 0.123944
v 0.058908 -0.131578 0.026172
v 0.058908 0.111545 -0.074532
v 0.058908 -0.000003 0.134155
v 0.058908 0.026168 -0.131580
v 0.058908 -0.111556 -0.074532
v 0.058908 0.123940 0.051340
v 0.074881 0.106345 0.021153
v 0.074881 -0.100180 0.041493
v 0.074881 -0.076673 -0.076669
v 0.074881 -0.108433 0.000001
v 0.074881 0.090147 -0.060241
v 0.074881 -0.076673 0.076669
v 0.074881 -0.000003 0.108426
v 0.074881 0.060240 -0.090154
v 0.074881 0.060240 0.090151
v 0.074881 -0.021154 -0.106341
v 0.120263 -0.000003 0.106702
v 0.120263 -0.104652 0.020818
v 0.120263 0.088717 -0.059282
v 0.120263 0.040831 -0.098582
v 0.120263 -0.020814 -0.104653
v 0.120263 0.075451 0.075450
v 0.120263 -0.075456 -0.075452
v 0.120263 0.106696 0.000001
v 0.133408 -0.062645 0.062638
v 0.133408 0.017280 -0.086883
v 0.133408 0.073654 0.049213
v -0.119233 -0.135348 0.026923
v -0.119233 -0.000003 -0.138002
v -0.119233 0.076667 0.114744
v -0.133408 -0.097715 0.065288
v -0.133408 -0.065297 -0.097710
v -0.133408 0.022924 -0.115262
v -0.133408 0.108570 -0.044975
v -0.133408 0.108570 0.044972
v -0.133408 -0.022929 0.115259
vt 0.543778 0.287116
vt 0.176412 0.505029
vt 0.219324 0.442654
vt 0.246786 0.423982
vt 0.283780 0.401540
vt 0.307917 0.388600
vt 0.354566 0.364937
vt 0.378081 0.354085
vt 0.411361 0.336775
vt 0.434386 0.325051
vt 0.458639 0.314277
vt 0.064153 0.411527
vt 0.508254 0.296867
vt 0.320214 0.481676
vt 0.240205 0.549856
vt 0.341095 0.470332
vt 0.497994 0.388366
vt 0.560834 0.369703
vt 0.263774 0.523077
vt 0.383660 0.448386
vt 0.281075 0.507597
vt 0.560224 0.363678
vt 0.415521 0.431835
vt 0.299994 0.493817
vt 0.457044 0.409358
vt 0.518462 0.379001
vt 0.362282 0.459345
vt 0.561180 0.374942
vt 0.382512 0.470025
vt 0.564892 0.388902
vt 0.514683 0.399535
vt 0.261810 0.549839
vt 0.552677 0.382428
vt 0.424532 0.448098
vt 0.276740 0.534972
vt 0.311545 0.508254
vt 0.445109 0.436744
vt 0.341113 0.491303
vt 0.485090 0.414617
vt 0.410721 0.585994
vt 0.582512 0.413281
vt 0.453294 0.498801
vt 0.337759 0.549267
vt 0.482327 0.472634
vt 0.511714 0.455396
vt 0.375716 0.530563
vt 0.539324 0.439567
vt 0.418235 0.507971
vt 0.285114 0.589377
vt 0.445944 0.593102
vt 0.478101 0.527011
vt 0.405737 0.538871
vt 0.472563 0.599680
vt 0.497650 0.568250
vt 0.393129 0.549451
vt 0.494814 0.540067
vt 0.480093 0.513404
vt 0.080681 0.494705
vt 0.197479 0.466981
vt 0.128618 0.376749
vt 0.171195 0.499910
vt 0.080200 0.391711
vt 0.056952 0.448905
vt 0.130279 0.510936
vt 0.187236 0.408792
vt 0.064037 0.474115
vt 0.154072 0.383043
vt 0.176525 0.470159
vt 0.100199 0.488952
vt 0.074427 0.457966
vt 0.083698 0.410643
vt 0.118846 0.392316
vt 0.180009 0.428660
vn 0.807003 0.226003 0.545590
vn 0.529166 0.165514 0.832219
vn 0.529166 0.324701 0.783934
vn 0.529166 -0.324701 -0.783934
vn 0.964222 -0.051699 -0.260005
vn 0.964222 -0.101448 -0.244917
vn 0.964236 -0.265047 -0.000000
vn 0.529166 -0.832217 0.165524
vn 0.529165 -0.848519 -0.000006
vn 0.529166 -0.832217 0.165524
vn 0.964236 -0.265047 -0.000000
vn 0.964222 -0.260005 0.051699
vn 0.529165 0.848519 -0.000005
vn 0.964222 0.260005 0.051700
vn 0.964222 0.265096 0.000003
vn 0.529166 -0.705515 0.471415
vn 0.964223 -0.244914 0.101448
vn 0.964223 -0.220422 0.147272
vn 0.964223 -0.220422 0.147272
vn 0.529167 -0.599989 0.599996
vn 0.529166 -0.705515 0.471415
vn 0.529167 -0.832216 -0.165525
vn 0.964236 -0.244870 -0.101427
vn 0.964222 -0.260005 -0.051699
vn 0.529166 -0.471406 0.705520
vn 0.964237 -0.187417 0.187411
vn 0.964222 -0.147273 0.220422
vn 0.964222 0.244916 -0.101448
vn 0.529166 0.705515 -0.471415
vn 0.529166 0.783938 -0.324692
vn 0.529165 0.599990 -0.599997
vn 0.964236 0.220382 -0.147243
vn 0.964236 0.187415 -0.187415
vn 0.964222 -0.101447 0.244915
vn 0.529166 -0.165533 0.832215
vn 0.529166 -0.324691 0.783938
vn 0.964236 0.187415 -0.187415
vn 0.529165 0.471408 -0.705520
vn 0.529165 0.599990 -0.599997
vn 0.529166 0.165514 0.832219
vn 0.964236 0.000001 0.265044
vn 0.964222 0.051698 0.260005
vn 0.529166 0.000014 -0.848518
vn 0.964222 0.051699 -0.260005
vn 0.964236 -0.000001 -0.265044
vn 0.964236 -0.000001 -0.265044
vn 0.529166 -0.165543 -0.832213
vn 0.529166 0.000014 -0.848518
vn 0.964236 0.101430 0.244869
vn 0.806993 -0.115213 -0.579213
vn 0.806993 -0.225999 -0.545607
vn 0.964223 0.220421 0.147272
vn 0.806994 -0.417589 -0.417589
vn 0.806993 -0.491033 -0.328099
vn 0.964223 -0.147273 -0.220421
vn 0.806993 0.225998 0.545606
vn 0.806992 0.328097 0.491036
vn 0.806993 -0.491033 -0.328099
vn 0.964222 0.244917 0.101447
vn 0.964223 0.220421 0.147272
vn 0.806993 -0.579213 -0.115213
vn 0.964222 0.265096 0.000003
vn 0.964222 0.260005 0.051700
vn 0.964236 -0.244870 -0.101427
vn 0.806993 0.491034 0.328097
vn 0.806993 0.545607 0.225999
vn 0.422682 -0.837297 -0.346805
vn -0.000006 -0.980785 -0.195091
vn 0.000000 -0.923880 -0.382683
vn 0.422678 0.888865 -0.176810
vn -0.000000 0.923879 -0.382685
vn -0.000000 0.980785 -0.195091
vn 0.422674 0.640836 -0.640840
vn -0.000000 0.555572 -0.831468
vn -0.000005 0.707106 -0.707108
vn 0.802558 0.421842 -0.421842
vn 0.962498 0.225571 -0.150718
vn 0.962496 0.191837 -0.191833
vn 0.962496 0.191837 -0.191833
vn 0.802557 0.331432 -0.496039
vn 0.802558 0.421842 -0.421842
vn 0.802555 0.228282 0.551174
vn 0.962483 0.052926 0.266129
vn 0.962493 0.103812 0.250658
vn 0.962484 0.052924 -0.266129
vn 0.802586 0.000000 -0.596537
vn 0.802524 0.116383 -0.585158
vn 0.962493 0.103812 0.250658
vn 0.802466 0.331501 0.496140
vn 0.802555 0.228282 0.551174
vn 0.962493 -0.103811 -0.250659
vn 0.802497 -0.331477 -0.496106
vn 0.802466 -0.228329 -0.551285
vn 0.962491 0.250668 0.103815
vn 0.802525 0.585158 0.116382
vn 0.802555 0.551174 0.228282
vn 0.962490 -0.250669 -0.103816
vn 0.802497 -0.585194 -0.116390
vn 0.802467 -0.551283 -0.228329
vn 0.962485 0.266122 -0.052925
vn 0.802556 0.551173 -0.228282
vn 0.802525 0.585157 -0.116381
vn 0.962496 -0.191837 0.191831
vn 0.802557 -0.331439 0.496034
vn 0.802556 -0.421843 0.421844
vn 0.802526 -0.596617 -0.000000
vn 0.962486 -0.266119 -0.052922
vn 0.962483 -0.271342 -0.000002
vn 1.000000 0.000000 -0.000000
vn 1.000000 0.000000 0.000001
vn 1.000000 0.000000 0.000000
vn 0.028676 -0.831128 0.555341
vn 0.025739 -0.923574 0.382555
vn 0.028674 -0.923500 0.382526
vn 0.025739 -0.923574 0.382555
vn 0.028676 -0.831128 0.555341
vn 0.025738 -0.831194 0.555387
vn 0.028673 -0.382526 0.923500
vn 0.025740 -0.555386 0.831194
vn 0.028674 -0.555342 0.831128
vn 0.025740 -0.382556 0.923574
vn 0.028674 -0.195010 0.980382
vn 0.025740 -0.195025 0.980460
vn 0.028674 0.000000 0.999589
vn 0.025740 -0.195025 0.980460
vn 0.028674 -0.195010 0.980382
vn 0.028674 0.382527 0.923499
vn 0.025739 0.195026 0.980460
vn 0.028674 0.195010 0.980382
vn 0.025739 0.195026 0.980460
vn 0.028674 0.382527 0.923499
vn 0.025739 0.382557 0.923573
vn 0.028674 0.706816 0.706816
vn 0.025739 0.555387 0.831194
vn 0.028673 0.555342 0.831128
vn 0.025739 0.555387 0.831194
vn 0.028674 0.706816 0.706816
vn 0.025739 0.706873 0.706872
vn 0.028674 0.923500 0.382526
vn 0.025739 0.831194 0.555386
vn 0.028674 0.831128 0.555342
vn 0.028674 0.999589 -0.000000
vn 0.025739 0.980460 0.195026
vn 0.028674 0.980382 0.195010
vn 0.025739 0.980460 0.195026
vn 0.028674 0.999589 -0.000000
vn 0.025739 0.999669 -0.000000
vn 0.028674 0.923499 -0.382527
vn 0.025739 0.980460 -0.195026
vn 0.028674 0.980382 -0.195010
vn 0.025739 0.980460 -0.195026
vn 0.028674 0.923499 -0.382527
vn 0.025739 0.923573 -0.382558
vn 0.028674 0.555342 -0.831127
vn 0.025739 0.706873 -0.706873
vn 0.028674 0.706817 -0.706816
vn 0.025739 0.706873 -0.706873
vn 0.028674 0.555342 -0.831127
vn 0.025739 0.555386 -0.831194
vn 0.025739 0.382556 -0.923574
vn 0.028674 0.195010 -0.980382
vn 0.025740 0.195026 -0.980460
vn 0.028674 -0.195011 -0.980382
vn 0.025739 -0.000000 -0.999669
vn 0.028674 0.000000 -0.999589
vn 0.025739 -0.000000 -0.999669
vn 0.028674 -0.195011 -0.980382
vn 0.025740 -0.195025 -0.980460
vn 0.028676 -0.831128 -0.555341
vn 0.025739 -0.706872 -0.706873
vn 0.028676 -0.706815 -0.706817
vn 0.025739 -0.706872 -0.706873
vn 0.028676 -0.831128 -0.555341
vn 0.025740 -0.831194 -0.555387
vn 0.028674 -0.980382 -0.195010
vn 0.025739 -0.923574 -0.382556
vn 0.028674 -0.923500 -0.382525
vn 0.025739 -0.980461 -0.195024
vn 0.028674 -0.999589 -0.000000
vn 0.025740 -0.999669 -0.000000
vn -0.789465 0.602009 0.119708
vn -0.000001 0.923879 0.382684
vn -0.000000 0.980785 0.195090
vn 0.000000 -0.555569 -0.831470
vn -0.789465 -0.433993 -0.434045
vn -0.789465 -0.340975 -0.510374
vn -0.000001 -1.000000 0.000000
vn -0.789465 -0.602010 0.119709
vn -0.789465 -0.613795 -0.000053
vn -0.000003 0.831470 0.555570
vn -0.789465 0.567053 0.234938
vn -0.789465 0.510374 0.340975
vn -0.789465 -0.340975 -0.510374
vn 0.000000 -0.382683 -0.923880
vn 0.000000 -0.555569 -0.831470
vn -0.789465 0.340975 0.510374
vn -0.000000 0.382684 0.923879
vn -0.000003 0.555569 0.831471
vn -0.000000 0.195090 -0.980785
vn -0.789465 -0.000003 -0.613796
vn -0.789465 0.119798 -0.601991
vn -0.789465 -0.000003 -0.613796
vn -0.000000 0.195090 -0.980785
vn 0.000000 -0.000001 -1.000000
vn -0.000000 0.195090 0.980785
vn -0.789465 0.234854 0.567088
vn -0.789465 0.119708 0.602009
vn -0.000000 0.831469 -0.555571
vn -0.789465 0.434003 -0.434035
vn -0.789464 0.510374 -0.340976
vn 0.000003 -0.555569 0.831470
vn -0.789465 -0.234855 0.567088
vn -0.789465 -0.340976 0.510373
vn -0.789465 -0.340976 0.510373
vn 0.000000 -0.707106 0.707107
vn 0.000003 -0.555569 0.831470
vn 0.000002 -0.831469 0.555571
vn -0.789465 -0.433982 0.434056
vn -0.789465 -0.510374 0.340975
vn -0.000000 1.000000 -0.000000
vn -0.789465 0.602009 -0.119708
vn -0.789465 0.613796 0.000053
vn -0.000000 -0.831470 -0.555570
vn -0.789465 -0.567053 -0.234939
vn -0.789465 -0.510351 -0.341010
vn -0.806997 -0.491067 -0.328039
vn -0.764426 -0.455862 -0.455898
vn -0.764424 -0.536072 -0.358166
vn -0.806998 0.590555 -0.000021
vn -0.764427 0.632327 0.125756
vn -0.764425 0.644713 -0.000022
vn -0.806997 0.328039 -0.491066
vn -0.764425 0.455849 -0.455913
vn -0.764426 0.358164 -0.536070
vn -0.764425 0.455849 -0.455913
vn -0.806997 0.328039 -0.491066
vn -0.806997 0.417572 -0.417601
vn -0.764424 -0.125757 0.632330
vn -0.806997 0.000021 0.590555
vn -0.806997 -0.115124 0.579225
vn -0.764424 -0.595647 -0.246701
vn -0.806997 -0.579209 -0.115211
vn -0.806997 -0.545597 -0.226006
vn -0.806997 0.545585 -0.226036
vn -0.764421 0.632326 -0.125799
vn -0.764425 0.595628 -0.246741
vn -0.806997 0.115146 -0.579221
vn -0.764424 0.246702 -0.595646
vn -0.764426 0.125755 -0.632328
vn -0.806998 0.226014 0.545594
vn -0.764426 0.125797 0.632320
vn -0.764424 0.246740 0.595630
vn -0.764423 -0.358202 -0.536050
vn -0.806997 -0.417545 -0.417626
vn -0.806997 -0.328054 -0.491056
vn -0.764421 0.595649 0.246704
vn -0.806997 0.579206 0.115223
vn -0.806997 0.545610 0.225976
vn -0.769740 -0.589764 0.244293
vn -0.769745 -0.626073 -0.124601
vn -0.769738 -0.638359 0.000002
vn -0.769740 -0.589764 0.244293
vn -0.769752 -0.000002 -0.638343
vn -0.769715 -0.124545 -0.626120
vn -0.769740 -0.589764 0.244293
vn -0.769744 0.354629 -0.530785
vn -0.769716 0.244297 -0.589794
vn -0.769740 -0.589764 0.244293
vn -0.769744 0.626087 0.124534
vn -0.769742 0.638355 -0.000002
vn -0.769740 -0.589764 0.244293
vn -0.769715 0.354651 0.530811
vn -0.769753 0.451378 0.451375
vn -0.806997 -0.417571 0.417600
vn -0.769745 -0.354628 0.530784
vn -0.769738 -0.451387 0.451390
vn -0.806998 0.000012 -0.590555
vn -0.769715 -0.124545 -0.626120
vn -0.769752 -0.000002 -0.638343
vn -0.806997 0.328085 0.491035
vn -0.769753 0.451378 0.451375
vn -0.769715 0.354651 0.530811
vn -0.769744 0.626087 0.124534
vn -0.806997 0.545610 0.225976
vn -0.806997 0.579206 0.115223
vn -0.769738 -0.451387 0.451390
vn -0.806997 -0.491018 0.328113
vn -0.806997 -0.417571 0.417600
s off
g polySurface2211 MicroscopeFBXASC046003
usemtl MicroscopeSG1
f 9/14/1 17/24/2 10/16/3
f 11/17/4 30/39/5 19/26/6
f 24/33/7 12/18/8 15/22/9
f 12/18/10 24/33/11 22/28/12
f 13/20/13 20/27/14 25/34/15
f 12/19/16 22/32/17 26/35/18
f 26/35/19 14/21/20 12/19/21
f 15/22/22 19/26/23 24/33/24
f 14/21/25 26/35/26 27/36/27
f 25/34/28 16/23/29 13/20/30
f 16/23/31 25/34/32 28/37/33
f 27/36/34 17/24/35 14/21/36
f 28/37/37 18/25/38 16/23/39
f 17/24/40 27/36/41 10/16/42
f 18/25/43 28/37/44 30/39/45
f 30/39/46 11/17/47 18/25/48
f 10/16/49 27/36/50 29/38/51
f 10/16/52 29/38/53 21/29/54
f 19/26/55 30/39/56 23/31/57
f 21/29/58 20/27/59 10/16/60
f 21/29/61 25/34/62 20/27/63
f 19/26/64 23/31/65 24/33/66
f 37/47/67 32/41/68 24/33/69
f 38/48/70 33/42/71 25/34/72
f 33/42/73 34/44/74 28/37/75
f 33/42/76 41/52/77 40/51/78
f 40/51/79 34/57/80 33/42/81
f 31/40/82 39/50/83 41/52/84
f 40/51/85 35/56/86 34/57/87
f 41/52/88 36/55/89 31/40/90
f 40/51/91 37/54/92 35/56/93
f 41/52/94 38/48/95 36/55/96
f 40/51/97 32/53/98 37/54/99
f 41/52/100 33/42/101 38/48/102
f 39/50/103 31/40/104 32/53/105
f 32/53/106 40/51/107 39/50/108
f 40/51/109 41/52/110 39/50/111
f 12/19/112 42/2/113 15/15/114
f 42/2/115 12/19/116 1/59/117
f 14/21/118 1/59/119 12/19/120
f 1/3/121 14/21/122 2/4/123
f 17/24/124 2/4/125 14/21/126
f 9/14/127 2/4/128 17/24/129
f 2/4/130 9/14/131 44/5/132
f 10/16/133 44/5/134 9/14/135
f 44/5/136 10/16/137 3/6/138
f 20/27/139 3/6/140 10/16/141
f 13/20/142 3/6/143 20/27/144
f 3/6/145 13/20/146 4/7/147
f 16/23/148 4/7/149 13/20/150
f 4/7/151 16/23/152 5/8/153
f 18/25/154 5/8/155 16/23/156
f 5/8/157 18/25/158 6/9/159
f 6/9/160 18/25/161 43/10/162
f 11/17/163 43/10/164 18/25/165
f 43/10/166 11/17/167 7/11/168
f 19/26/169 7/11/170 11/17/171
f 7/11/172 19/26/173 8/13/174
f 15/22/175 8/13/176 19/26/177
f 8/13/178 15/22/179 42/1/180
f 21/29/181 36/55/182 38/48/183
f 37/47/184 23/31/185 30/39/186
f 32/41/187 22/30/188 24/33/189
f 36/46/190 21/29/191 29/38/192
f 30/39/193 35/45/194 37/47/195
f 29/38/196 31/43/197 36/46/198
f 34/44/199 30/39/200 28/37/201
f 30/39/202 34/44/203 35/45/204
f 31/43/205 29/38/206 27/36/207
f 33/42/208 28/37/209 25/34/210
f 31/43/211 27/36/212 26/35/213
f 26/35/214 32/49/215 31/43/216
f 32/49/217 26/35/218 22/32/219
f 38/48/220 25/34/221 21/29/222
f 37/47/223 24/33/224 23/31/225
f 46/69/226 7/58/227 8/64/228
f 48/71/229 3/60/230 4/62/231
f 47/70/232 5/12/233 6/63/234
f 5/12/235 47/70/236 48/71/237
f 2/65/238 50/73/239 1/59/240
f 8/64/241 42/61/242 46/69/243
f 48/71/244 4/62/245 5/12/246
f 47/70/247 6/63/248 43/66/249
f 50/73/250 2/65/251 44/67/252
f 7/58/253 46/69/254 43/66/255
f 3/60/256 48/71/257 44/67/258
f 45/68/259 46/69/260 42/61/261
f 45/68/262 47/70/263 46/69/264
f 45/68/265 48/71/266 47/70/267
f 45/68/268 49/72/269 48/71/270
f 45/68/271 50/73/272 49/72/273
f 1/59/274 50/73/275 45/68/276
f 43/66/277 46/69/278 47/70/279
f 44/67/280 49/72/281 50/73/282
f 49/72/283 44/67/284 48/71/285
f 45/68/286 42/61/287 1/59/288
