# This file uses centimeters as units for non-parametric coordinates.

mtllib table.mtl
g default
v -30.260830 17.392954 17.061481
v -30.243476 14.850386 17.061481
v -30.260830 14.850386 17.221122
v -30.260830 17.392954 17.221122
v -30.228984 14.850386 17.254249
v -30.068318 14.850386 17.254249
v -30.068318 17.392954 17.254249
v -30.220811 17.392954 17.236605
v -30.220811 14.850386 17.236605
v -30.243476 17.392954 17.216817
vt 420.169312 361.383209
vt 465.719696 -364.099091
vt 420.169312 -364.099091
vt 465.719696 361.383209
vt 472.226898 361.383209
vt -940.004700 -364.099091
vt -946.143616 -364.099091
vt -943.319824 361.383209
vt -894.160828 361.383209
vt -894.160828 -364.099091
vt 938.671997 361.383209
vt 895.161621 361.383209
vt 938.671875 -364.099091
vt 895.161621 -364.099091
vt 945.139771 361.383209
vt -419.169312 361.383209
vt -463.491913 361.383209
vt -419.169312 -364.099091
vt -463.491913 -364.099091
vt -474.173706 -894.160828
vt -469.139709 -937.671875
vt -474.173492 -940.004700
vt -464.719696 -949.090271
vt -419.169312 -944.139282
vt 420.169312 -949.090088
vt 464.491913 -944.139771
vt 465.719696 -949.090271
vt 470.139709 -937.671997
vn -1.000000 0.000000 0.000000
vn -1.000000 0.000000 0.000000
vn -1.000000 0.000000 0.000000
vn -1.000000 0.000000 0.000000
vn -0.813740 0.000000 0.581229
vn -0.813740 0.000000 0.581229
vn -0.813740 0.000000 0.581229
vn -0.594385 0.000000 0.804180
vn -0.594385 0.000000 0.804180
vn -0.594385 0.000000 0.804180
vn 0.000000 0.000000 1.000000
vn 0.000000 0.000000 1.000000
vn 0.000000 0.000000 1.000000
vn 0.000000 0.000000 1.000000
vn 0.000000 0.000000 1.000000
vn 0.000000 0.000000 1.000000
vn 0.000000 0.000000 -1.000000
vn 0.000000 0.000000 -1.000000
vn 0.000000 0.000000 -1.000000
vn 0.000000 0.000000 -1.000000
vn 0.657740 0.000000 -0.753245
vn 0.657740 0.000000 -0.753245
vn 0.657740 0.000000 -0.753245
vn 1.000000 0.000000 0.000000
vn 1.000000 0.000000 0.000000
vn 1.000000 0.000000 0.000000
vn 1.000000 0.000000 0.000000
vn 0.000000 -1.000000 0.000000
vn 0.000000 -1.000000 0.000000
vn 0.000000 -1.000000 0.000000
vn 0.000000 -1.000000 0.000000
vn 0.000000 -1.000000 0.000000
vn 0.000000 -1.000000 0.000000
vn 0.000000 -1.000000 0.000000
vn 0.000000 -1.000000 0.000000
vn 0.000000 -1.000000 0.000000
vn 0.000000 1.000000 0.000000
vn 0.000000 1.000000 0.000000
vn 0.000000 1.000000 0.000000
vn 0.000000 1.000000 0.000000
vn 0.000000 1.000000 0.000000
vn 0.000000 1.000000 0.000000
s 1
g polySurface2236 pCube83
usemtl wire_008061138
f 4/4/1 1/1/2 3/2/3
f 3/2/3 1/1/2 2/3/4
s off
f 8/5/5 4/4/6 3/2/7
f 5/6/8 8/8/9 3/7/10
f 7/9/11 8/8/12 5/6/13
f 6/10/14 7/9/15 5/6/16
s 2
f 8/11/17 7/12/18 9/13/19
f 9/13/19 7/12/18 6/14/20
s off
f 10/15/21 8/11/22 9/13/23
s 3
f 1/16/24 10/17/25 2/18/26
f 2/18/26 10/17/25 9/19/27
s off
f 6/20/28 5/22/29 9/21/30
f 9/21/31 5/22/32 3/23/33
f 3/23/34 2/24/35 9/21/36
f 10/26/37 1/25/38 4/27/39
f 10/26/40 4/27/41 8/28/42
g default
v -23.636257 17.463060 13.927781
v -23.636257 17.405235 13.927781
v -30.228318 17.405218 13.926500
v -30.228318 17.463043 13.926500
v -30.261847 17.405218 13.958765
v -30.261847 17.463043 13.958765
v -30.226610 17.475316 13.938772
v -30.261847 17.405218 17.221890
v -30.229590 17.405218 17.255419
v -30.229590 17.463043 17.255419
v -23.603864 17.405235 13.960755
v -23.636197 17.405235 17.256333
v -23.602788 17.405235 17.224657
v -23.637743 17.475332 17.244163
v -23.637965 17.475332 13.940045
v -30.261847 17.463043 17.221890
v -30.228045 17.475316 17.243240
v -23.603864 17.463060 13.960755
v -23.602788 17.463060 17.224657
v -23.636197 17.463060 17.256333
vt 0.022100 1.649400
vt 3.977900 0.001000
vt 0.022100 0.001500
vt 3.977900 1.649000
vt 3.996200 1.649000
vt 3.996200 0.001000
vt 0.040700 1.649000
vt 0.040700 0.001000
vt 3.977900 1.998200
vt 0.022100 1.999000
vt 0.023100 1.991600
vt 0.002000 1.979600
vt 3.956700 0.001000
vt 3.956700 1.649000
vt 0.008200 1.649000
vt 0.004400 0.001000
vt 0.021400 0.001000
vt 0.021400 1.649000
vt 3.978600 0.001600
vt 3.998000 0.021700
vt 3.998000 1.979600
vt 0.022100 1.998200
vt 3.977900 1.999000
vt 0.002600 1.978500
vt 0.022000 0.001000
vt 0.002000 0.020000
vt 3.977000 0.008300
vt 3.976900 1.990900
vt 0.002000 0.021700
vt 0.022300 0.008900
vt 0.021400 0.001600
vt 0.008600 0.001500
vt 0.004500 1.649400
vt 3.956900 1.649400
vt 3.956900 0.001500
vt 3.997400 1.978500
vt 0.040000 1.649400
vt 0.040000 0.001500
vt 3.978000 1.649400
vt 3.996100 1.649400
vt 3.996100 0.001500
vt 3.978000 0.001500
vt 3.998000 0.020000
vt 3.978000 0.001000
vn 0.000194 0.000000 -1.000000
vn 0.000194 0.000000 -1.000000
vn 0.000194 0.000000 -1.000000
vn 0.000194 0.000000 -1.000000
vn -0.575796 0.000000 -0.817594
vn -0.575796 0.000000 -0.817594
vn -0.575796 0.000000 -0.817594
vn -0.803883 0.000000 -0.594787
vn -0.803883 0.000000 -0.594787
vn -0.803883 0.000000 -0.594787
vn 0.000100 0.707107 -0.707107
vn 0.000100 0.707107 -0.707107
vn 0.000100 0.707107 -0.707107
vn 0.000100 0.707107 -0.707107
vn -0.423994 0.689091 -0.587692
vn -0.423994 0.689091 -0.587692
vn -0.423994 0.689091 -0.587692
vn -0.990488 0.000000 0.137598
vn -0.992081 0.000000 -0.125598
vn -0.990488 0.000000 0.137598
vn -0.992081 0.000000 -0.125598
vn -0.594787 0.000000 0.803883
vn -0.594787 0.000000 0.803883
vn -0.594787 0.000000 0.803883
vn -0.594787 0.000000 0.803883
vn -0.000100 0.000000 1.000000
vn -0.000100 0.000000 1.000000
vn -0.000100 0.000000 1.000000
vn -0.000100 0.000000 1.000000
vn 0.000000 -1.000000 0.000000
vn 0.000000 -1.000000 0.000000
vn 0.000000 -1.000000 0.000000
vn 0.000000 -1.000000 0.000000
vn 0.000000 -1.000000 0.000000
vn 0.000000 -1.000000 0.000000
vn 0.000000 -1.000000 0.000000
vn 0.000000 -1.000000 0.000000
vn 0.000000 -1.000000 0.000000
vn 0.000000 -1.000000 0.000000
vn 0.000000 -1.000000 0.000000
vn 0.000000 -1.000000 0.000000
vn 0.000000 -1.000000 0.000000
vn 0.000000 -1.000000 0.000000
vn 0.000000 -1.000000 0.000000
vn 0.000000 -1.000000 0.000000
vn 0.000000 1.000000 0.000000
vn 0.000000 1.000000 0.000000
vn 0.000000 1.000000 0.000000
vn 0.000000 1.000000 0.000000
vn 0.000000 1.000000 0.000000
vn 0.000000 1.000000 0.000000
vn 0.000000 1.000000 0.000000
vn 0.000000 1.000000 0.000000
vn 0.000000 1.000000 0.000000
vn 0.000000 1.000000 0.000000
vn -0.708406 0.705806 0.000000
vn -0.708406 0.705806 0.000000
vn -0.708406 0.705806 0.000000
vn -0.403080 0.693566 0.597070
vn -0.403080 0.693566 0.597070
vn -0.403080 0.693566 0.597070
vn -0.000100 0.704502 0.709702
vn -0.000100 0.704502 0.709702
vn -0.000100 0.704502 0.709702
vn -0.000100 0.704502 0.709702
vn 0.595768 0.000000 -0.803157
vn 0.595768 0.000000 -0.803157
vn 0.595768 0.000000 -0.803157
vn 0.830107 0.000000 -0.557604
vn 0.830107 0.000000 -0.557604
vn 0.830107 0.000000 -0.557604
vn 0.597200 0.700001 -0.391600
vn 0.597200 0.700001 -0.391600
vn 0.597200 0.700001 -0.391600
vn 0.991396 0.000000 0.130899
vn 0.991396 0.000000 0.130899
vn 0.992056 0.000000 -0.125794
vn 0.992056 0.000000 -0.125794
vn 0.801414 0.000000 0.598110
vn 0.801414 0.000000 0.598110
vn 0.801414 0.000000 0.598110
vn 0.575729 0.000000 0.817641
vn 0.575729 0.000000 0.817641
vn 0.575729 0.000000 0.817641
vn 0.708406 0.705806 -0.000200
vn 0.708406 0.705806 -0.000200
vn 0.708406 0.705806 -0.000200
vn 0.563619 0.709024 0.423814
vn 0.563619 0.709024 0.423814
vn 0.563619 0.709024 0.423814
s 1
g pCube83 polySurface2242
usemtl wire_008061138
f 14/32/43 11/29/44 13/30/45
f 13/30/45 11/29/44 12/31/46
s off
f 16/33/47 14/32/48 13/30/49
f 15/34/50 16/33/51 13/30/52
s 2
f 14/38/53 17/39/54 11/37/55
f 11/37/55 17/39/54 25/56/56
s off
f 16/40/57 17/39/58 14/38/59
s 3
f 26/42/60 16/35/61 18/41/62
f 18/41/62 16/35/61 15/36/63
s 4
f 20/46/64 26/43/65 19/45/66
f 19/45/66 26/43/65 18/44/67
s 5
f 19/45/68 22/70/69 20/46/70
f 20/46/70 22/70/69 30/67/71
s off
f 15/49/72 19/47/73 18/48/74
f 12/50/75 15/49/76 13/51/77
f 12/50/78 21/52/79 22/53/80
f 21/52/81 23/54/82 22/53/83
s 6
f 15/49/84 12/50/85 19/47/86
f 19/47/86 12/50/85 22/53/87
s off
f 25/56/88 24/55/89 29/71/90
s 7
f 24/55/91 25/56/92 27/58/93
f 27/58/93 25/56/92 17/39/94
s off
f 17/39/95 26/57/96 27/58/97
f 16/40/98 26/57/99 17/39/100
f 27/58/101 26/57/102 20/59/103
s 8
f 30/72/104 24/55/105 20/59/106
f 20/59/106 24/55/105 27/58/107
s off
f 11/29/108 21/60/109 12/31/110
f 28/61/111 21/60/112 11/29/113
f 11/37/114 25/56/115 28/64/116
s 9
f 29/65/117 23/66/118 28/62/119
f 28/62/119 23/66/118 21/63/120
s off
f 30/67/121 23/69/122 29/68/123
f 30/67/124 22/70/125 23/69/126
f 29/71/127 28/64/128 25/56/129
f 30/72/130 29/71/131 24/55/132
g default
v -30.069352 17.392954 13.925996
v -30.069352 14.850386 13.943350
v -30.228984 14.850386 13.925996
v -30.244476 14.850386 13.966015
v -30.228984 17.392954 13.925996
v -30.262120 14.850386 14.118508
v -30.262120 17.392954 14.118508
v -30.244476 17.392954 14.118508
v -30.224688 17.392954 13.943350
v -30.224688 14.850386 13.943350
vt 895.454285 361.383209
vt 941.004700 -364.099091
vt 895.454285 -364.099091
vt 941.004822 361.383209
vt -468.720795 -364.099091
vt -471.544586 -364.099091
vt -468.720795 361.383209
vt -419.561798 -364.099091
vt -419.561798 361.383209
vt -944.424805 361.383209
vt -949.458801 361.383209
vt -949.458679 -364.099091
vt 420.562592 361.383209
vt 464.072998 -364.099091
vt 420.562592 -364.099091
vt 470.540802 361.383209
vt 470.540802 -364.099091
vt -894.454285 361.383209
vt -938.776978 361.383209
vt -894.454285 -364.099091
vt -938.776917 -364.099091
vt 464.072998 -944.424683
vt 470.540802 -938.776917
vt 475.491302 -940.004700
vt 470.540405 -894.454285
vt -474.491211 -894.454285
vt -469.540802 -938.776978
vt -419.561798 -949.458801
vt -419.562592 -944.424805
vt -474.491302 -940.004822
vn 0.000000 0.000000 -1.000000
vn 0.000000 0.000000 -1.000000
vn 0.000000 0.000000 -1.000000
vn 0.000000 0.000000 -1.000000
vn -0.804180 0.000000 -0.594385
vn -0.804180 0.000000 -0.594385
vn -0.804180 0.000000 -0.594385
vn -1.000000 0.000000 0.000000
vn -1.000000 0.000000 0.000000
vn -1.000000 0.000000 0.000000
vn -1.000000 0.000000 0.000000
vn 0.000200 0.000000 1.000000
vn 0.000200 0.000000 1.000000
vn 0.000200 0.000000 1.000000
vn 1.000000 0.000000 0.000000
vn 1.000000 0.000000 0.000000
vn 1.000000 0.000000 0.000000
vn 1.000000 0.000000 0.000000
vn 0.753245 0.000000 0.657740
vn 0.753245 0.000000 0.657740
vn 0.753245 0.000000 0.657740
vn 0.000000 0.000000 1.000000
vn 0.000000 0.000000 1.000000
vn 0.000000 0.000000 1.000000
vn 0.000000 0.000000 1.000000
vn 0.000000 -1.000000 0.000000
vn 0.000000 -1.000000 0.000000
vn 0.000000 -1.000000 0.000000
vn 0.000000 -1.000000 0.000000
vn 0.000000 -1.000000 0.000000
vn 0.000000 -1.000000 0.000000
vn 0.000000 1.000000 0.000000
vn 0.000000 1.000000 0.000000
vn 0.000000 1.000000 0.000000
vn 0.000000 1.000000 0.000000
vn 0.000000 1.000000 0.000000
vn 0.000000 1.000000 0.000000
vn 0.000000 1.000000 0.000000
vn 0.000000 1.000000 0.000000
vn 0.000000 1.000000 0.000000
s 1
g pCube83 polySurface2237
usemtl wire_008061138
f 35/76/133 31/73/134 33/74/135
f 33/74/135 31/73/134 32/75/136
s off
f 34/77/137 35/79/138 33/78/139
s 2
f 37/81/140 35/79/141 36/80/142
f 36/80/142 35/79/141 34/77/143
s off
f 38/82/144 37/83/145 36/84/146
s 3
f 39/88/147 38/85/148 34/86/149
f 34/86/149 38/85/148 36/87/150
s off
f 40/89/151 39/88/152 34/86/153
s 4
f 31/90/154 39/91/155 32/92/156
f 32/92/156 39/91/155 40/93/157
s off
f 34/94/158 33/96/159 40/95/160
f 33/96/161 32/97/162 40/95/163
f 39/99/164 31/98/165 35/102/166
f 37/100/167 38/101/168 39/99/169
f 37/100/170 39/99/171 35/102/172
g default
v -23.796333 17.392954 17.255359
v -23.796333 14.850386 17.238014
v -23.636692 14.850386 17.255359
v -23.636692 17.392954 17.255359
v -23.603557 14.850386 17.223521
v -23.603557 17.392954 17.223521
v -23.603557 14.850386 17.062856
v -23.621200 17.392954 17.062856
v -23.621200 14.850386 17.215348
v -23.640996 17.392954 17.238014
vt 895.454529 361.383209
vt 941.005005 -364.099091
vt 895.454529 -364.099091
vt 941.004883 361.383209
vt 947.512085 361.383209
vt -465.405792 -364.099091
vt -471.544586 -364.099091
vt -465.405792 361.383209
vt -419.561890 361.383209
vt -419.561890 -364.099091
vt 420.562714 361.383209
vt 464.072998 -364.099091
vt 420.562714 -364.099091
vt 470.540894 361.383209
vt 470.540894 -364.099091
vt -894.454529 361.383209
vt -938.777100 361.383209
vt -894.454529 -364.099091
vt -938.777222 -364.099091
vt -419.561890 950.458923
vt -463.072998 945.424927
vt -465.405792 950.458679
vt -474.491302 941.005005
vt 475.491211 895.454529
vt 470.540894 939.777100
vt 475.491302 941.004883
vt 420.562714 945.424927
vt 466.405792 950.458618
vn 0.000000 0.000000 1.000000
vn 0.000000 0.000000 1.000000
vn 0.000000 0.000000 1.000000
vn 0.000000 0.000000 1.000000
vn 0.581229 0.000000 0.813740
vn 0.581229 0.000000 0.813740
vn 0.581229 0.000000 0.813740
vn 0.804180 0.000000 0.594385
vn 0.804180 0.000000 0.594385
vn 0.804180 0.000000 0.594385
vn 1.000000 0.000000 0.000000
vn 1.000000 0.000000 0.000000
vn 1.000000 0.000000 0.000000
vn 1.000000 0.000000 0.000000
vn -1.000000 0.000000 0.000000
vn -1.000000 0.000000 0.000000
vn -1.000000 0.000000 0.000000
vn -1.000000 0.000000 0.000000
vn -0.753245 0.000000 -0.657740
vn -0.753245 0.000000 -0.657740
vn -0.753245 0.000000 -0.657740
vn 0.000000 0.000000 -1.000000
vn 0.000000 0.000000 -1.000000
vn 0.000000 0.000000 -1.000000
vn 0.000000 0.000000 -1.000000
vn 0.000000 -1.000000 0.000000
vn 0.000000 -1.000000 0.000000
vn 0.000000 -1.000000 0.000000
vn 0.000000 -1.000000 0.000000
vn 0.000000 -1.000000 0.000000
vn 0.000000 -1.000000 0.000000
vn 0.000000 1.000000 0.000000
vn 0.000000 1.000000 0.000000
vn 0.000000 1.000000 0.000000
vn 0.000000 1.000000 0.000000
vn 0.000000 1.000000 0.000000
vn 0.000000 1.000000 0.000000
vn 0.000000 1.000000 0.000000
vn 0.000000 1.000000 0.000000
vn 0.000000 1.000000 0.000000
s 1
g pCube83 polySurface2235
usemtl wire_008061138
f 44/106/173 41/103/174 43/104/175
f 43/104/175 41/103/174 42/105/176
s off
f 46/107/177 44/106/178 43/104/179
f 45/108/180 46/110/181 43/109/182
s 2
f 48/111/183 46/110/184 47/112/185
f 47/112/185 46/110/184 45/108/186
s 3
f 50/116/187 48/113/188 49/114/189
f 49/114/189 48/113/188 47/115/190
s off
f 43/117/191 50/116/192 49/114/193
s 4
f 41/118/194 50/119/195 42/120/196
f 42/120/196 50/119/195 43/121/197
s off
f 47/122/198 45/124/199 49/123/200
f 49/123/201 45/124/202 43/125/203
f 50/127/204 41/126/205 44/128/206
f 46/130/207 48/129/208 50/127/209
f 44/128/210 46/130/211 50/127/212
g default
v -23.605017 17.392954 14.120344
v -23.622370 14.850386 14.120344
v -23.605017 14.850386 13.960703
v -23.645036 14.850386 13.945212
v -23.605017 17.392954 13.960703
v -23.797529 14.850386 13.927576
v -23.797529 17.392954 13.927576
v -23.797529 17.392954 13.945212
v -23.622370 17.392954 13.965008
v -23.622370 14.850386 13.965008
vt 420.037994 361.383209
vt 465.588409 -364.099091
vt 420.037994 -364.099091
vt 465.588409 361.383209
vt -943.271423 -364.099091
vt -946.095276 -364.099091
vt -943.271423 361.383209
vt -894.112427 -364.099091
vt -894.112427 361.383209
vt -469.008392 361.383209
vt -474.042389 361.383209
vt -474.042389 -364.099091
vt 895.113220 361.383209
vt 938.623718 -364.099091
vt 895.113281 -364.099091
vt 945.091370 361.383209
vt 945.091370 -364.099091
vt -419.037994 361.383209
vt -463.360596 361.383209
vt -419.037994 -364.099091
vt -463.360596 -364.099091
vt 470.008392 938.623718
vt 464.360596 945.091370
vt 465.588409 950.041870
vt 420.037994 945.091125
vt -419.037994 950.041870
vt -463.360596 945.091370
vt -474.042389 895.112427
vt -469.008392 895.113220
vt -464.588409 950.041870
vn 1.000000 0.000000 0.000000
vn 1.000000 0.000000 0.000000
vn 1.000000 0.000000 0.000000
vn 1.000000 0.000000 0.000000
vn 0.594385 0.000000 -0.804180
vn 0.594385 0.000000 -0.804180
vn 0.594385 0.000000 -0.804180
vn 0.000000 0.000000 -1.000000
vn 0.000000 0.000000 -1.000000
vn 0.000000 0.000000 -1.000000
vn 0.000000 0.000000 -1.000000
vn -1.000000 0.000000 0.000100
vn -1.000000 0.000000 0.000100
vn -1.000000 0.000000 0.000200
vn 0.000000 0.000000 1.000000
vn 0.000000 0.000000 1.000000
vn 0.000000 0.000000 1.000000
vn 0.000000 0.000000 1.000000
vn -0.657740 0.000000 0.753245
vn -0.657740 0.000000 0.753245
vn -0.657740 0.000000 0.753245
vn -1.000000 0.000000 0.000000
vn -1.000000 0.000000 0.000000
vn -1.000000 0.000000 0.000000
vn -1.000000 0.000000 0.000000
vn 0.000000 -1.000000 0.000000
vn 0.000000 -1.000000 0.000000
vn 0.000000 -1.000000 0.000000
vn 0.000000 -1.000000 0.000000
vn 0.000000 -1.000000 0.000000
vn 0.000000 -1.000000 0.000000
vn 0.000000 1.000000 0.000000
vn 0.000000 1.000000 0.000000
vn 0.000000 1.000000 0.000000
vn 0.000000 1.000000 0.000000
vn 0.000000 1.000000 0.000000
vn 0.000000 1.000000 0.000000
vn 0.000000 1.000000 0.000000
vn 0.000000 1.000000 0.000000
vn 0.000000 1.000000 0.000000
s 1
g pCube83 polySurface2238
usemtl wire_008061138
f 55/134/213 51/131/214 53/132/215
f 53/132/215 51/131/214 52/133/216
s off
f 54/135/217 55/137/218 53/136/219
s 2
f 57/139/220 55/137/221 56/138/222
f 56/138/222 55/137/221 54/135/223
s off
f 58/140/224 57/141/225 56/142/226
s 3
f 59/146/227 58/143/228 54/144/229
f 54/144/229 58/143/228 56/145/230
s off
f 60/147/231 59/146/232 54/144/233
s 4
f 51/148/234 59/149/235 52/150/236
f 52/150/236 59/149/235 60/151/237
s off
f 54/152/238 53/154/239 60/153/240
f 53/154/241 52/155/242 60/153/243
f 59/157/244 51/156/245 55/160/246
f 57/158/247 58/159/248 59/157/249
f 57/158/250 59/157/251 55/160/252
