# This file uses centimeters as units for non-parametric coordinates.

mtllib peresozoBrazo1.mtl
g default
v 0.066836 0.016841 -0.001072
v 0.056707 0.002075 0.009081
v 0.069958 0.014979 -0.021311
v 0.074214 -0.025332 -0.013858
v 0.061287 -0.022916 0.001544
v 0.075281 -0.012385 -0.030126
v 0.096902 0.009265 0.010400
v 0.086505 -0.001835 0.017998
v 0.099150 0.009427 -0.009187
v 0.095189 -0.030473 -0.006061
v 0.085935 -0.026719 0.010630
v 0.100381 -0.017182 -0.020249
v 0.162273 -0.002280 0.038518
v 0.153247 -0.012760 0.046278
v 0.164563 -0.001251 0.022716
v 0.168773 -0.035448 0.025268
v 0.156216 -0.031894 0.039242
v 0.169732 -0.023658 0.011661
v 0.118281 -0.008195 0.030797
v 0.128150 0.003798 0.022206
v 0.129735 0.004545 0.005000
v 0.133579 -0.020861 -0.006003
v 0.128997 -0.032960 0.007313
v 0.119743 -0.030339 0.024206
v 0.112177 0.006675 0.015836
v 0.117334 -0.019131 -0.014389
v 0.103192 -0.028861 0.016344
v 0.102121 -0.005005 0.023280
v 0.114277 0.007099 -0.003573
v 0.112882 -0.032342 -0.000161
v 0.201327 -0.008155 0.063210
v 0.193663 -0.020169 0.066756
v 0.205339 -0.005846 0.049336
v 0.209056 -0.035219 0.047857
v 0.198184 -0.035663 0.058125
v 0.210711 -0.023382 0.039117
v 0.212443 -0.011480 0.067576
v 0.206218 -0.020931 0.068738
v 0.214723 -0.009883 0.058246
v 0.218582 -0.033134 0.055853
v 0.210086 -0.034253 0.061654
v 0.218999 -0.023792 0.050509
v 0.048776 0.026461 -0.008129
v 0.036084 0.003909 0.009162
v 0.046011 -0.023085 0.001852
v 0.062501 -0.023831 -0.021888
v 0.063762 -0.007371 -0.042795
v 0.053035 0.020865 -0.035828
v 0.208778 -0.020358 0.062113
v 0.206992 -0.014823 0.065233
v 0.212238 -0.016792 0.057767
v 0.210454 -0.011257 0.060890
v 0.245545 -0.024997 0.097307
v 0.245286 -0.024188 0.097763
v 0.246294 -0.024532 0.096912
v 0.246032 -0.023724 0.097369
v 0.231490 -0.019194 0.076009
v 0.230467 -0.016022 0.077798
v 0.229209 -0.021200 0.078262
v 0.228186 -0.018028 0.080051
v 0.209982 -0.026114 0.059056
v 0.208390 -0.020605 0.062325
v 0.213455 -0.022541 0.054728
v 0.211862 -0.017032 0.057996
v 0.247226 -0.032399 0.093491
v 0.246994 -0.031595 0.093966
v 0.247977 -0.031945 0.093090
v 0.247744 -0.031141 0.093568
v 0.232953 -0.025802 0.072571
v 0.232041 -0.022645 0.074442
v 0.230661 -0.027799 0.074820
v 0.229749 -0.024643 0.076694
v 0.212116 -0.032127 0.056620
v 0.210832 -0.026677 0.060113
v 0.215608 -0.028545 0.052313
v 0.214325 -0.023094 0.055807
v 0.250002 -0.041023 0.089750
v 0.249816 -0.040226 0.090260
v 0.250762 -0.040585 0.089344
v 0.250573 -0.039789 0.089855
v 0.235441 -0.033165 0.069475
v 0.234704 -0.030042 0.071477
v 0.233132 -0.035149 0.071723
v 0.232396 -0.032026 0.073724
vt 0.518118 0.500000
vt 0.368842 0.500000
vt 0.375000 0.500000
vt 0.518117 0.499997
vt 0.631497 0.500000
vt 0.624999 0.500000
vt 0.517638 0.492350
vt 0.637630 0.499578
vt 0.625000 0.500000
vt 0.518118 0.500000
vt 0.625937 0.498887
vt 0.625085 0.499897
vt 0.375000 0.500000
vt 0.375000 0.500000
vt 0.375000 0.500000
vt 0.518118 0.500000
vt 0.625000 0.500000
vt 0.625000 0.500000
vt 0.625000 0.500000
vt 0.625000 0.500000
vt 0.625000 0.500000
vt 0.529280 0.499999
vt 0.375000 0.500000
vt 0.375000 0.500000
vt 0.532492 0.500000
vt 0.625000 0.500000
vt 0.518118 0.500000
vt 0.518119 0.500000
vt 0.625000 0.500000
vt 0.375000 0.500000
vt 0.518118 0.500000
vt 0.518119 0.500000
vt 0.374999 0.499999
vt 0.375000 0.499998
vt 0.518118 0.500000
vt 0.362904 0.497561
vt 0.518118 0.500000
vt 0.625000 0.500000
vt 0.375000 0.500000
vt 0.375000 0.500000
vt 0.624999 0.500000
vt 0.518118 0.500000
vt 0.374734 0.499682
vt 0.372447 0.496949
vt 0.625000 0.500000
vt 0.625000 0.500000
vt 0.518118 0.500000
vt 0.375000 0.500000
vt 0.375000 0.500000
vt 0.375000 0.500000
vt 0.625000 0.500000
vt 0.518118 0.499999
vt 0.375000 0.375000
vt 0.625000 0.375000
vt 0.625000 0.500000
vt 0.375000 0.500000
vt 0.625000 0.750000
vt 0.375000 0.750000
vt 0.375000 0.875000
vt 0.625000 0.875000
vt 0.625000 1.000000
vt 0.375000 1.000000
vt 0.250000 0.500000
vt 0.250000 0.750000
vt 0.750000 0.500000
vt 0.875000 0.500000
vt 0.875000 0.750000
vt 0.750000 0.750000
vt 0.125000 0.500000
vt 0.125000 0.750000
vt 0.375000 0.250000
vt 0.625000 0.250000
vt 0.375000 0.375000
vt 0.625000 0.375000
vt 0.625000 0.500000
vt 0.375000 0.500000
vt 0.625000 0.750000
vt 0.375000 0.750000
vt 0.375000 0.875000
vt 0.625000 0.875000
vt 0.625000 1.000000
vt 0.375000 1.000000
vt 0.250000 0.500000
vt 0.250000 0.750000
vt 0.750000 0.500000
vt 0.875000 0.500000
vt 0.875000 0.750000
vt 0.750000 0.750000
vt 0.125000 0.500000
vt 0.125000 0.750000
vt 0.375000 0.250000
vt 0.625000 0.250000
vt 0.375000 0.375000
vt 0.625000 0.375000
vt 0.625000 0.500000
vt 0.375000 0.500000
vt 0.625000 0.750000
vt 0.375000 0.750000
vt 0.375000 0.875000
vt 0.625000 0.875000
vt 0.625000 1.000000
vt 0.375000 1.000000
vt 0.250000 0.500000
vt 0.250000 0.750000
vt 0.750000 0.500000
vt 0.875000 0.500000
vt 0.875000 0.750000
vt 0.750000 0.750000
vt 0.125000 0.500000
vt 0.125000 0.750000
vt 0.375000 0.250000
vt 0.625000 0.250000
vn 0.025749 0.581987 0.812790
vn 0.025749 0.581987 0.812790
vn 0.025749 0.581987 0.812790
vn 0.025749 0.581987 0.812790
vn 0.440646 0.894840 -0.071369
vn 0.440646 0.894840 -0.071369
vn 0.440646 0.894840 -0.071369
vn 0.440646 0.894839 -0.071369
vn 0.303999 -0.756337 -0.579257
vn 0.303999 -0.756337 -0.579257
vn 0.303999 -0.756337 -0.579257
vn 0.303999 -0.756337 -0.579257
vn 0.711689 0.374201 -0.594536
vn 0.711689 0.374201 -0.594536
vn 0.711689 0.374201 -0.594536
vn 0.711689 0.374201 -0.594536
vn -0.337364 -0.294346 0.894174
vn -0.337364 -0.294345 0.894174
vn -0.337364 -0.294345 0.894174
vn -0.337364 -0.294346 0.894174
vn 0.220780 0.975252 -0.011860
vn 0.220780 0.975252 -0.011860
vn 0.220780 0.975252 -0.011860
vn 0.220780 0.975252 -0.011860
vn 0.442307 0.443109 -0.779756
vn 0.442307 0.443109 -0.779756
vn 0.442307 0.443109 -0.779756
vn 0.442307 0.443109 -0.779756
vn -0.214273 0.686042 0.695294
vn -0.214273 0.686042 0.695294
vn -0.214273 0.686042 0.695294
vn -0.214273 0.686042 0.695294
vn -0.138167 0.632610 0.762046
vn -0.138167 0.632610 0.762046
vn -0.138167 0.632610 0.762046
vn -0.138167 0.632610 0.762046
vn 0.081207 -0.763311 -0.640907
vn 0.081207 -0.763311 -0.640907
vn 0.081207 -0.763311 -0.640907
vn 0.081207 -0.763311 -0.640907
vn 0.408497 0.358707 -0.839321
vn 0.408497 0.358707 -0.839321
vn 0.408497 0.358707 -0.839321
vn 0.408497 0.358707 -0.839321
vn -0.207906 -0.977151 0.044167
vn -0.207906 -0.977151 0.044167
vn -0.207906 -0.977151 0.044167
vn -0.207906 -0.977151 0.044167
vn 0.051328 0.991154 0.122387
vn 0.051328 0.991154 0.122387
vn 0.051328 0.991154 0.122387
vn 0.051328 0.991154 0.122387
vn -0.072118 -0.995706 0.058039
vn -0.072118 -0.995706 0.058039
vn -0.072118 -0.995706 0.058039
vn -0.072118 -0.995706 0.058039
vn -0.105487 -0.986800 0.122872
vn -0.105487 -0.986800 0.122872
vn -0.105487 -0.986800 0.122872
vn -0.105487 -0.986800 0.122872
vn 0.136066 0.988284 0.069148
vn 0.136066 0.988284 0.069148
vn 0.136066 0.988284 0.069148
vn 0.136066 0.988284 0.069148
vn -0.394857 -0.325957 0.858976
vn -0.394857 -0.325957 0.858976
vn -0.394857 -0.325957 0.858976
vn -0.394858 -0.325957 0.858976
vn 0.237207 -0.750371 -0.616990
vn 0.237207 -0.750370 -0.616990
vn 0.237207 -0.750371 -0.616990
vn 0.237207 -0.750371 -0.616990
vn -0.059498 -0.997584 0.035872
vn -0.059498 -0.997584 0.035872
vn -0.059498 -0.997584 0.035872
vn -0.059498 -0.997584 0.035872
vn 0.244957 -0.752601 -0.611218
vn 0.244957 -0.752601 -0.611218
vn 0.244957 -0.752601 -0.611218
vn 0.244957 -0.752601 -0.611218
vn -0.440923 -0.275477 0.854224
vn -0.440923 -0.275477 0.854224
vn -0.440923 -0.275477 0.854224
vn -0.440923 -0.275477 0.854224
vn 0.148557 0.987808 0.046543
vn 0.148557 0.987808 0.046543
vn 0.148557 0.987808 0.046543
vn 0.148557 0.987808 0.046543
vn -0.116821 -0.986589 0.113992
vn -0.116821 -0.986589 0.113992
vn -0.116821 -0.986589 0.113992
vn -0.116821 -0.986589 0.113992
vn -0.191696 0.655889 0.730111
vn -0.191696 0.655889 0.730111
vn -0.191696 0.655890 0.730111
vn -0.191696 0.655890 0.730111
vn 0.474189 0.395707 -0.786486
vn 0.474189 0.395707 -0.786486
vn 0.474189 0.395707 -0.786486
vn 0.474189 0.395707 -0.786486
vn 0.355968 0.382011 -0.852851
vn 0.355968 0.382011 -0.852851
vn 0.355968 0.382011 -0.852851
vn 0.355968 0.382011 -0.852851
vn -0.145786 0.632956 0.760337
vn -0.145786 0.632956 0.760337
vn -0.145786 0.632956 0.760337
vn -0.145786 0.632956 0.760337
vn -0.154206 -0.980024 0.125593
vn -0.154206 -0.980024 0.125593
vn -0.154206 -0.980024 0.125593
vn -0.154206 -0.980024 0.125593
vn 0.148476 0.988417 0.031408
vn 0.148476 0.988417 0.031408
vn 0.148476 0.988417 0.031408
vn 0.148476 0.988417 0.031408
vn -0.344269 -0.267642 0.899915
vn -0.344269 -0.267642 0.899915
vn -0.344269 -0.267642 0.899915
vn -0.344269 -0.267642 0.899915
vn 0.138281 -0.747255 -0.649992
vn 0.138281 -0.747255 -0.649992
vn 0.138281 -0.747255 -0.649992
vn 0.138281 -0.747255 -0.649991
vn -0.002348 -0.275226 0.961377
vn -0.002348 -0.275226 0.961377
vn -0.002348 -0.275226 0.961377
vn -0.002348 -0.275226 0.961377
vn 0.675661 -0.452916 -0.581678
vn 0.675660 -0.452916 -0.581678
vn 0.675660 -0.452916 -0.581678
vn 0.675660 -0.452916 -0.581678
vn -0.176152 -0.510332 0.841744
vn -0.176152 -0.510332 0.841744
vn -0.176152 -0.510332 0.841744
vn -0.176152 -0.510332 0.841744
vn -0.434222 -0.447605 0.781729
vn -0.434222 -0.447605 0.781729
vn -0.434222 -0.447605 0.781729
vn -0.434222 -0.447605 0.781729
vn 0.400216 -0.652704 -0.643276
vn 0.400216 -0.652704 -0.643276
vn 0.400216 -0.652704 -0.643276
vn 0.400216 -0.652704 -0.643276
vn -0.315803 0.602665 0.732846
vn -0.315803 0.602665 0.732846
vn -0.315803 0.602665 0.732846
vn -0.315803 0.602665 0.732846
vn 0.494081 0.506682 -0.706510
vn 0.494081 0.506682 -0.706510
vn 0.494081 0.506682 -0.706510
vn 0.494081 0.506682 -0.706510
vn 0.953365 0.130206 0.272289
vn 0.953365 0.130206 0.272289
vn 0.953365 0.130206 0.272289
vn 0.953365 0.130206 0.272289
vn 0.560048 -0.262316 0.785835
vn 0.560048 -0.262316 0.785835
vn 0.560048 -0.262316 0.785835
vn 0.560048 -0.262316 0.785835
vn -0.191703 0.327007 0.925374
vn -0.191703 0.327007 0.925374
vn -0.191703 0.327007 0.925374
vn -0.191703 0.327007 0.925374
vn 0.703555 0.502695 -0.502302
vn 0.703555 0.502695 -0.502303
vn 0.703555 0.502695 -0.502303
vn 0.703555 0.502695 -0.502302
vn 0.129362 -0.989802 0.059644
vn 0.129362 -0.989802 0.059644
vn 0.129362 -0.989802 0.059644
vn 0.129362 -0.989802 0.059644
vn 0.203185 0.955050 0.215862
vn 0.203185 0.955050 0.215862
vn 0.203185 0.955050 0.215862
vn 0.203185 0.955050 0.215862
vn 0.767452 0.484628 -0.419705
vn 0.767452 0.484628 -0.419705
vn 0.767452 0.484628 -0.419705
vn 0.767452 0.484628 -0.419705
vn 0.570945 -0.256407 0.779921
vn 0.570945 -0.256407 0.779921
vn 0.570945 -0.256407 0.779921
vn 0.570945 -0.256407 0.779921
vn -0.535809 -0.539192 0.649754
vn -0.535809 -0.539192 0.649754
vn -0.535809 -0.539192 0.649754
vn -0.535809 -0.539192 0.649754
vn 0.309666 -0.845630 -0.434760
vn 0.309666 -0.845630 -0.434760
vn 0.309666 -0.845630 -0.434760
vn 0.309666 -0.845630 -0.434760
vn -0.227767 0.832538 0.504978
vn -0.227767 0.832538 0.504978
vn -0.227767 0.832538 0.504978
vn -0.227767 0.832538 0.504978
vn -0.230340 0.828788 0.509955
vn -0.230340 0.828788 0.509955
vn -0.230340 0.828788 0.509955
vn -0.230340 0.828788 0.509955
vn 0.312127 -0.842216 -0.439600
vn 0.312127 -0.842216 -0.439600
vn 0.312127 -0.842216 -0.439600
vn 0.312127 -0.842216 -0.439600
vn -0.701226 -0.507942 0.500277
vn -0.701226 -0.507942 0.500277
vn -0.701226 -0.507942 0.500277
vn -0.701226 -0.507942 0.500277
vn 0.617937 0.527906 -0.582640
vn 0.617937 0.527906 -0.582640
vn 0.617937 0.527906 -0.582640
vn 0.617937 0.527906 -0.582640
vn 0.772014 0.474177 -0.423263
vn 0.772013 0.474177 -0.423263
vn 0.772014 0.474177 -0.423263
vn 0.772013 0.474177 -0.423263
vn 0.579086 -0.285171 0.763765
vn 0.579085 -0.285171 0.763765
vn 0.579086 -0.285171 0.763765
vn 0.579085 -0.285171 0.763765
vn -0.537730 -0.539803 0.647656
vn -0.537730 -0.539803 0.647656
vn -0.537730 -0.539803 0.647656
vn -0.537730 -0.539803 0.647656
vn 0.280905 -0.843583 -0.457668
vn 0.280905 -0.843584 -0.457668
vn 0.280905 -0.843584 -0.457668
vn 0.280905 -0.843583 -0.457668
vn -0.198305 0.826865 0.526278
vn -0.198305 0.826865 0.526278
vn -0.198305 0.826865 0.526278
vn -0.198305 0.826865 0.526278
vn -0.200808 0.823149 0.531133
vn -0.200808 0.823149 0.531133
vn -0.200808 0.823149 0.531133
vn -0.200808 0.823149 0.531133
vn 0.283637 -0.839917 -0.462699
vn 0.283637 -0.839917 -0.462699
vn 0.283637 -0.839917 -0.462699
vn 0.283637 -0.839917 -0.462699
vn -0.704831 -0.501327 0.501880
vn -0.704831 -0.501327 0.501880
vn -0.704831 -0.501327 0.501880
vn -0.704831 -0.501327 0.501880
vn 0.620735 0.524826 -0.582448
vn 0.620735 0.524826 -0.582448
vn 0.620735 0.524826 -0.582448
vn 0.620735 0.524826 -0.582448
vn 0.778260 0.458804 -0.428731
vn 0.778260 0.458804 -0.428731
vn 0.778260 0.458804 -0.428731
vn 0.778260 0.458804 -0.428731
vn 0.587023 -0.334363 0.737296
vn 0.587023 -0.334363 0.737296
vn 0.587023 -0.334363 0.737296
vn 0.587023 -0.334363 0.737296
vn -0.540866 -0.540461 0.644489
vn -0.540866 -0.540461 0.644489
vn -0.540866 -0.540461 0.644489
vn -0.540866 -0.540461 0.644489
vn 0.234620 -0.837699 -0.493167
vn 0.234620 -0.837699 -0.493167
vn 0.234620 -0.837699 -0.493167
vn 0.234620 -0.837699 -0.493167
vn -0.151122 0.815354 0.558892
vn -0.151122 0.815354 0.558892
vn -0.151122 0.815354 0.558892
vn -0.151122 0.815354 0.558892
vn -0.153493 0.811678 0.563577
vn -0.153493 0.811678 0.563577
vn -0.153493 0.811678 0.563577
vn -0.153493 0.811678 0.563577
vn 0.237393 -0.834001 -0.498084
vn 0.237393 -0.834001 -0.498084
vn 0.237393 -0.834001 -0.498084
vn 0.237393 -0.834000 -0.498084
vn -0.710259 -0.490495 0.504923
vn -0.710259 -0.490495 0.504923
vn -0.710259 -0.490495 0.504923
vn -0.710259 -0.490495 0.504923
vn 0.624901 0.520316 -0.582039
vn 0.624901 0.520316 -0.582039
vn 0.624901 0.520316 -0.582039
vn 0.624901 0.520316 -0.582039
vn -0.898285 -0.167388 -0.406282
vn -0.898285 -0.167388 -0.406282
vn -0.898285 -0.167388 -0.406282
vn -0.898285 -0.167388 -0.406282
vn -0.898285 -0.167388 -0.406282
vn -0.898285 -0.167388 -0.406282
vn -0.807431 0.069976 -0.585798
vn -0.807431 0.069976 -0.585798
vn -0.807431 0.069976 -0.585798
vn -0.807431 0.069976 -0.585798
vn -0.815438 0.102303 -0.569733
vn -0.815438 0.102303 -0.569733
vn -0.815438 0.102303 -0.569733
vn -0.815438 0.102303 -0.569733
vn -0.826005 0.153174 -0.542452
vn -0.826004 0.153174 -0.542452
vn -0.826004 0.153174 -0.542452
vn -0.826005 0.153174 -0.542452
s off
g osoperesozo:polySurface41
usemtl osoperesozo:Brown
f 43/1/1 44/2/2 2/3/3 1/4/4
f 48/5/5 43/1/6 1/4/7 3/6/8
f 46/7/9 47/8/10 6/9/11 4/10/12
f 47/11/13 48/12/14 3/6/15 6/9/16
f 2/3/17 5/13/18 11/14/19 8/15/20
f 3/6/21 1/4/22 7/16/23 9/17/24
f 22/18/25 21/19/26 15/20/27 18/21/28
f 20/22/29 19/23/30 14/24/31 13/25/32
f 1/4/33 2/3/34 8/15/35 7/16/36
f 4/10/37 6/9/38 12/26/39 10/27/40
f 6/9/41 3/6/42 9/17/43 12/26/44
f 5/13/45 4/10/46 10/27/47 11/14/48
f 15/20/49 13/25/50 31/28/51 33/29/52
f 17/30/53 16/31/54 34/32/55 35/33/56
f 24/34/57 23/35/58 16/31/59 17/30/60
f 21/19/61 20/22/62 13/25/63 15/20/64
f 19/23/65 24/34/66 17/30/67 14/24/68
f 23/35/69 22/18/70 18/21/71 16/31/72
f 45/36/73 46/7/74 4/10/75 5/13/76
f 30/37/77 26/38/78 22/18/79 23/35/80
f 28/39/81 27/40/82 24/34/83 19/23/84
f 29/41/85 25/42/86 20/22/87 21/19/88
f 27/40/89 30/37/90 23/35/91 24/34/92
f 25/42/93 28/39/94 19/23/95 20/22/96
f 26/38/97 29/41/98 21/19/99 22/18/100
f 12/26/101 9/17/102 29/41/103 26/38/104
f 7/16/105 8/15/106 28/39/107 25/42/108
f 11/14/109 10/27/110 30/37/111 27/40/112
f 9/17/113 7/16/114 25/42/115 29/41/116
f 8/15/117 11/14/118 27/40/119 28/39/120
f 10/27/121 12/26/122 26/38/123 30/37/124
f 44/43/125 45/44/126 5/13/127 2/3/128
f 34/32/129 36/45/130 42/46/131 40/47/132
f 32/48/133 35/33/134 41/49/135 38/50/136
f 14/24/137 17/30/138 35/33/139 32/48/140
f 16/31/141 18/21/142 36/45/143 34/32/144
f 13/25/145 14/24/146 32/48/147 31/28/148
f 18/21/149 15/20/150 33/29/151 36/45/152
f 39/51/153 37/52/154 40/47/155 42/46/156
f 37/52/157 38/50/158 41/49/159 40/47/160
f 31/28/161 32/48/162 38/50/163 37/52/164
f 36/45/165 33/29/166 39/51/167 42/46/168
f 35/33/169 34/32/170 40/47/171 41/49/172
f 33/29/173 31/28/174 37/52/175 39/51/176
usemtl osoperesozo:White
f 57/53/177 58/54/178 56/55/179 55/56/180
f 55/56/181 56/55/182 54/57/183 53/58/184
f 59/59/185 60/60/186 50/61/187 49/62/188
f 57/63/189 55/56/190 53/58/191 59/64/192
f 58/65/193 52/66/194 50/67/195 60/68/196
f 56/55/197 58/65/198 60/68/199 54/57/200
f 51/69/201 57/63/202 59/64/203 49/70/204
f 53/58/205 54/57/206 60/60/207 59/59/208
f 51/71/209 52/72/210 58/54/211 57/53/212
f 69/73/213 70/74/214 68/75/215 67/76/216
f 67/76/217 68/75/218 66/77/219 65/78/220
f 71/79/221 72/80/222 62/81/223 61/82/224
f 69/83/225 67/76/226 65/78/227 71/84/228
f 70/85/229 64/86/230 62/87/231 72/88/232
f 68/75/233 70/85/234 72/88/235 66/77/236
f 63/89/237 69/83/238 71/84/239 61/90/240
f 65/78/241 66/77/242 72/80/243 71/79/244
f 63/91/245 64/92/246 70/74/247 69/73/248
f 81/93/249 82/94/250 80/95/251 79/96/252
f 79/96/253 80/95/254 78/97/255 77/98/256
f 83/99/257 84/100/258 74/101/259 73/102/260
f 81/103/261 79/96/262 77/98/263 83/104/264
f 82/105/265 76/106/266 74/107/267 84/108/268
f 80/95/269 82/105/270 84/108/271 78/97/272
f 75/109/273 81/103/274 83/104/275 73/110/276
f 77/98/277 78/97/278 84/100/279 83/99/280
f 75/111/281 76/112/282 82/94/283 81/93/284
usemtl osoperesozo:Brown
f 44/2/285 43/1/286 48/12/287 47/8/288 46/7/289 45/44/290
usemtl osoperesozo:initialShadingGroup
f 49/62/291 50/67/292 52/72/293 51/69/294
f 61/82/295 62/87/296 64/92/297 63/89/298
f 73/102/299 74/107/300 76/112/301 75/109/302
